<?xml version="1.0" encoding="utf-8"?>
<svg version="1.1" viewBox="0 0 1113 1162" xmlns="http://www.w3.org/2000/svg">
<title>A sketch of the layout of Agatha Dawson’s bedroom showing the position of a mirror through which the maids could see her sign documents.</title>
 <path d="m770.67 1148.9c-1.6885-0.7472-4.1758-0.9938-9-0.8922-3.6667 0.077-9.8167 0.1016-13.667 0.055-3.85-0.047-26.381-0.1766-50.069-0.2873-23.688-0.1107-43.338-0.356-43.667-0.5451-0.32854-0.1891-10.78 0.033-23.225 0.4924-22.903 0.8464-29.27 0.7572-32.478-0.4555-1.3466-0.5089-2.1469-0.4244-3.3333 0.3521-1.638 1.072-10.473 1.0758-28.561 0.012-4.2167-0.248-8.4167-0.4274-9.3333-0.3988-8.5654 0.2674-36.324 0.1093-44-0.2507-5.3167-0.2493-13.117-0.4359-17.333-0.4145-4.2167 0.021-14.417 0.01-22.667-0.033-35.854-0.171-57.754 0.1482-60.422 0.8806-2.0944 0.5748-3.1131 0.565-4.2447-0.041-1.9929-1.0666-19.815-2.234-25.666-1.6812-2.5667 0.2425-18.917 0.6002-36.333 0.7949-35.329 0.3948-32.635 0.4125-56.168-0.3699-9.4425-0.3139-18.443-0.3453-20-0.07-1.5575 0.2756-6.7318 0.3956-11.498 0.2664-4.7667-0.1292-17.217-0.2005-27.667-0.1585-22.06 0.089-20.599 0.1007-37-0.3065-10.712-0.2659-13-0.1497-14.826 0.7529-1.9941 0.9855-2.3064 0.9807-4.0731-0.063-1.0524-0.6216-2.0964-0.9472-2.3201-0.7235-0.58044 0.5804-5.8556 0.8321-24.61 1.1739-9.0728 0.1654-16.764 0.4664-17.092 0.6689s-2.9544 0.038-5.8373-0.3659c-2.8828-0.4038-5.8415-0.7146-6.5748-0.6908-4.098 0.1333-27.976-0.4374-33-0.7887-9.374-0.6555-23.766-1.3796-24.667-1.2409-0.55 0.085-4.9 0.3034-9.6667 0.486-13.821 0.5294-27.412 1.5852-29.211 2.269-3.7091 1.4102-13.039-1.2862-13.102-3.7864-0.043607-1.7341 2.1323-13.208 2.7092-14.286 0.81654-1.5257 0.75727-8.9662-0.0959-12.038-0.49051-1.7662-0.47753-2.8903 0.04465-3.866 0.52022-0.972 0.53362-2.0019 0.04567-3.5097-1.0252-3.168-1.0549-16.044-0.07966-34.467 0.04853-0.9166-0.11397-4.119-0.36111-7.1164-0.274-3.3231-0.17459-6.2378 0.25476-7.4694 0.48191-1.3824 0.49188-2.7884 0.03159-4.4554-0.48415-1.7535-0.44683-2.9804 0.13324-4.3809 0.66579-1.6073 0.63017-2.1449-0.20509-3.0949-0.8439-0.9598-0.92083-2.2768-0.46582-7.9746 0.29976-3.7536 0.71031-7.0923 0.91233-7.4192 0.35168-0.569 1.3237-57.978 1.0399-61.423-0.07552-0.91666-0.1236-2.7167-0.10686-4 0.03589-2.7507 0.22338-28.031 0.2472-33.333 0.0091-2.0167 0.04063-5.7667 0.07013-8.3333 0.05008-4.3555 0.03877-9.7429-0.0497-23.667-0.0198-3.1167-0.10774-8.9667-0.19541-13-0.08767-4.0333 0.07063-10.633 0.3518-14.667 0.28116-4.0333 0.48339-8.2333 0.44939-9.3333-0.26674-8.6303-0.05435-45.168 0.30615-52.667 0.24678-5.1333 0.36392-10.983 0.26031-13s-0.15685-5.6167-0.11831-8c0.03854-2.3833 0.25736-16.933 0.48626-32.333 0.22891-15.4 0.44087-29.35 0.47104-31 0.03017-1.65-0.02799-4.35-0.12922-6-0.10123-1.65 0.03021-25.95 0.29209-54 0.26188-28.05 0.39636-52.05 0.29884-53.333-0.25618-3.3714-0.224-5.234 0.40325-23.333 0.31132-8.9833 0.52229-18.583 0.46882-21.333-0.05347-2.75-0.13385-13.697-0.17863-24.327-0.05055-12.002-0.33847-19.637-0.75969-20.144-0.40756-0.49108-0.50121-2.3562-0.23464-4.6731 0.41471-3.6043 0.58601-10.764 0.44319-18.522-0.03375-1.8333 0.28021-4.1886 0.69768-5.234 0.56618-1.4177 0.56734-2.6882 0.0046-5-0.49915-2.0507-0.62255-7.0481-0.36463-14.766 0.36742-10.995 0.48354-17.508 0.38033-21.333-0.02473-0.91667 0.06769-14.567 0.20538-30.333 0.36129-41.369 0.35955-41.471-0.81385-47.546-0.95701-4.9552-0.97184-6.5536-0.13916-15 0.94323-9.5677 1.8307-41.705 1.3749-49.787-0.07238-1.2833-0.12598-5.0333-0.11911-8.3333 0.0069-3.3-0.28322-7.5-0.64464-9.3333-0.39064-1.9816-0.51859-11.038-0.31553-22.333 0.40589-22.577 0.40457-21.379 0.03948-35.667-0.47517-18.596-0.37588-32.252 0.28492-39.188 0.41947-4.4025 0.39149-7.613-0.08573-9.8382-0.38962-1.8167-0.5605-5.3291-0.37974-7.8053 1.9059-26.109 1.9042-26.041 0.74292-28.488-0.77132-1.6254-0.96278-3.0124-0.62308-4.5136 0.47722-2.109 0.5847-6.6706 0.34953-14.834-0.06338-2.2 0.15744-5.2017 0.4907-6.6705s0.46665-9.1188 0.29641-17c-0.17024-7.8812-0.28199-16.13-0.24834-18.33s0.20562-15.55 0.38215-29.667c0.17653-14.117 0.51484-27.917 0.7518-30.667 0.35894-4.1657 0.19795-5.6118-0.96483-8.6667-2.3464-6.1646-1.4739-9.3333 2.5699-9.3333 1.029 0 2.9433-0.44803 4.2538-0.99562 1.8306-0.76488 2.8151-0.82984 4.2481-0.2803 1.0259 0.39343 3.0003 0.5363 4.3876 0.31749s3.0697-0.10493 3.7386 0.25306c0.6689 0.35799 6.0406 0.76129 11.937 0.89623 7.2025 0.16483 11.047 0.5157 11.714 1.0691 0.79145 0.65684 1.3738 0.63746 2.8738-0.09566 1.555-0.7589 10.032-0.88919 48.881-0.75019 25.85 0.09249 53.75 0.15902 62 0.14784 8.25-0.01118 20.7 0.07569 27.667 0.19304 12.21 0.20567 26.296 0.19859 56-0.02816 10.864-0.08293 44.073 0.30489 56.333 0.65787 0.91667 0.02639 2.5667-0.01804 3.6667-0.09874s2.75-0.1013 3.6667-0.04579c5.6211 0.34038 40.911 0.0018 43.667-0.41899 1.8333-0.27989 6.3333-0.28404 10-0.0092 5.5857 0.41864 12.172 0.55142 21.667 0.4368 16.591-0.2003 17.718-0.1964 23 0.07955 2.5667 0.1341 6.6167 0.02562 9-0.24106 2.3833-0.26668 6.8833-0.40582 10-0.30919 5.837 0.18097 11.05 0.14121 30-0.22885 10.575-0.2065 20.902-0.14726 33.667 0.19312 8.3216 0.22191 13.571 0.21927 21.333-0.01071 3.6667-0.10863 16.935-0.01918 29.485 0.19878 12.745 0.22135 25.491 0.11973 28.873-0.2302 4.4307-0.4584 8.3115-0.37648 14.464 0.30532 4.6246 0.5125 8.6023 0.812 8.8392 0.66557 0.5115-0.31613 37.59-1.2995 40.005-1.061 0.91667 0.09052 2.4167 0.1321 3.3333 0.09239 8.1292-0.35213 45.218-0.77244 50.333-0.5704 1.1 0.04345 6.35 0.04275 11.667-0.0015 5.3167-0.04429 12.517-0.03345 16 0.02411 3.4833 0.05755 12.483-0.15101 20-0.46347 7.5167-0.31246 14.867-0.5231 16.333-0.46809 8.1673 0.30634 40.444 0.69279 51.333 0.61461 6.9667-0.05002 15.217-0.10202 18.333-0.11556 3.1167-0.01354 9.8667 0.21197 15 0.50113 13.253 0.74656 31.854 0.66744 37.333-0.1588 6.2443-0.94155 16.215-0.91694 26.179 0.06463 6.4115 0.63163 9.2015 0.63044 12.91-0.0055 9.1035-1.5611 17.972-1.7641 21.782-0.49877 4.2161 1.4004 4.6767 2.039 2.6801 3.7165-1.5077 1.2668-1.5136 1.3136-0.2128 1.6834 1.3177 0.3746 1.3401 0.96603 1.4769 38.872 0.0765 21.171 0.44133 41.153 0.81093 44.406 0.46074 4.0544 0.45167 7.3998-0.0287 10.639-0.3854 2.599-0.66354 7.4444-0.61807 10.767 0.0947 6.9177-0.7596 10.247-2.3011 8.9675-0.53154-0.44119-1.3516-0.67215-1.8223-0.51326-0.4922 0.16617 0.0413 0.75446 1.2554 1.3848 1.4105 0.73217 2.3838 1.9219 2.9326 3.5849 0.95953 2.9074 1.2984 21.447 0.45173 24.713-0.31446 1.2131-0.29713 4.9064 0.0393 8.3333 0.39973 4.0735 0.37306 6.6055-0.079 7.488-0.74474 1.4539-1.3585 15.692-1.1783 27.333 0.0627 4.0333 0.0747 8.6833 0.0273 10.333-0.22134 7.6831-0.1452 13.016 0.30473 21.333 0.2678 4.95 0.47253 10.05 0.45507 11.333-0.19887 14.597-0.2902 35.366-0.2594 59 0.0207 15.767 0.034 29.567 0.03 30.667-7e-3 1.1 0.19626 5.15 0.44486 9 0.24854 3.85 0.57734 30.85 0.73054 60s0.46953 59.3 0.70286 67c0.2334 7.7 0.34274 16.4 0.24307 19.333-0.0997 2.9333-0.14533 5.9333-0.1014 6.6667 0.2028 3.3842 0.90767 93.682 0.752 96.333-0.23847 4.0608-0.21373 7.1081 0.33593 41.333 0.56427 35.136 0.56294 31.199 0.014 40.667-0.2602 4.4842-0.17233 8.6534 0.21167 10.044 0.4616 1.6717 0.40533 3.5956-0.1896 6.4827-0.55653 2.7006-0.64607 4.967-0.2616 6.6229 0.7968 3.4319 0.7638 10.686-0.0613 13.522-0.46434 1.5955-0.45367 3.8267 0.034 7.0851 0.73766 4.93 0.88546 21.151 0.50033 54.911-0.12333 10.817 0.0193 25.667 0.31667 33 0.6654 16.398 0.6174 23.772-0.19894 30.605-0.4542 3.8016-0.41773 5.5273 0.13087 6.1883 0.57207 0.68927 0.55 1.5549-0.0888 3.4906-0.46727 1.4157-0.61853 2.9477-0.33613 3.4046 0.66733 1.0798 1.0414 13.225 0.98486 31.978-0.0247 8.25-0.044 16.95-0.042 19.333 0 2.3833-0.0627 9.2833-0.14326 15.333-0.14854 11.159-0.1562 29.316-0.0153 36 0.0427 2.0167 0.0678 5.3167 0.056 7.3333-0.05 8.6861 0.88567 38.421 1.2377 39.333 0.21213 0.55 0.5032 14.95 0.64673 32 0.1436 17.05 0.42287 38.05 0.62074 46.667 0.1978 8.6167 0.44233 21.98 0.5434 29.697 0.101 7.7168 0.3878 14.361 0.6372 14.764 0.24946 0.4036 0.63486 4.9351 0.85646 10.07 0.38314 8.8768 0.33414 9.405-0.99666 10.736-0.78647 0.7864-2.3487 1.4376-3.5663 1.4863-1.1917 0.048-4.1167 0.1753-6.5 0.2835-2.7666 0.1256-5.3788-0.1876-7.225-0.8662-2.3955-0.8806-3.2778-0.9234-5.1423-0.2492-1.9446 0.7032-36.257 1.9188-43.299 1.534-6.6298-0.3623-16.947-0.09-23 0.6065-8.6797 0.9991-10.014 0.9985-15-0.01-2.4366-0.4913-9.4719-0.7852-18-0.7522-7.7 0.03-14.995-0.2358-16.211-0.5904-1.7673-0.5154-2.7038-0.388-4.6667 0.6346-2.261 1.178-3.6539 1.2577-17.573 1.0057-8.3143-0.1505-16.173-0.4717-17.463-0.7138-1.5809-0.2966-3.0439-0.092-4.4855 0.6271-1.1767 0.587-2.1683 1.0428-2.2036 1.0129-0.0353-0.03-1.1143-0.519-2.3976-1.0869zm-26.034-10.127c9.0021 0.097 19.967 0.094 24.367-0.01 10.019-0.2263 7.9467-0.2127 26-0.1705 8.4333 0.02 16.683 0.01 18.333-0.029 1.65-0.035 13.65-0.034 26.667 0.01 13.017 0.037 24.717 0.067 26 0.066 1.2833 0 4.2833 0.013 6.6667 0.031s6.0911-0.2854 8.2395-0.6739c2.1485-0.3886 6.9485-0.6675 10.667-0.6198 3.7183 0.047 7.8105 0.074 9.0938 0.058 10.696-0.131 38.228 0.4839 40.453 0.9034 2.4651 0.465 2.9801 0.3315 4.4706-1.159 1.3813-1.3814 1.5881-2.0254 1.1486-3.5776-0.2948-1.0412-0.36833-9.5431-0.16346-18.893 0.5772-26.347 0.56773-26.702-0.78507-29.525-1.0301-2.1501-1.0915-2.8845-0.41253-4.9417 0.4994-1.5131 0.75247-6.0746 0.67713-12.203-0.0901-7.3312 0.1364-10.524 0.9028-12.725 1.2922-3.7107 1.2898-4.5712-0.02-7.1966-0.7558-1.5149-0.95366-3.1323-0.68546-5.6024 1.1845-10.908 1.2393-17.566 0.16186-19.65-0.70706-1.3673-1.0806-3.7733-1.0806-6.9604 0-2.679-0.3034-5.9189-0.67426-7.1998-0.50694-1.7509-0.41354-3.3747 0.37606-6.5421 0.61867-2.4814 0.86247-5.0686 0.5932-6.2947-0.25146-1.1449-0.56826-7.6491-0.704-14.454-0.13573-6.8045-0.26786-12.972-0.29366-13.705-0.026-0.73333 0.0887-14.683 0.25433-31 0.16573-16.328-7e-3 -34.912-0.3786-41.333-0.5784-9.9274-0.52053-12.501 0.38807-17.261 0.58726-3.0769 0.85126-5.9269 0.58666-6.3333-0.26466-0.40654-0.55226-5.3891-0.63926-11.072-0.0869-5.6833-0.20827-12.283-0.26954-14.667-0.0613-2.3833-0.0768-5.6833-0.0347-7.3333 0.042-1.65 0.03-4.2-0.0273-5.6667-0.0573-1.4667 0.1492-10.691 0.45907-20.498l0.5634-17.831-1.7601-1.6311c-1.9208-1.7801-1.7963-3.2625 0.42547-5.0647 1.1984-0.9722 1.2228-1.4676 0.47667-9.6667-0.4326-4.7531-0.6992-11.942-0.5924-15.975 0.1068-4.0333 0.14853-8.5333 0.0929-10-0.056-1.4667-0.0433-6.1167 0.028-10.333 0.0973-5.7558-0.0969-55.363-0.2962-75.667-0.022-2.231 0.47307-5.2889 1.5284-9.4427 0.52447-2.0643 0.492-3.4224-0.12666-5.2969-1.1109-3.3658-1.2797-12.586-0.58847-32.121 0.4572-12.921 0.3844-17.275-0.3602-21.54-0.81767-4.6835-0.8076-5.8159 0.0809-9.1389 0.72874-2.7252 0.89447-5.2944 0.5888-9.1263-0.23393-2.9333-0.53346-17.183-0.6656-31.667-0.13213-14.483-0.39353-27.683-0.58086-29.333-0.31067-2.736-0.42627-17.661-0.2066-26.667 0.0493-2.0167 0.34733-4.0663 0.6626-4.5548 1.0564-1.6368 1.1359-9.9134 0.10353-10.77-1.1517-0.95583-10.208-1.599-11.252-0.79915-0.4168 0.31913-4.243 0.61474-8.5028 0.65691-10.474 0.10369-10.349 0.21301-9.9269-8.6462 0.35874-7.531 0.3356-16.25-0.0678-25.553-0.14313-3.3-0.20713-7.35-0.14233-9 0.0647-1.65-0.0233-8.25-0.19593-14.667-0.39547-14.7-0.4142-16.823-0.18787-21.333 0.31433-6.2642-0.6494-34.039-1.388-40-0.50547-4.0799-0.48673-8.1868 0.0669-14.667 0.51834-6.0663 0.58334-12.694 0.1994-20.333-0.31326-6.2333-0.5284-26.108-0.47813-44.167 0.0843-30.265 7e-3 -32.832-1.0215-32.812-0.612 0.0117-1.6951 0.46167-2.4069 1-0.7118 0.53834-2.0779 0.9788-3.0359 0.9788-1.1154 0-2.5551 0.83909-4.0032 2.3332-1.2438 1.2833-3.4777 3.1486-4.9641 4.1451s-3.9654 2.9414-5.5087 4.322c-2.2898 2.0484-3.0871 2.4075-4.3333 1.952-1.9565-0.71504-3.2296-3.1958-2.5738-5.0154 0.52574-1.4588 6.6588-6.166 10.713-8.2226 1.6667-0.84543 2.3929-1.7003 2.5421-2.9924 0.17473-1.5149-0.0961-1.8743-1.6667-2.2115-3.8759-0.83233-4.8758-1.544-4.8652-3.4628 0.012-2.2317 0.51887-3.0667 2.4898-4.1046 1.6006-0.84289 3.2656-0.31589 5.6909 1.8012 0.65493 0.57174 2.9975 1.2526 5.2056 1.5129s4.5459 0.95401 5.195 1.5415c0.64907 0.58744 1.3123 1.0681 1.4738 1.0681s0.36-3.225 0.4412-7.1667 0.20827-8.6667 0.28233-10.5c0.2134-5.2828-1.5233-22.446-2.5169-24.872-0.4966-1.213-1.1017-3.704-1.3447-5.5356-0.40366-3.0432-0.2796-3.4994 1.4403-5.2946 2.2504-2.3489 3.193-2.4138 7.4106-0.51008 3.3468 1.5107 6.6321 1.8953 17.889 2.0944l6.6667 0.11792 0.6676-2.0654c0.3672-1.136 1.0777-2.5594 1.5789-3.1633 0.77694-0.93613 0.74514-1.3515-0.21566-2.8179-0.93234-1.4229-1.1941-4.1578-1.5155-15.837-0.62433-22.68-0.50346-31.593 0.444-32.734 0.68274-0.82263 0.61014-1.2957-0.39473-2.5731-1.1093-1.4101-1.2194-2.8151-1.1122-14.187 0.11467-12.162 0.1096-45.671-0.0107-70.622-0.032-6.6 0.1722-13.95 0.4534-16.333 0.31914-2.7052 0.25667-4.7091-0.16633-5.3333-0.84373-1.2452-18.793-1.9267-31.062-1.1793-4.4 0.26805-19.73 0.61936-34.067 0.78068-16.724 0.18818-27.094 0.56987-28.932 1.0649-2.5821 0.6953-3.0589 0.62872-4.8196-0.67303-1.4573-1.0774-2.4065-1.3185-3.7345-0.94818-2.0691 0.57694-27.721 1.1717-38.447 0.89147-9.3055-0.24313-17.957-0.13207-31 0.39797-5.6833 0.23095-10.933 0.39759-11.667 0.37032-13.569-0.50464-22.249-0.70614-29.333-0.68096-8.2963 0.02949-49.589 0.52671-51.667 0.62215-0.55 0.02526-3.7-0.08567-7-0.24651-14.473-0.70539-32.763-0.58748-36.349 0.23432-3.129 0.71714-4.045 0.69217-6.0995-0.16624-1.9194-0.80199-3.6334-0.90041-8.3181-0.47765-3.2453 0.29286-6.919 0.90945-8.1639 1.3702-1.7796 0.65864-2.7368 0.66653-4.478 0.03693-3.666-1.3268-25.632-1.7436-64.258-1.2202-3.85 0.05217-14.65-0.16008-24-0.47167-9.35-0.31159-22.1-0.54334-28.333-0.515-6.2333 0.02833-14.545-0.21521-18.471-0.54121-5.218-0.43335-8.2656-0.36417-11.333 0.25727-3.0591 0.61968-11.437 0.81425-30.919 0.71805-14.697-0.07258-27.297-0.30711-28-0.52119-0.70252-0.21408-3.3773-0.16448-5.944 0.11023-3.085 0.33018-6.2484 0.20251-9.3333-0.37666-2.589-0.48606-6.0867-0.68992-7.8563-0.45788-1.7543 0.23003-7.3043 0.51299-12.333 0.6288-15.191 0.34982-70.335 1.0787-72.477 0.95803-2.0381-0.11483-10.822-0.15907-22.5-0.11334-3.575 0.014-7.625 0.01136-9-0.0059-8.4444-0.1058-52.181 0.07061-53.833 0.21714-2.4554 0.21774-8.7147 0.14954-16.667-0.18159-3.3-0.13742-6.8834-0.02149-7.9632 0.25762-1.104 0.28536-3.1465 0.18377-4.6667-0.2321-1.4869-0.40677-6.4534-0.71238-11.037-0.67914-4.5833 0.03324-12.083 0.02773-16.667-0.01226-16.008-0.13965-18.347-0.13269-20.333 0.06047-1.1 0.10699-12.703 0.02819-25.786-0.17511-22.947-0.3566-23.844-0.32338-25.454 0.94262-1.6663 1.3107-1.6695 1.3106-2.6779-0.12919-0.92053-1.3142-1.3511-1.395-4.8796-0.9155-2.1285 0.28927-4.4699 0.51145-5.2033 0.49373-0.73333-0.01772-8.4047-0.11879-17.047-0.2246-15.141-0.18537-15.8-0.13954-18.058 1.256-2.1166 1.3081-2.4217 1.886-3.1513 5.9684-0.44428 2.486-0.77186 6.0169-0.72795 7.8464 0.04391 1.8295-0.1419 18.026-0.4129 35.993-0.47335 31.382-0.54298 43.318-0.37528 64.333 0.04243 5.3167-0.05917 12.067-0.22576 15-0.3593 6.3265-0.36489 5.2987 0.08449 15.53 0.24434 5.5632 0.12038 8.4857-0.38583 9.0956-0.50701 0.61092-0.74461 6.3118-0.74199 17.803 0.0021 9.2974-9e-3 21.104-0.0248 26.238-0.01576 5.1333 0.21065 17.733 0.50313 28 0.48318 16.961 0.59758 32.638 0.3089 42.333-0.06005 2.0167-0.08492 4.4167-0.05527 5.3333 0.02965 0.91666-0.11463 5.5667-0.32062 10.333-0.62446 14.45-0.46747 26.433 0.39015 29.78 0.59642 2.3271 0.61876 3.5904 0.08421 4.7636-0.49242 1.0807-0.60363 6.0974-0.34419 15.527 0.5013 18.22 0.50606 19.72 0.1246 39.263-0.04828 2.4735-0.04559 5.672 0.0086 10.167 0.16284 13.519 0.0052 18.44-0.66209 20.667-0.63758 2.128-0.60744 3.2847 0.15391 5.9063 0.57877 1.993 0.7626 4.1442 0.47296 5.5348-0.26058 1.2511-0.31789 8.9011-0.12735 17 0.19054 8.0989 0.31183 15.625 0.26954 16.725-0.04229 1.1-0.03602 5.15 0.01394 9 0.25848 19.92 0.12645 39.856-0.39293 59.333-0.31778 11.917-0.49652 25.867-0.3972 31 0.37152 19.203-0.24082 43.812-1.2019 48.299-0.56105 2.6199-0.58023 4.2318-0.06881 5.7814 0.39002 1.1818 0.70233 3.7471 0.69402 5.7006-0.0083 1.9536 0.01577 5.202 0.05353 7.2186 0.03775 2.0167 0.06711 11.617 0.06524 21.333-0.0019 9.7167 9e-3 18.417 0.02413 19.333 0.01513 0.91667-0.18464 9.7667-0.44393 19.667-0.36301 13.86-1.002 50.001-1.2082 68.333-0.01669 1.4837 0.63903 17.04 0.89925 21.333 0.05555 0.91667-0.14409 5.5667-0.44366 10.333-0.4606 7.3289-0.60406 22.296-0.29715 31 0.27483 7.7948-0.72572 39.533-1.3303 42.197-0.49403 2.1773-0.53144 5.4731-0.11729 10.333 0.33446 3.9251 0.47712 17.186 0.31703 29.47-0.42179 32.363-0.3057 38.153 0.78756 39.282 1.2283 1.2687 4.4558 0.30673 13.459-4.0115 4.0163-1.9263 7.7457-3.2708 9.0727-3.2708 1.2393 0 4.0205-0.8962 6.1805-1.9915 2.16-1.0954 4.5273-1.9973 5.2606-2.0044 0.73333-7e-3 2.2313-0.60473 3.3289-1.3282 1.0976-0.72346 3.6355-1.6558 5.6399-2.0719s4.2564-1.1415 5.0044-1.612c0.74804-0.47047 3.3101-1.5405 5.6934-2.3778 2.3833-0.83727 5.5333-2.313 7-3.2794 1.4667-0.96633 4.0167-2.0844 5.6667-2.4845 3.213-0.77913 14.609-4.8645 19-6.8113 1.4667-0.65027 3.7167-1.5616 5-2.0252s4.7656-1.8564 7.7385-3.095c2.9728-1.2387 5.9728-2.2486 6.6667-2.2443 2.0984 0.0127 13.516-6.0425 13.946-7.3962 0.33197-1.0459 0.8478-1.1799 3.2671-0.84826 1.8045 0.24733 3.0442 0.11666 3.3335-0.3514 0.25332-0.40994 0.90674-0.74527 1.4521-0.74527s3.2341-1.0499 5.975-2.3332 6.102-2.6162 7.4692-2.9621c5.2382-1.3255 9.216-2.9585 10.833-4.4476 0.97569-0.8984 5.4506-2.7846 10.667-4.4961 4.9422-1.6215 10.936-3.9055 13.319-5.0753 5.5276-2.7131 13.426-6.3883 17.482-8.1349 1.7588-0.75733 5.1845 2.4213 5.1845 4.8107 0 2.6425-6.1124 9.1703-9.3333 9.9675-1.2833 0.31767-5.7833 1.7725-10 3.2329-11.214 3.884-16.476 5.4381-18.411 5.4381-1.7549 0-5.5889 1.9003-5.5889 2.7701 0 0.2654-2.625 1.2805-5.8333 2.2557-3.2083 0.97527-6.1588 2.0391-6.5567 2.3641-0.39785 0.32493-5.1978 2.1311-10.667 4.0137-5.5736 1.9186-11.262 4.3461-12.943 5.5236-1.9345 1.3547-4.8942 2.5362-8.3333 3.3266-7.7036 1.7707-12.341 3.1412-15 4.4337-1.2833 0.62366-3.9833 1.5457-6 2.049-2.0167 0.50326-5.3115 1.7511-7.3218 2.7729s-4.8603 2.0374-6.3333 2.2569c-1.473 0.21947-5.0564 1.7869-7.9631 3.4831-2.9066 1.6963-6.8066 3.4217-8.6667 3.8345-4.6207 1.0253-6.8536 1.8921-15.515 6.0224-4.1063 1.9583-8.1192 3.5605-8.9175 3.5605s-3.1629 0.86966-5.2546 1.9327c-5.0622 2.5724-13.85 6.0673-15.255 6.0673-0.61939 0-2.2456 0.6-3.6139 1.3333s-2.9429 1.3333-3.4992 1.3333c-0.5563 0-1.5324 0.25134-2.1691 0.55854s-2.0363 0.9822-3.1102 1.5c-1.2071 0.582-2.1634 1.705-2.505 2.9415-0.30384 1.1-0.34444 8.9-0.09023 17.333 0.25421 8.4333 0.42938 16.383 0.38926 17.667-0.13451 4.3022-0.05177 12.926 0.21108 22 0.35016 12.088 0.34863 12.482-0.10442 27-0.21741 6.9667-0.37947 28.996-0.36013 48.954 0.02909 30.019 0.19491 36.448 0.95985 37.212 0.93761 0.9377 16.772 2.4596 17.958 1.7262 0.31479-0.1946 7.0796-0.4947 15.033-0.667 17.243-0.3734 15.881-0.3789 28.794 0.1162 15.91 0.61 39.064 0.9764 52.333 0.8282 6.6-0.074 14.1-0.1221 16.667-0.1076 2.5667 0.015 17.867 0.057 34 0.094s30.983 0.132 33 0.2116c2.0167 0.08 39.967 0.2346 84.333 0.3447 44.367 0.1101 96.867 0.3681 116.67 0.5734s36.6 0.3579 37.333 0.3391c6.1094-0.1566 40.365 0.063 52.667 0.3368 8.4333 0.188 25.233 0.3683 37.333 0.4005 33.427 0.089 89.62 0.076 93-0.021 1.65-0.047 4.2-0.1262 5.6667-0.1746 2.098-0.069 44.593-0.013 57.333 0.075 1.4667 0.01 6.2667 0.294 10.667 0.6308s9.0346 0.4782 10.299 0.3145c1.2645-0.1638 9.6645-0.2188 18.667-0.1222zm-656.55-133.56-2.2493-1.3877 0.47389-4.0571c0.26064-2.2313 0.43465-5.3493 0.3867-6.9287-0.04793-1.5795 0.27911-3.8847 0.72681-5.1228 0.65283-1.8054 0.64247-2.4578-0.05233-3.295-1.2248-1.4758-1.8024-1.3125-3.0948 0.8754-0.64156 1.0861-2.9398 2.8842-5.2941 4.1421-5.4286 2.9004-7.0449 2.3531-8.5728-2.9027-0.57411-1.9749-1.6234-4.1151-2.3317-4.7562-0.70835-0.641-1.656-2.0541-2.1058-3.1401-0.82579-1.9937-0.54982-3.4362 2.817-14.725 1.0162-3.4073 4.0487-6.8762 7.3961-8.4603 3.1747-1.5025 13.24-4.7437 14.732-4.7437 0.53685 0 1.6057 1.0188 2.3753 2.2639 0.77247 1.2499 2.1763 2.459 3.1342 2.6994 2.7879 0.69973 6.8045 4.3575 9.3048 8.4733 2.0636 3.3971 2.3866 4.5781 2.9242 10.691 0.77228 8.7831-0.19492 12.637-4.4851 17.872-1.6527 2.0167-3.7652 5.0167-4.6943 6.6667-1.868 3.317-6.3422 7.364-8.0462 7.2781-0.60201-0.031-2.1068-0.6797-3.3439-1.443zm9.725-15.668c0.23863-0.64167 1.623-2.5879 3.0765-4.3251l2.6426-3.1584-0.36966-6.7086c-0.32568-5.9105-0.55535-6.8829-1.9307-8.1749-0.85859-0.80653-2.5134-2.6322-3.6773-4.0571-1.5055-1.8431-2.4439-2.4649-3.2517-2.155-1.021 0.3918-1.0821 1.1905-0.60633 7.924 0.29102 4.1186 0.45487 10.278 0.3641 13.688-0.16695 6.2719 0.37767 8.1337 2.3793 8.1337 0.51661 0 1.1345-0.525 1.3732-1.1667zm-17.403-8.6769c0.40645-0.2694 2.0145-1.9712 3.5734-3.7819 2.7129-3.1509 2.8132-3.4224 2.3403-6.3333-0.27177-1.6727-0.44571-4.2728-0.38655-5.778 0.2409-6.1287-2.3505-8.0311-5.5799-4.0966-5.7969 7.0624-5.8504 7.1771-5.5242 11.839 0.46359 6.6262 2.7768 10.007 5.577 8.1511zm39.109-0.81633c-0.64996-1.1847-1.8468-3.0958-2.6596-4.247s-1.9023-2.6931-2.4211-3.4265c-1.2976-1.8343-2.0301-13.958-0.91468-15.139 0.4475-0.47374 1.7136-2.2113 2.8136-3.8613 2.9346-4.4019 2.9705-4.4251 8.6514-5.6 4.7214-0.9764 5.3382-0.98113 6.3684-0.0487 1.539 1.3927 3.8181 0.33434 5.9361-2.7567 2.0387-2.9753 3.6366-3.8595 5.3336-2.9513 2.0473 1.0957 3.9297 0.81574 6.5673-0.97653 2.9294-1.9906 6.9749-2.2023 10.447-0.5466l2.3488 1.1201 3.8405-4.0528c2.1122-2.2291 4.5227-4.2069 5.3566-4.3952 4.6626-1.053 9.3552 3.3009 8.5965 7.9761-0.55986 3.45-1.5052 4.2317-5.1176 4.2317-4.4249 0-5.6433 1.8487-5.7123 8.6667-0.0806 7.9655-1.1249 12.646-3.2245 14.452-2.2483 1.9339-6.6404 2.1588-7.441 0.381-0.28895-0.64166-0.84605-5.3351-1.238-10.43-0.58443-7.5969-0.92249-9.3951-1.8793-9.9966-0.84989-0.53433-1.4834-0.53233-2.3333 7e-3 -1.2807 0.8132-1.4823 5.0049-0.5414 11.252 0.39726 2.6377 0.21247 4.0985-0.88547 7-1.3421 3.5467-6.8344 10.38-7.8966 9.8242-0.28045-0.14667-1.6349-0.7812-3.0099-1.4101-1.9184-0.87733-2.5-1.5315-2.5-2.8119 0-0.91766-0.4782-2.5932-1.0627-3.7234-0.69493-1.3439-0.92798-2.8896-0.67348-4.4669 1.3293-8.2383 1.352-7.8627-0.5523-9.1105-1.3184-0.86386-1.9745-0.97186-2.53-0.4164-0.97105 0.97107-1.7382 6.4524-1.7996 12.858-0.0385 4.0176-0.32686 5.4305-1.382 6.7719-0.73334 0.93227-1.3414 1.9477-1.3513 2.2565-0.0463 1.4512-3.8419 4.9213-5.8003 5.3029-1.924 0.37487-2.2766 0.1914-3.3333-1.7346zm5.4373-11.054c0.57619-0.5762 1.0476-1.5843 1.0476-2.2403 0-0.65593 0.1707-2.5095 0.37935-4.119 0.32772-2.5281 0.1418-3.1767-1.3659-4.7657-1.4766-1.5562-1.9595-1.7247-3.1368-1.0947-1.273 0.68134-1.3602 1.1592-1.0234 5.6119 0.52089 6.8874 1.7838 8.9232 4.0992 6.6079zm21.579-10.452c-0.15105-3.1711-0.43743-4.1667-1.1985-4.1667-0.65941 0-1.2038 1.0544-1.5985 3.0959-0.71881 3.7181-0.25193 5.2375 1.6094 5.2375 1.277 0 1.3704-0.32793 1.1876-4.1667zm22.537-36.227c-0.53832-1.4029 0.0611-2.2732 1.5655-2.2732 1.3105 0 2.0177 1.1444 1.5449 2.5-0.4157 1.1917-2.628 1.0304-3.1104-0.2268zm-76.645-43.46c-0.21444-0.34693-2.513-2.0683-5.108-3.8251-5.4664-3.7009-6.6494-5.1409-6.6494-8.0933 0-1.1779-0.30401-2.9412-0.67558-3.9185-0.37157-0.97727-0.70431-3.6915-0.73941-6.0315-0.05713-3.8105 0.18095-4.6211 2.2816-7.7665 1.29-1.9315 3.9477-5.2081 5.9061-7.2811 3.1382-3.3221 4.0351-3.872 7.5606-4.6353 4.8759-1.0557 9.7743-0.93866 13.333 0.3186 2.0939 0.73967 3.4236 1.9956 6.1907 5.8473 5.7783 8.0431 6.4045 10.443 5.1666 19.795-0.49743 3.758-0.90798 4.6051-3.7263 7.6889-3.1791 3.4784-6.6971 5.4524-12.631 7.0873-4.0507 1.116-10.428 1.5919-10.909 0.814zm12.19-8.5499c4.3739-1.7318 7.382-3.8538 7.3897-5.2131 2e-3 -0.3944 0.45112-1.5742 0.99745-2.6217 0.70674-1.3551 0.88066-2.9901 0.6028-5.6667-0.59639-5.7449-1.4599-7.8682-3.8082-9.364-1.1712-0.74607-2.9245-2.0021-3.8963-2.7911-1.7456-1.4175-1.8045-1.4203-4.9027-0.23707-2.4904 0.95107-3.3942 1.0363-4.3908 0.41387-2.0444-1.2768-3.8349-0.9038-5.039 1.0496-0.6215 1.0083-2.1284 2.7931-3.3487 3.966-2.6751 2.5714-2.7991 4.2922-0.83426 11.574 1.4967 5.5468 3.7782 8.4903 7.6156 9.8255 3.1514 1.0965 4.9164 0.9248 9.6144-0.93527zm42.052-2.204c-2.0167-0.67593-4.5275-1.4306-5.5797-1.677-1.0522-0.2464-3.7849-2.2578-6.0728-4.4698-4.8955-4.7331-5.7409-7.2722-5.6312-16.913 0.0809-7.1091 1.7709-11.478 5.8738-15.185 2.6836-2.4245 6.4199-3.3283 13.364-3.2327 3.0437 0.042 4.0606 0.294 10.447 2.5897 5.3035 1.9064 8.5968 6.3274 11.016 14.789 2.4288 8.4931 1.4941 12.069-4.7354 18.116-2.4989 2.4257-5.3608 4.6155-6.3599 4.8663s-2.2517 0.89107-2.7836 1.423c-1.3047 1.3047-5.0949 1.1828-9.5385-0.30667zm11.928-7.7895c3.0153-1.7812 4.9655-5.3025 5.2703-9.5159 0.22833-3.1565-0.089-4.6526-1.9042-8.9769-2.6025-6.1999-3.6519-6.9083-11.567-7.8077-7.1117-0.80807-9.8777 0.0447-12.893 3.976-1.8045 2.3525-2.1667 3.4041-2.1667 6.2911 0 2.0786 0.42122 4.0679 1.052 4.9685 0.57864 0.82613 1.5536 3.0399 2.1667 4.9195 1.4952 4.5842 3.6341 6.0985 9.328 6.6037 7.6954 0.68273 8.8673 0.6326 10.714-0.4584zm-88.07-18.31c-1.2114-0.7062-6.7427-1.1221-20.857-1.5685-4.7667-0.15067-9.1539-0.46807-9.7494-0.70533-1.8298-0.7288-3.5404-4.5657-2.7195-6.0997 0.38815-0.72527 0.90285-3.2539 1.1438-5.6193 0.24092-2.3653 0.72979-5.2571 1.0864-6.4261 0.35658-1.169 0.77441-6.119 0.9285-11 0.15568-4.9313 0.72728-10.504 1.2864-12.541 0.55343-2.0167 1.1843-6.0667 1.4019-9 0.21763-2.9333 0.70069-6.1407 1.0735-7.1275 0.4767-1.2619 0.4452-2.4988-0.10618-4.1695-0.64392-1.9511-0.58711-2.968 0.31804-5.6931 1.2622-3.8001 1.144-11.159-0.3118-19.414l-0.89425-5.0711 1.938-2.4289c2.2611-2.8339 4.0455-3.0801 7.938-1.0956 1.4384 0.73333 3.8872 1.3333 5.4418 1.3333s4.5542 0.45 6.6658 1c2.1116 0.55 5.9543 1 8.5393 1 4.0396 0 4.943 0.2252 6.4285 1.6027l1.7284 1.6027-0.32341 10.564c-0.17787 5.8102-0.38364 13.114-0.45726 16.231-0.21561 9.1279-1.1088 19.974-1.6736 20.323-0.69861 0.4318-1.3937 11.266-1.69 26.343-0.23459 11.934-0.74887 15.766-2.3797 17.731-0.89865 1.0828-3.1082 1.1891-4.7556 0.22887zm-0.69287-14.627c0.09054-3.1167 0.49157-10.167 0.89118-15.667 0.39961-5.5 0.79595-11.95 0.88074-14.333 0.08479-2.3833 0.52883-7.6333 0.98675-11.667 1.1275-9.9315 1.3205-28.68 0.30571-29.7-0.48545-0.48814-2.9967-0.74527-6.7804-0.69441-3.3052 0.0447-6.7611-0.26166-7.6798-0.68026-4.4252-2.0163-6.6409 1.4347-6.3737 9.9273 0.08907 2.8311-0.18244 7.2475-0.60336 9.8141-0.42092 2.5667-0.7784 7.9667-0.79441 12-0.01601 4.0333-0.32058 8.5333-0.67682 10-0.79862 3.2879-2.6503 20.851-2.6523 25.157-8e-4 1.7365-0.37121 4.5395-0.82309 6.229-0.75382 2.8185-0.71257 3.1527 0.5 4.0515 0.88477 0.6558 2.203 0.86113 3.9883 0.6212 1.4667-0.19713 3.7167-0.0913 5 0.2352 1.2833 0.32647 4.8833 0.54387 8 0.48313l5.6667-0.1104zm78.989-16.625c-2.5413-2.3211-2.3243-3.4256 1.0794-5.4942 1.3386-0.81353 3.4838-2.2942 4.7672-3.2903 1.2833-0.9962 3.7402-2.4611 5.4598-3.2555 1.7195-0.79433 4.4496-2.8447 6.0667-4.5564 3.734-3.9523 6.6218-6.0419 9.0103-6.5195 1.5902-0.31807 2.1689-6.7e-4 3.7296 2.0454 1.5549 2.0386 1.7104 2.5867 0.98225 3.4641-0.92201 1.111-10.925 8.5808-15.915 11.884-1.65 1.0924-4.4574 3.2673-6.2388 4.8332-3.9062 3.4337-5.9343 3.6353-8.9412 0.889zm67.119-17.334c-6.8375-1.5816-11.941-3.9577-12.681-5.9043-1.0336-2.7185-0.65711-4.8076 1.1718-6.5026 2.5034-2.3201 3.8059-2.0509 6.605 1.3651 2.3382 2.8535 2.627 3 5.9139 3 3.0333 0 3.7063-0.2648 5.5073-2.1667 3.1644-3.3417 3.947-6.5687 2.5192-10.388-0.63988-1.7117-1.458-3.4871-1.818-3.9454-0.94525-1.2033-3.7243-1.0009-7.0642 0.51466-4.3088 1.9551-5.5197 1.7301-7.2804-1.3531-0.83595-1.4639-1.8004-2.6615-2.1432-2.6615-0.82963 0-1.7184 1.8207-2.2469 4.6031-0.57332 3.0179-1.5412 4.0635-3.7616 4.0635-2.7987 0-4.2186-2.6283-3.8462-7.1193 0.16437-1.9822 0.0259-3.7727-0.30768-3.9788-1.0611-0.6558-3.6478 2.4062-5.478 6.4845-2.0166 4.4935-3.1285 4.8997-6.2416 2.2803-2.4843-2.0904-3.1492-2.0864-4.5341 0.0273-1.1935 1.8215-6.0708 4.9727-7.6965 4.9727-1.312 0-3.4291-2.3709-5.0603-5.6667-1.0879-2.1983-1.3173-4.0167-1.306-10.352 0.0143-7.9753-0.47949-9.9211-3.0447-11.998-1.1055-0.89513-1.1969-1.3101-0.5535-2.5123 0.42388-0.792 1.3638-1.7575 2.0887-2.1455 0.93046-0.49793 1.3181-1.3968 1.3181-3.0565 0-2.692 3.0388-9.607 4.2151-9.5917 2.1318 0.028 2.785 1.3239 2.7893 5.5351 6e-3 5.6218 0.73093 6.4829 4.6955 5.5757 2.6792-0.61307 3.178-0.53934 4.3625 0.6452 1.291 1.291 1.2958 1.3845 0.13751 2.6969-0.65995 0.7478-3.1938 2.1813-5.6307 3.1855-4.852 1.9995-5.2359 2.64-5.2359 8.7353 0 3.3741 1.2232 9.6803 2.0484 10.56 0.33599 0.3582 1.7643-0.60613 3.456-2.3333 2.2454-2.2926 3.3044-4.1975 4.7864-8.6105 1.0467-3.1167 2.1375-5.9297 2.424-6.2512 0.28652-0.32146 1.2929-0.39073 2.2364-0.15393 1.6379 0.41107 1.7155 0.64093 1.7155 5.0845 0 4.0792 0.15191 4.6539 1.23 4.6539 1.8003 0 3.4371-2.1369 3.8943-5.084 0.49652-3.2006 3.259-8.8491 4.5746-9.3539 1.7115-0.6568 4.3011 1.597 4.3011 3.7433 0 2.3639 1.0734 5.3613 1.9199 5.3613 0.34074 0 1.5832-1.725 2.761-3.8333 2.785-4.9853 3.872-6.1667 5.6742-6.1667 2.5812 0 3.2838 1.5984 2.0537 4.6727-1.3726 3.4303-1.4006 5.994-0.0656 5.994 1.3748 0 3.4086-3.5134 3.9334-6.7949 0.34284-2.144 1.3456-3.6365 4.8943-7.2841 4.8024-4.9364 6.5156-5.5679 8.8292-3.2543 1.5418 1.5417 1.5923 1.9174 0.59969 4.4566-1.2244 3.1323-2.6344 15.625-2.1668 19.197 0.24089 1.8403 0.80631 3.946 1.2565 4.6793 0.94445 1.5385 1.8809 7.3825 1.8407 11.487-0.0425 4.3313-2.9269 9.5197-7.2885 13.11-2.0504 1.688-4.0686 3.0419-4.4848 3.0087-0.41621-0.0333-3.034-0.58726-5.8172-1.2311zm8.7238-40.591c3e-3 -1.7514-0.2411-2.1689-1.1634-1.9927-1.4404 0.27514-3.2477 5.1752-2.5594 6.9389 0.45478 1.1653 0.62758 1.1053 2.1074-0.73067 0.97748-1.2127 1.6133-2.8721 1.6153-4.2155zm-123.15 28.183c-1.0612-2.2255-1.0603-2.6321 0.0164-6.8333 0.62963-2.4569 1.1423-6.5017 1.1392-8.9885-5e-3 -4.469 1.3134-9.1453 2.5794-9.1453 1.0489 0 2.86 2.1045 3.8499 4.4735 1.0989 2.63 1.8386 2.7463 3.2982 0.51866 0.60345-0.921 1.7824-1.8465 2.6199-2.0567 3.319-0.833 5.1591 1.6009 7.6094 10.065 0.79171 2.7347 1.5354 4.0735 2.3512 4.2323 3.0699 0.59753 3.2013-5.4002 0.24401-11.134-1.7985-3.4873-1.9982-4.3325-1.356-5.7419 0.44571-0.9782 1.5104-1.8073 2.609-2.0317 1.0208-0.20853 3.7498-1.0063 6.0645-1.773 4.6463-1.539 5.4671-1.3864 10.283 1.9116 2.2135 1.5159 2.7083 1.6161 4.4395 0.89907 2.2226-0.92067 4.0271-0.26614 5.6485 2.0487 1.1968 1.7087 2.1766 1.2189 2.7457-1.3723 0.55296-2.5175 1.9281-3.6201 3.8984-3.1256 1.4801 0.37147 1.5997 0.78347 2.0052 6.9078 0.2372 3.582 0.43282 8.3808 0.43472 10.664 3e-3 3.6965-0.1795 4.2712-1.6666 5.2455-1.4232 0.93253-1.8326 0.95946-2.7699 0.18206-1.8443-1.5295-2.9079-4.9412-2.5064-8.0397 0.2047-1.5799 0.12638-3.9795-0.17406-5.3327l-0.54625-2.4603-3.1589 2.9896c-4.0232 3.8075-4.5078 4.7643-4.5078 8.9003 0 6.4343-5.1532 11.43-7.4249 7.1973-1.1306-2.1065-1.5978-14.52-0.6488-17.242 0.60986-1.7495 0.57771-2.3731-0.16041-3.1112-0.78644-0.7864-1.3558-0.77594-3.8446 0.071-2.8307 0.9632-2.9155 1.0736-2.7324 3.5548 0.40998 5.5539 0.33722 7.3785-0.44766 11.227-0.44863 2.2-0.97628 4.5474-1.1726 5.2164-0.41892 1.4279-5.53 3.7836-8.2091 3.7836-2.3134 0-3.1091-0.92833-3.7144-4.3333-0.68981-3.8802-2.9974-9-4.0565-9-0.56155 0-1.4782 1.9183-2.378 4.9768-1.8099 6.1518-4.0613 9.0232-7.075 9.0232-1.8148 0-2.3364-0.37567-3.2857-2.3663zm147.06-17.405c-0.6298-0.76047-0.85918-2.5819-0.73598-5.8442 0.0984-2.6067-0.26082-7.2587-0.79836-10.338-1.3718-7.8577-1.2005-8.071 6.1252-7.6302 4.0997 0.24674 6.6029 0.763 8.4428 1.7413l2.6154 1.3906 1.2595-1.6075c0.69274-0.88406 1.9261-2.6575 2.7409-3.9408 2.0216-3.1843 4.0191-3.3727 5.7696-0.54413 1.1439 1.8485 1.3002 2.8717 0.95375 6.2433-0.32681 3.1803-0.19798 4.2121 0.60961 4.8823 0.87187 0.7236 1.2931 0.42346 2.8356-2.02 0.9964-1.5784 2.3479-4.0821 3.0032-5.5637 1.5976-3.6117 4.7072-5.8927 7.2668-5.3305 3.1657 0.69533 5.3292 2.8089 5.3376 5.2144 0.0131 3.8014 0.80938 7.1183 1.7088 7.1183 1.3051 0 2.9506-2.7037 2.9506-4.8481 0-1.0366 0.45186-2.7585 1.0041-3.8265 0.84292-1.6301 0.87244-2.4343 0.18384-5.0089l-0.82032-3.0671-3.087 0.4246c-2.3862 0.32813-3.336 0.17553-4.1838-0.67234-2.5477-2.5477 1e-3 -4.9959 5.2182-5.0118 1.8434-7e-3 3.6962-0.2306 4.1173-0.5 0.42111-0.2694 0.98629-2.2898 1.256-4.4898 0.64871-5.2925 1.1422-6.4614 3.7662-8.9206 2.599-2.4358 4.8477-2.6729 5.9428-0.62653 0.64497 1.2051 0.50985 1.943-0.79246 4.3269-1.4827 2.7143-1.5065 2.9376-0.42733 4.0168 0.99676 0.99674 1.4419 1.0345 3.4852 0.2956 2.7619-0.99873 5.0039-0.47553 5.0039 1.1677 0 1.462-4.6123 4.5445-7.6539 5.1151-3.4968 0.656-4.551 2.8367-5.4585 11.292-1.059 9.8662-1.0493 10.743 0.13144 11.924 1.4582 1.4582 3.1821 0.5824 5.7554-2.9239 2.4758-3.3735 3.8673-6.7786 3.8822-9.5 5e-3 -1.0083 0.61004-2.4333 1.3434-3.1667 0.73334-0.73333 1.3333-2.0293 1.3333-2.88 0-1.9711 4.3667-7.12 6.0384-7.12 1.6598 0 3.6631 3.9679 4.2734 8.4645 0.44453 3.2751 0.33956 3.6356-1.9208 6.5959-2.7261 3.5703-2.8722 4.2976-1.1718 5.8363 1.5928 1.4415 1.7979 1.4124 4.4816-0.63453 2.9788-2.2721 4.9659-5.5604 4.9659-8.218 0-1.1725 0.375-2.7871 0.83334-3.5879 0.45833-0.80093 0.83333-2.9185 0.83333-4.7058 0-2.4139 0.31007-3.4426 1.2057-4 1.6544-1.0297 3.1276 1.0135 3.1276 4.3377 0 3.3433 1.1842 3.9225 3.107 1.5195 1.2503-1.5625 1.5537-2.7485 1.5563-6.0841 3e-3 -3.4069 0.23166-4.2654 1.2884-4.8309 0.70677-0.37827 1.7535-0.508 2.3261-0.28827 1.5272 0.586 2.5632 5.0305 1.7166 7.3641-0.71812 1.9796-0.91147 2.4357-3.3489 7.8983-1.5583 3.4925-2.7438 9.6228-2.666 13.787 0.0339 1.8183-0.34099 2.7242-1.4485 3.5-3.2564 2.2809-6.5074 0.3284-6.5522-3.935-0.0234-2.2274 0.27097-2.4309-3.0296 2.0942-1.7343 2.3777-5.7927 4.7817-8.2825 4.906-4.2012 0.20986-4.6373 0.0213-5.8333-2.5185-1.7736-3.7668-3.3987-3.3604-5.8333 1.4589-1.5814 3.1303-2.6149 4.2814-4.9382 5.5-3.594 1.8851-4.8382 1.9282-6.3834 0.22087-1.6961-1.8741-5.4125-2.4604-6.9243-1.0923-1.4988 1.3565-5.6537 1.4051-6.7542 0.0792-0.56302-0.6784-2.0725-1-4.6938-1-4.8197 0-5.7838 0.36727-6.9661 2.6535-0.51915 1.0039-1.8563 2.2033-2.9714 2.6651-2.9534 1.2233-4.9912-0.29933-5.9938-4.4788-0.63632-2.6525-0.59964-3.5634 0.20606-5.1164 0.96784-1.8655 0.81896-3.7235-0.29839-3.7235-0.82363 0-3.7868 6.5594-4.2502 9.4085-0.21546 1.3247-0.99648 2.9557-1.7356 3.6246-1.305 1.1811-1.3865 1.1735-2.8203-0.26313-1.2695-1.2719-1.4865-2.2475-1.548-6.9579-0.1021-7.8243-0.0627-7.6301-1.2973-6.3956-0.5695 0.56953-1.3144 2.8088-1.6553 4.9762-1.6732 10.637-3.987 14.478-6.7276 11.169zm39.108-15.6c0.7677-1.2422-0.31826-4.0677-1.4758-3.8397-1.4532 0.28613-2.5196 2.1204-2.008 3.4537 0.46718 1.2174 2.8095 1.477 3.4838 0.38606zm-24.69-1.9621c-0.22661-0.36667-0.71202-0.66667-1.0787-0.66667-0.36667 0-0.48126 0.3-0.25465 0.66667s0.71202 0.66667 1.0787 0.66667c0.36666 0 0.48126-0.3 0.25464-0.66667zm62.312-11.7c0.0424-1.3994-1.4646-2.2653-2.7476-1.5787-1.5164 0.8116-1.576 2.1719-0.15726 3.5907 0.98746 0.98747 1.1468 0.97793 1.9788-0.119 0.49768-0.65613 0.91441-1.508 0.92607-1.893zm-177.38 16.957c-0.95536-0.3506-2.0685-1.365-2.4736-2.2541-0.64988-1.4263-0.5118-1.7767 1.1733-2.9765 2.5276-1.7998 3.661-1.7153 5.3223 0.39667 1.7296 2.1988 1.7635 3.9922 0.0922 4.8866-1.5006 0.80313-1.7927 0.7994-4.1142-0.0527zm205.4-6.7573c-1.6808-2.7566-1.8334-11.569-0.28259-16.31 1.1794-3.6057 3.7551-6.3533 5.3736-5.7323 0.88543 0.3398 0.98975 1.0822 0.6161 4.3848-0.24739 2.1867-0.78483 4.5123-1.1943 5.1679-0.57763 0.92493-0.49013 1.5804 0.39038 2.9242 1.3252 2.0226 2.4949 2.1913 3.9204 0.5654 1.5357-1.7515 3.1837-5.2596 3.1837-6.777 0-0.7388 0.85601-2.3287 1.9022-3.5331 1.0462-1.2044 2.2411-2.8357 2.6554-3.6249 0.99978-1.905 5.9264-4.2316 8.9605-4.2316 2.293 0 2.4734 0.15934 3.1889 2.8164 0.4171 1.5491 0.57375 4.2083 0.3481 5.9093-1.0742 8.0975 5.1545 3.0491 6.6532-5.3924 0.29294-1.65 0.55342-6.6 0.57883-11 0.0454-7.8619 0.0897-8.0891 2.5686-13.161 3.0536-6.2481 5.0589-7.6969 8.6031-6.2161 4.0247 1.6816 4.7655 3.0785 4.3931 8.2834-0.26235 3.6667-0.69715 5.0835-2.141 6.9765-0.99648 1.3065-2.2164 3.9092-2.711 5.7839-0.49454 1.8747-1.2628 3.8467-1.7072 4.3822-0.55888 0.6734-0.67174 2.3036-0.36605 5.2873 0.57024 5.5659 0.89974 6.3305 2.7279 6.3305 1.1193 0 1.6081-0.48033 1.8819-1.8495 0.20345-1.0172 1.291-3.0085 2.4167-4.425 1.1257-1.4165 2.0486-2.9093 2.0509-3.3172 2e-3 -0.40794 0.41158-1.5225 0.9096-2.4769 0.49802-0.95446 1.1126-3.1166 1.3658-4.8049 0.53554-3.5713 3.3549-6.4599 6.305-6.4599 2.5474 0 3.4155 1.1465 3.4155 4.5105 0 1.6008 0.3607 3.5658 0.80156 4.3667 1.0646 1.9341 2.372 13.833 1.9032 17.321-0.27823 2.0703-0.78971 2.9753-2.0381 3.6064-2.2795 1.1523-6.9863 1.0758-9.3607-0.152-2.3391-1.2096-5.0648-0.704-6.1861 1.1474-1.0423 1.7209-6.2052 5.2001-7.7166 5.2001-1.8988 0-3.4574-2.2723-3.9577-5.7703-0.36755-2.5695-0.72153-3.2297-1.7315-3.2297-0.82942 0-1.4828 0.69333-1.8848 2-1.8302 5.9488-4.4422 9.6711-6.7787 9.6601-0.76108-7e-3 -2.9274-0.7252-4.8141-1.6037l-3.4303-1.5972-2.1841 2.2535c-1.2446 1.2841-2.7801 2.2118-3.5697 2.1567-0.7621-0.0533-2.5812 0.5544-4.0424 1.3503-1.7749 0.9666-3.8252 1.4469-6.1765 1.4469-3.2555 0-3.6188-0.1626-4.8407-2.1667zm21.874-15.3c0.94908-0.94907 1.0695-3.2 0.17113-3.2-0.34587 0-1.0834 0.64887-1.6389 1.442-1.4742 2.1047-0.29332 3.5191 1.4677 1.758zm37.467-7.2c0-0.36667-0.13229-0.66667-0.29398-0.66667-0.1617 0-0.4794 0.3-0.70602 0.66667-0.22661 0.36667-0.0943 0.66667 0.29399 0.66667 0.38831 0 0.70601-0.3 0.70601-0.66667zm-16.828-13.886c0.46138-0.29287 1.2442-2.0133 1.7396-3.8231 0.4954-1.8098 1.125-3.8155 1.3991-4.4572 0.37234-0.8716 0.18474-1.1667-0.74183-1.1667-0.92561 0-1.6201 1.0886-2.738 4.2916-1.9821 5.6793-1.9217 6.5919 0.3411 5.1554zm-210.77 29.498c-0.22257-0.58-0.40466-1.9374-0.40466-3.0165 0-1.4927 0.40909-2.1175 1.7101-2.6122 2.4583-0.9346 2.8399-0.84474 4.6338 1.0909 1.5167 1.6365 1.5537 1.8566 0.61772 3.6667-0.83747 1.6195-1.4057 1.9257-3.574 1.9257-1.736 0-2.7104-0.34447-2.9829-1.0545zm-85.071-4.8893c-5.1964-0.48047-7.6346-1.9496-8.7587-5.2774-1.0285-3.0448-1.0194-8.7021 0.01713-10.639 1.2937-2.4173 3.7259-2.5617 6.3542-0.37733 2.513 2.0885 3.2962 5.7461 1.3873 6.4785-3.0507 1.1707 0.59381 4.2741 5.3057 4.518 3.8583 0.19974 4.5258-0.62066 4.1428-5.0924-0.15701-1.8333-0.0605-3.9333 0.21448-4.6667 0.76725-2.0462-1.0183-5-3.0225-5-1.9383 0-4.1282-1.1389-5.6811-2.9547-1.064-1.2441-1.1853-1.2483-3.5617-0.12053-2.8454 1.3502-6.0629 0.94646-7.0424-0.88387-0.98029-1.8317 0.48435-6.0139 2.9801-8.5097 3.8154-3.8154 9.3594-2.6337 12.049 2.5682 0.80868 1.5638 1.4002 1.938 2.8046 1.7745 2.3326-0.27167 3.4551-2.5857 3.4675-7.1487 5e-3 -1.9845 0.52966-5.2572 1.165-7.2728 1.0353-3.2842 1.4567-3.7981 4.0592-4.9493 1.5972-0.70653 3.5759-1.116 4.3972-0.90987 1.6185 0.40627 3.0681 2.9253 3.0333 5.2715-0.0275 1.852-1.8508 7.0264-4.1815 11.866-0.98819 2.0521-1.7967 4.0781-1.7967 4.5024 0 0.42426-0.6 1.8909-1.3333 3.2591-0.95794 1.7873-1.3415 3.8044-1.3624 7.1643-0.0481 7.7527-2.1087 14.795-4.7304 16.167-1.6481 0.86233-2.804 0.88947-9.9072 0.2326zm48.925-0.0774c-1.8176-0.6898-4.2588-3.7983-4.2588-5.4229 0-2.2158-1.85-2.1004-4.8111 0.3-3.871 3.138-5.4536 3.5279-8.5862 2.1153-2.5711-1.1594-2.5969-1.1564-5.1292 0.59847-3.097 2.1463-7.8402 2.4838-8.3905 0.59706-1.737-5.9552-0.46871-12.014 3.8913-18.589 2.3017-3.4711 4.3346-4.6351 10.916-6.2508 3.1077-0.76294 5.086 1.1497 4.3608 4.2162-0.27615 1.1678-0.52069 4.3667-0.54343 7.1087-0.0331 3.9905 0.16466 5.0262 0.99088 5.1897 0.60788 0.12026 1.5121-0.696 2.1996-1.9855 0.64205-1.2043 1.9195-3.5397 2.8389-5.1897 1.4187-2.5462 1.6226-3.6051 1.3481-7-0.43344-5.3607 0.4849-9.7987 3.087-14.918 1.9986-3.9322 5.2908-7.4153 7.0088-7.4153 0.39711 0 1.3731 0.825 2.1689 1.8333 2.0955 2.6553 1.6039 8.0687-1.2224 13.46-2.5725 4.9075-2.7589 7.0447-0.6277 7.1946 1.8505 0.13013 4.9825 3.7381 5.7929 6.6732 0.477 1.7275 0.27 3.0343-0.98988 6.2491-3.3203 8.4725-6.8677 12.44-10.044 11.235zm4.4499-10.057c1.2755-2.3833 1.1387-7.2903-0.22765-8.1637-1.4087-0.9004-2.1161-0.0762-3.1561 3.6771-1.2145 4.3833 1.5074 7.9924 3.3837 4.4865zm-26.561-0.0882c1.4723-1.1473 3.8466-5.2512 3.8496-6.6539 3e-3 -1.4615-2.7537-2.2019-4.5729-1.2283-1.8415 0.9856-3.5371 7.0475-2.3135 8.2711 0.68166 0.68166 1.8559 0.53133 3.0368-0.38887zm38.257 2.4455c-0.22256-0.58-0.40466-2.47-0.40466-4.2s-0.29607-3.4415-0.65794-3.8034c-0.42186-0.42187-0.45189-2.8909-0.0837-6.8813 0.31584-3.4229 0.48308-6.7118 0.37164-7.3087s-0.56071-2.9412-0.99839-5.2095c-1.5321-7.9403 0.93374-14.174 5.1876-13.115 1.0161 0.253 2.2129 0.93527 2.6595 1.5162 1.3229 1.7206 1.0102 11.019-0.61252 18.214-1.2948 5.7412-1.373 6.9603-0.66667 10.38 1.2381 5.9943 1.0588 9.9429-0.48912 10.771-1.8852 1.0089-3.8424 0.84326-4.3058-0.3644zm12.734-2.517c-1.3903-0.86787-3.2887-2.5943-4.2187-3.8365-2.3296-3.1117-1.9775-7.9133 1.0342-14.102 2.6471-5.4396 4.6147-7.1563 8.2021-7.1563 3.3665 0 7.1768 3.4348 7.1768 6.4695 0 2.4585-3.1536 7.465-6.2671 9.9493-1.3197 1.0531-2.3995 2.4741-2.3995 3.1579-2e-5 1.1802 0.0865 1.1866 1.7035 0.1272 2.044-1.3393 5.8688-1.1456 6.144 0.31107 0.10548 0.5582-0.81032 2.1089-2.0351 3.4461-2.9808 3.2543-5.9208 3.7686-9.3402 1.6341zm4.818-13.154c2.5167-2.2986 2.6102-4.8134 0.19181-5.1566-3.0254-0.42926-7.9996 6.4815-5.3154 7.3847 1.3902 0.46773 2.8826-0.18127 5.1236-2.2281zm92.543 9.3387c-0.64167-0.37374-1.1667-1.0914-1.1667-1.5949 0-1.7309 15.664-13.685 17.933-13.685 3.0533 0 3.6961 4.9935 0.82594 6.4167-0.86618 0.42953-2.9662 2.1459-4.6667 3.8141-4.6801 4.5915-10.086 6.7031-12.925 5.0491zm-72.502-4.2829c-1.1348-1.3673-2.0713-11.365-1.3608-14.527 0.70529-3.139 2.4105-5.1365 4.385-5.1365 1.8512 0 2.7954 1.1062 3.086 3.6153 0.31372 2.7089 1.6267 2.8795 2.1468 0.27894 0.5903-2.9515 2.1922-5.2275 3.6792-5.2275 2.2262 0 2.975 1.7981 2.8402 6.8197-0.15868 5.9069 0.27335 7.581 1.6595 6.4307 2.1507-1.7849 2.9732-4.5189 2.5399-8.4423-0.3669-3.3218-0.23677-4.0027 1.0192-5.3332 0.79187-0.8388 2.6175-1.9964 4.057-2.5723 2.9296-1.1722 3.2442-2.1285 1.2839-3.9025-0.83082-0.75186-1.3333-2.0533-1.3333-3.4531 0-2.9923 2.2912-4.0002 5.78-2.5425 2.8408 1.1869 3.7808 1.2187 8.1762 0.27607l3.3551-0.71953-0.42329-5.9633c-0.39903-5.6216-0.33443-6.0579 1.1272-7.6138 1.8703-1.9908 2.4893-2.0195 4.6514-0.21554 1.5264 1.2735 1.6667 1.8455 1.6667 6.7954 0 5.3495 0.0205 5.4147 2 6.3569 2.4107 1.1475 3.0035 1.9466 2.487 3.3523-0.53977 1.4689-1.5258 2.0383-3.5503 2.0503-2.7298 0.016-4.1218 2.0412-3.5125 5.1099 0.28031 1.4118 0.45042 2.8809 0.37802 3.2647-0.0724 0.38373 0.45666 2.3337 1.1757 4.3333s1.3182 3.3201 1.3314 2.9345c0.0133-0.3856 1.3741-2.09 3.0241-3.7876 1.65-1.6977 3-3.6982 3-4.4457 0-0.74754 0.85849-3.0931 1.9078-5.2124 1.8908-3.8189 1.9061-3.9482 1.7167-14.52-0.11654-6.5063 0.0915-11.447 0.53345-12.667 1.0999-3.0362 3.168-5 5.2656-5 5.0047 0 6.9714 8.6337 3.5188 15.447-0.94836 1.8715-1.8897 5.0051-2.0918 6.9636-0.3094 2.9977-0.18117 3.6323 0.81095 4.013 0.86574 0.3322 1.7876-0.281 3.4738-2.311 2.2662-2.7282 2.32-2.7505 4.2467-1.7541 1.0732 0.555 1.9514 1.4064 1.9514 1.8919 0 1.3107 3.7172 6.2002 5.7027 7.5011 1.6487 1.0803 1.8675 1.0658 4.7051-0.31287 2.3898-1.1611 3.2396-2.0689 4.3143-4.6089 2.0926-4.9456 4.1497-5.9786 6.631-3.3297 1.0204 1.0894 1.3018 2.0224 1.0276 3.4085-0.41263 2.0863-4.4289 7.9161-6.4091 9.3031-0.68323 0.47853-1.5428 1.6606-1.9101 2.6267-0.77088 2.0276-3.9132 2.9214-7.7439 2.2028-3.0395-0.57026-8.2095-4.0715-9.5791-6.4873-1.1622-2.0499-3.1726-3.053-4.1533-2.0723-0.33766 0.33767-1.3979 3.3601-2.356 6.7165-1.2546 4.395-2.0884 6.2125-2.9796 6.4953-1.7973 0.57047-2.3306 0.0133-3.1671-3.309-0.41156-1.6345-1.0132-3.1355-1.337-3.3356-1.1812-0.73006-4.0787 2.3246-4.0787 4.2999 0 1.0551-0.43277 2.1607-0.96171 2.4567-0.52893 0.296-1.2137 1.1359-1.5217 1.8665-1.1903 2.8231-3.2144 5.6014-4.2849 5.8813-3.9897 1.0433-6.9569-4.4497-7.6223-14.111-0.36554-5.3074-0.67918-6.7758-1.4473-6.7758-0.53933 0-2.1738-0.6706-3.6322-1.4903-2.6043-1.4637-2.6684-1.4674-3.5908-0.20594-1.2578 1.7201-1.1832 2.7434 0.30376 4.1702 2.2577 2.1664 2.7571 4.038 2.7571 10.334 0 4.5585-0.27828 6.6261-1.0378 7.7105-1.129 1.6119-3.556 1.9545-4.8289 0.68166-0.97522-0.9752-1.0449-5.1357-0.12644-7.5515 0.4854-1.2767 0.43633-2.2665-0.17565-3.5434-1.5912-3.32-2.6973-2.1764-4.5422 4.6962-2.2031 8.2072-4.3628 11.631-7.736 12.264-2.2878 0.4292-2.6358 0.27107-4.6954-2.1342l-2.2244-2.5977-1.2823 1.6667c-2.6284 3.4163-3.3974 4-5.2694 4-1.0551 0-2.293-0.45133-2.7508-1.003zm151.13-7.0129c-3.5411-2.7854-1.1967-6.9977 3.6342-6.5298 3.1161 0.3018 4.6793 3.0804 3.2138 5.7124-1.3396 2.4058-4.369 2.7674-6.848 0.8174zm-53.554-7.1038c-0.3658-1.4575-0.10773-2.0406 1.4014-3.1667 1.0174-0.75913 3.3884-2.9577 5.269-4.8857 1.9818-2.0317 4.0048-3.5031 4.8122-3.5 1.3816 7e-3 2.9404 2.3389 2.9404 4.4019 0 1.4259-3.161 4.1771-6.6667 5.8024-1.65 0.76493-3.2399 1.7831-3.5331 2.2626s-1.2625 0.8718-2.154 0.8718c-1.2019 0-1.7367-0.46173-2.0692-1.7864zm20.575-11.7c-0.83297-0.40147-1.6905-1.4311-1.9056-2.2882-0.7126-2.8392 0.2975-4.7019 3.6777-6.7817 1.7938-1.1037 4.3065-3.005 5.5838-4.2251 4.4202-4.2221 7.7425-6.5515 9.3438-6.5515 2.27 0 3.8148 2.0027 3.8148 4.9456 0 2.9873-1.1954 4.17-7.0801 7.0052-2.3187 1.1171-5.4845 3.4212-7.3333 5.3372-3.455 3.5805-3.736 3.6984-6.1011 2.5585zm29.181-19.651c-2.0094-0.73453-4-3.1384-4-4.8304 0-2.0287 1.6852-4.6988 2.9657-4.6988 0.48955 0 2.3475-1.282 4.1289-2.8489 6.6117-5.8158 8.148-6.7034 10.457-6.0412 2.3441 0.67227 3.559 3.0311 2.9044 5.639-0.22125 0.88157-1.8394 2.703-3.5958 4.0476-1.7564 1.3446-4.7411 3.9655-6.6326 5.8241-3.3483 3.2901-4.1541 3.6664-6.2275 2.9085zm20.774-17.044c-1.2241-0.39156-2.6958-1.4295-3.2704-2.3066-0.94888-1.4482-0.94864-1.7965 3e-3 -3.7913 1.0052-2.1079 2.6072-3.2659 11.892-8.5958 1.7964-1.0313 3.6157-2.5313 4.0429-3.3333 0.90286-1.6952 2.5453-3.0734 3.6986-3.1038 1.3782-0.0362 4.1936 3.5448 4.1936 5.3341 0 2.4769-15.446 16.87-17.79 16.577-0.29911-0.0375-1.5453-0.38843-2.7694-0.78zm24.93-22.634c-0.57078-0.81491-1.0378-1.8419-1.0378-2.2822 0-1.1888 3.3098-4.9028 4.3691-4.9028 0.50451 0 1.2367-0.5969 1.6272-1.3264 0.39044-0.72954 1.5929-1.783 2.6721-2.3411 1.0792-0.55808 3.1468-2.2112 4.5946-3.6736 2.0497-2.0703 3.1376-2.6589 4.9147-2.6589 2.8579 0 4.7133 1.912 4.632 4.7732-0.0682 2.3996-1.7055 4.0066-7.4763 7.3383-2.0167 1.1643-4.7925 3.1155-6.1686 4.336-3.0819 2.7336-6.5109 3.0447-8.127 0.73747zm24.719-15.9c-1.3737-1.0806-1.7566-1.962-1.7566-4.0438 0-3.7282 0.95618-5.1281 4.5469-6.6574 1.7159-0.73076 4.3198-2.4436 5.7864-3.8062 4.8611-4.5164 7.0951-5.7603 10.147-5.6496 3.5138 0.12746 4.1866 0.53849 4.1866 2.5576 0 3.8275-5.3405 10.315-8.4914 10.315-0.68587 0-2.2809 1.0741-3.5445 2.3869-2.3442 2.4355-7.5931 6.2798-8.5743 6.2798-0.29884 0-1.3338-0.62177-2.2999-1.3817zm-88.499-16.534c-4.4323-4.5578-4.7059-5.7486-2.2406-9.7514 1.8015-2.925 2.0814-4.9679 0.84927-6.2-1.1132-1.1132-3.1651-0.99996-3.6256 0.2-0.21106 0.55-0.73483 1-1.164 1s-1.57 0.9-2.5352 2c-1.8466 2.1045-4.2193 2.5764-6.5858 1.3099-1.6525-0.88442-1.6333-2.6891 0.0641-6.0163 1.2118-2.3753 1.2414-2.6963 0.28328-3.064-0.58867-0.22589-2.2469-0.0582-3.685 0.37268-3.6925 1.1063-7.1234 0.0488-9.4802-2.9222-1.0239-1.2908-2.2461-2.3468-2.716-2.3468-0.46983 0-2.2938-1.0235-4.0533-2.2745-1.7595-1.251-4.2015-2.4625-5.4266-2.6924-1.4783-0.27733-2.5607-1.0259-3.218-2.2255-3.5065-6.3995-3.3999-5.5059-1.1759-9.8583 3.7102-7.2607 12.59-12 19.111-10.2 2.5863 0.71411 5.247 4.1106 4.6625 5.9519-0.5605 1.766-6.1159 7.4325-8.8222 8.9986-2.6315 1.5228-2.7782 3.1404-0.38384 4.2313 1.6583 0.75556 1.9493 0.63152 4.1667-1.7758 2.5342-2.7514 7.5629-6.8225 8.4273-6.8225 0.28504 0 1.0454-0.47704 1.6896-1.0601 1.4559-1.3176 3.6516-0.72321 4.6983 1.2719 0.4198 0.80017 1.1695 1.6948 1.666 1.988 2.2951 1.3555-0.54813 6.5029-4.6456 8.4104-4.1357 1.9253-6.0725 3.6791-5.5543 5.0295 0.84283 2.1964 8.4212-0.0318 11.571-3.402 1.8002-1.9263 4.5586-2.0563 5.5198-0.26013 0.39187 0.73221 0.51175 2.498 0.27158 4-0.48685 3.0446 0.11921 3.3525 3.3166 1.685 2.8955-1.5101 4.3042-1.224 5.765 1.1708 2.0923 3.4302 2.2484 5.8169 0.66771 10.207-2.3473 6.5196-2.3652 6.8256-0.4519 7.6974 1.3566 0.61809 2.3595 0.56135 4.9073-0.27764 2.9739-0.97927 3.345-0.97155 5.2023 0.10833 1.3895 0.80788 2.0598 1.7634 2.196 3.1304 0.38643 3.8785-2.5662 5.505-11.105 6.1172l-4.2421 0.30415zm-15.577-34.767c1.7418-1.9247 0.46166-3.075-2.4856-2.2333-1.5115 0.43163-2.2617 1.0872-2.4084 2.1047-0.17827 1.2366 0.10404 1.4778 1.73 1.4778 1.104 0 2.4703-0.5826 3.164-1.3491zm-13.777-7.4879c3.6276-1.733 1.7557-6.4497-2.5706-6.4773-2.5853-0.0165-5.2783 5.8138-3.5046 7.5874 0.60052 0.60052 3.6675 0.0401 6.0752-1.1102zm146.93 35.177c-2.1305-1.5366-2.0623-5.5382 0.13483-7.9089 0.89916-0.97021 1.9664-1.764 2.3716-1.764 0.64327 0 5.9201-3.4734 11.44-7.5302 4.8169-3.5401 9.248 4.2065 4.7203 8.2522-2.3208 2.0738-5.959 4.6113-6.6116 4.6113-0.27439 0-1.5981 1.0734-2.9417 2.3853-2.919 2.8504-6.7362 3.6689-9.1134 1.9543zm-75.615-17.967c-1.5868-1.2617-4.4662-3.3818-6.3985-4.7112-1.9324-1.3294-4.9213-3.7471-6.6421-5.3726s-3.478-2.9555-3.905-2.9555-1.1497-0.45-1.6062-1-1.3826-1-2.0582-1c-0.67554 0-1.534-0.57132-1.9077-1.2696-0.37371-0.69827-2.1843-2.1955-4.0235-3.3272s-3.344-2.2957-3.344-2.5867-0.9297-1.0783-2.066-1.7495c-1.1363-0.67122-4.0613-2.7337-6.5-4.5832s-5.6526-3.9041-7.1421-4.5658-3.2697-1.8236-3.9561-2.5821c-0.68642-0.75848-2.2026-1.969-3.3692-2.69-1.1667-0.72104-3.7888-2.8864-5.827-4.8118-5.0854-4.8042-9.3018-7.8674-14.806-10.757-2.5667-1.3472-5.9238-3.4908-7.4603-4.7635s-3.0823-2.3141-3.4352-2.3141c-0.35286 0-2.5457-1.911-4.873-4.2467s-5.2815-4.773-6.5648-5.4164c-1.2833-0.64331-3.5333-2.139-5-3.3237-1.4667-1.1847-4.3967-3.1288-6.5112-4.3203-2.1145-1.1914-4.2158-2.6598-4.6696-3.263-1.3384-1.7791-4.8112-3.9724-8.523-5.3828-3.734-1.4188-8.6296-4.5282-8.6296-5.481 0-0.97836-4.2198-3.2277-6.0602-3.2304-2.2806-3e-3 -9.7729-3.7782-10.612-5.347-1.0705-2.0002-0.76919-3.7575 1.006-5.8672 0.91667-1.0894 1.663-2.2374 1.6585-2.5512-5e-3 -0.31374 1.6721-3.8939 3.7258-7.9559 2.7134-5.3668 3.8624-8.4747 4.2038-11.37 0.42999-3.6467 2.6495-8.2441 3.9801-8.2441 0.88845 0 2.5878-3.6471 3.417-7.3333 1.3562-6.029 3.8484-12.737 5.3102-14.293 0.75411-0.8027 1.3711-1.756 1.3711-2.1185 0-0.36246 0.8868-1.8649 1.9707-3.3387 1.0839-1.4738 2.2801-4.0606 2.6584-5.7485 0.80874-3.6087 1.7613-5.9165 3.8473-9.3213 0.83798-1.3677 1.5236-3.0354 1.5236-3.7059 0-0.67052 0.9764-2.8515 2.1698-4.8466 2.3896-3.9948 3.7326-7.088 5.4831-12.627 0.63726-2.0167 1.7252-4.4783 2.4176-5.4704 0.69243-0.99203 1.8323-3.242 2.5331-5 0.70079-1.758 2.5017-5.8512 4.002-9.096s2.7278-6.2287 2.7278-6.6308c0-1.4746 3.5773-5.8386 5.0991-6.2206 0.86216-0.21638 1.5676-0.693 1.5676-1.0592s-0.42068-0.50429-0.93482-0.30699c-0.51416 0.1973-1.0886 0.20492-1.2766 0.0169-0.41346-0.41346 1.2273-4.462 2.7502-6.7864 0.6061-0.92502 1.1678-2.6039 1.2482-3.7309 0.12475-1.7488 4.0259-10.013 9.4644-20.049 1.9591-3.6153 1.4019-5.9857-2.1937-9.3333-1.5754-1.4667-3.8684-4.5769-5.0956-6.9116-1.3214-2.514-4.2833-6.3277-7.2634-9.3524-2.7676-2.8091-5.6457-5.8489-6.3958-6.755-0.75003-0.90617-2.0279-2.2476-2.8397-2.9809-0.81181-0.73333-3.3085-4.1833-5.5482-7.6667-6.2431-9.7097-6.5501-10.111-10.377-13.572-1.9696-1.7814-3.9776-4.1882-4.4624-5.3484-0.48476-1.1602-2.3869-3.9185-4.227-6.1296-1.8401-2.2111-3.8382-4.9043-4.4402-5.9849-2.0004-3.5905-6.0505-8.8557-7.9477-10.332-1.0297-0.8014-2.8204-3.1373-3.9794-5.1909-1.159-2.0536-3.2702-4.7931-4.6917-6.0877-5.7928-5.2761-10.599-10.495-11.838-12.854-0.72197-1.375-1.5513-2.5-1.843-2.5s-1.2253-1.275-2.0747-2.8333c-0.84939-1.5583-2.5742-3.7333-3.8328-4.8333-1.7297-1.5117-2.3819-2.701-2.6712-4.871-0.37596-2.8197-0.31047-2.9388 3.6653-6.6667 2.2265-2.0876 4.6985-5.0707 5.4935-6.629 0.79494-1.5583 1.6962-2.8333 2.0028-2.8333 0.64547 0 2.5838-2.0549 7.2315-7.6667 1.8221-2.2 4.1778-4.9 5.2349-6 1.0571-1.1 3.327-4.1561 5.0442-6.7914 1.7172-2.6353 3.4238-4.9778 3.7924-5.2056 0.36862-0.22783 2.7855-2.9467 5.3707-6.042 2.5853-3.0953 5.1215-5.6277 5.636-5.6277 0.51451 0 1.2259-1.052 1.581-2.3378s1.6398-3.6108 2.8551-5.1667c3.6612-4.6874 9.3338-11.452 10.199-12.162 0.44662-0.36667 1.2077-1.4167 1.6912-2.3333 1.2292-2.3301 5.3078-7.324 7.5611-9.2578 1.039-0.89172 3.1958-3.5985 4.7929-6.0151 1.597-2.4166 4.7969-6.3257 7.1108-8.687 4.1852-4.2708 5.6388-6.2696 8.7921-12.09 0.90873-1.6773 3.6989-5.1465 6.2003-7.7094 2.5014-2.5629 6.7862-7.6 9.5217-11.194 2.7355-3.5936 5.7355-7.0244 6.6667-7.624 2.535-1.6322 6.7922-6.3172 8.8433-9.732 1.9005-3.164 2.9749-3.5779 6.1516-2.3701 2.1283 0.80918 3.3175 3.5651 2.3326 5.4055-0.38448 0.71842-3.1595 3.7984-6.1668 6.8443-3.0072 3.046-6.3274 7.1506-7.3781 9.1214-1.0508 1.9708-2.7008 4.3541-3.6667 5.2962-3.01 2.9359-10.41 11.409-10.681 12.23-0.14192 0.42992-1.8871 2.5817-3.8782 4.7817s-4.725 5.2233-6.0753 6.7184c-3.1874 3.5293-6.8927 8.3622-9.9272 12.948-3.4837 5.2649-6.3107 8.1156-7.6946 7.7589-0.88038-0.22694-1.1667 0.10857-1.1667 1.3673 0 1.859-1.9137 4.8544-5.0303 7.8738-1.1354 1.1-2.7118 3.3567-3.503 5.0148-0.79125 1.6582-4.2949 5.956-7.786 9.5506-3.491 3.5947-6.3474 6.7948-6.3474 7.1113 0 0.31651-1.125 1.923-2.5 3.5699-1.375 1.6469-3.3382 4.3494-4.3628 6.0055-2.5035 4.0469-4.499 6.3977-10.804 12.727-6.2662 6.2906-7.7097 8.0222-8.8322 10.595-0.92794 2.1266-3.335 5.2959-6.8181 8.9772-2.637 2.7871-4.0163 5.094-4.0163 6.7171 0 0.61369 1.5466 2.7544 3.4369 4.7571 1.8903 2.0027 5.0202 5.7413 6.9554 8.308 1.9352 2.5667 4.7141 6.1667 6.1753 8 1.4612 1.8333 3.4966 4.5333 4.523 6 1.0264 1.4667 2.9324 3.8667 4.2355 5.3333 1.3031 1.4667 3.8363 4.9167 5.6293 7.6667s3.7758 5.45 4.4062 6 2.171 2.35 3.4235 4c1.2525 1.65 4.2132 5.0593 6.5794 7.5762 4.7264 5.0274 6.6244 7.6062 6.6311 9.0097 3e-3 0.50556 0.9794 2.038 2.1711 3.4055 5.0097 5.7487 6.7036 7.9325 9.8325 12.675 1.8142 2.75 5.3316 7.4544 7.8163 10.454 2.4848 2.9999 5.8678 7.1687 7.5178 9.2642s4.4643 5.191 6.254 6.879c3.6916 3.4819 6.04 8.1402 5.3964 10.705-0.2328 0.92753-1.46 3.1294-2.727 4.8931-1.2671 1.7637-2.4896 4.1662-2.7167 5.339-0.22713 1.1728-1.1165 2.9804-1.9765 4.0169-0.85993 1.0365-1.5635 2.4815-1.5635 3.2112s-1.35 4.1208-3 7.5356c-1.65 3.4149-3 6.8307-3 7.5907 0 1.8314-1.1357 4.3895-3.7489 8.4446-2.3737 3.6832-4.9177 9.6964-4.9177 11.624 0 1.1217-3.2956 8.019-4.632 9.6944-0.65714 0.82381-3.7976 8.3148-5.0372 12.015-0.49131 1.4667-2.3786 5.4307-4.194 8.809-1.8154 3.3783-3.8152 7.7152-4.4439 9.6375-0.62878 1.9224-1.5669 4.1001-2.0847 4.8394-0.51781 0.73927-0.94147 1.7912-0.94147 2.3376s-1.1749 3.4046-2.611 6.3517c-3.7812 7.7598-6.7224 14.753-6.7224 15.984 0 0.58808-0.73837 2.1878-1.6408 3.5549-0.90246 1.3671-2.1177 4.4357-2.7005 6.819-1.2475 5.1015-2.0111 6.8533-4.3588 10-1.9701 2.6405-3.5723 6.4819-4.2404 10.167-0.2493 1.375-0.73968 2.5-1.0897 2.5-0.94416 0-0.77244 2.6967 0.38872 6.1046 0.85552 2.5108 1.7105 3.4558 5.1667 5.7102 2.2778 1.4858 5.2732 3.2227 6.6565 3.8598 1.3832 0.63708 3.9332 2.6475 5.6667 4.4676 1.7334 1.8201 4.3517 3.9258 5.8184 4.6793 1.4667 0.75352 3.8667 2.3159 5.3333 3.4719 2.636 2.0776 6.9788 5.0061 9.0877 6.128 0.59823 0.31826 2.3982 1.7108 4 3.0946s4.4123 3.5051 6.2456 4.7141c7.5541 4.9815 9.7043 6.5946 10.317 7.7401 0.35475 0.66286 1.809 1.7811 3.2317 2.485 1.4227 0.70388 3.4561 1.9586 4.5188 2.7881 2.8342 2.2126 16.029 10.911 18.486 12.187 1.1621 0.60336 2.8985 1.8275 3.8587 2.7204 0.96022 0.89289 3.0428 2.2995 4.628 3.1257 1.5852 0.82625 4.6999 3.0981 6.9215 5.0486 3.6158 3.1745 12.299 8.3299 14.044 8.3383 0.37014 2e-3 1.0477-0.59674 1.5057-1.3301 0.47073-0.75376 1.5547-1.3333 2.4937-1.3333 1.3297 0 1.661 0.33425 1.661 1.6757 0 0.92164-0.35509 2.2443-0.78908 2.9392-1.2263 1.9636 2.4898 5.6402 10.388 10.278 9.4972 5.5764 12.401 8.0387 12.401 10.515 0 2.6208-2.634 5.2584-5.2512 5.2584-1.2512 0-3.039-0.84322-4.8636-2.294zm-79.885-242.04c0-0.57479-0.60166-1-1.415-1-1.1822 0-1.2784 0.16453-0.58504 1 0.45646 0.55 1.0932 1 1.415 1s0.58504-0.45 0.58504-1zm183.59 241.82c-0.7852-0.12378-1.9535-1.2249-2.6274-2.4763-1.7293-3.2111-0.75555-4.844 5.7772-9.6877 2.9931-2.2192 6.0149-4.7634 6.7152-5.6537 1.3779-1.7518 4.9033-2.7356 7.1955-2.008 0.78608 0.24949 1.9189 1.4804 2.5174 2.7354 1.0327 2.1655 1.0199 2.375-0.24972 4.1097-0.7358 1.0053-2.7769 2.7279-4.5357 3.8279s-4.8886 3.5307-6.9549 5.4016c-3.8059 3.4458-5.2847 4.1536-7.8376 3.7512zm-206.2-16.576c-0.75994-0.96611-1.3817-2.1216-1.3817-2.5678s1.3439-2.8574 2.9864-5.3582c2.2777-3.4678 2.8121-4.757 2.2517-5.4322-1.1346-1.3671-2.1197-1.1157-8.5744 2.1882-4.9827 2.5505-6.396 3-8.3052 2.6419-2.4265-0.45521-4.2848-2.3184-5.6858-5.7008-0.77116-1.8617-0.6548-2.4029 1.3318-6.194 2.5133-4.7963 4.8297-7.5092 7.6622-8.974 1.1-0.56885 2.848-1.7421 3.8845-2.6072 3.3432-2.7904 7.3977-1.4548 9.4588 3.1159 1.1325 2.5114 1.158 2.9516 0.26308 4.546-1.4029 2.4995-3.4471 2.3062-4.2442-0.40138-0.95724-3.2515-3.2189-2.9363-6.8413 0.95353-4.3046 4.6224-3.8221 5.259 3.7886 4.999 4.0428-0.13815 6.7502-0.55227 7.6274-1.1667 0.8294-0.58093 2.9988-0.95248 5.5614-0.95248 3.9218 0 4.2458 0.11651 4.867 1.7505 0.62765 1.6508 0.84961 1.7261 3.8985 1.3216 4.178-0.55423 5.4029-0.0488 5.4029 2.2292 0 2.7327-1.9928 4.2552-4.3812 3.3471-3.2038-1.2181-5.8705 0.66038-11.112 7.8274-5.0948 6.9662-6.0661 7.4753-8.4582 4.4342zm230.45-3.9405c-3.2276-1.782-2.1214-6.7681 1.9731-8.8933 1.3898-0.72132 3.4664-2.1843 4.6148-3.2511 1.1484-1.0668 3.4715-2.7504 5.1625-3.7414 2.4533-1.4377 3.3418-1.6588 4.3968-1.0942 3.2922 1.7619 3.4925 5.3845 0.45581 8.2437-1.2266 1.155-3.8921 3.675-5.9232 5.6-2.0311 1.925-4.2525 3.5041-4.9364 3.5091-0.68389 5e-3 -1.8434 0.15091-2.5768 0.32424-0.73333 0.17333-2.1583-0.14035-3.1667-0.69706zm22.926-16.323c-2.8486-1.2877-2.8981-1.3649-2.4478-3.8138 0.4526-2.4614 3.2513-6.1661 4.6581-6.1661 0.39602 0 2.2725-1.358 4.1699-3.0178s4.4423-3.4778 5.6552-4.04c1.213-0.56216 2.9178-1.4255 3.7886-1.9184 2.0757-1.1752 5.1552-0.15665 5.6648 1.8736 0.65857 2.624-0.33019 4.3723-3.6163 6.3942-1.7702 1.0892-3.5113 2.5272-3.8689 3.1956-0.89352 1.6696-8.1299 7.8915-9.7652 8.3963-0.74128 0.22881-2.6189-0.17146-4.2383-0.90353zm-297.05-1.5682c-4.3237-1.3866-4.7422-3.6834-1.5401-8.4513 1.9232-2.8636 4.6614-3.2876 8.6725-1.3428 3.6501 1.7698 7.5212 2.5681 10.659 2.198 2.3997-0.28303 2.5-0.39673 2.5-2.8341 0-1.3966-0.1854-3.0224-0.41202-3.6129-0.39423-1.0274-5.3875-3.702-6.9113-3.702-0.40139 0-1.9178-0.6061-3.3699-1.3469-2.2552-1.1505-2.6394-1.6608-2.6352-3.5 4e-3 -1.7835 0.79809-2.9256 4.6255-6.6531l4.6205-4.5h4.6829c8.1094 0 15.4 3.5266 15.4 7.4495 0 1.7486-0.18854 1.8838-2.6273 1.8838-1.445 0-2.814-0.30213-3.0423-0.67141-0.58838-0.95202-3.6262-2.4215-6.1119-2.9566-1.8631-0.40102-2.1409-0.27168-2.3333 1.0864-0.16942 1.1954-0.7051 1.5885-2.3852 1.7505-2.1147 0.20389-3.2354 2.1244-1.2396 2.1244 0.50987 0 2.8321 1.7905 5.1605 3.9788l4.2335 3.9788-0.0526 3.872c-0.0688 5.0619-1.2521 7.3217-5.0517 9.6474-2.9166 1.7852-3.6654 1.9248-11.667 2.1753-5.7478 0.17994-9.4101-8e-3 -11.174-0.57398zm320.06-16.964c-1.7828-1.97-1.3744-4.4299 1.0633-6.4049 2.3862-1.9332 9.336-6.9966 13.601-9.9094 3.0543-2.0858 5.7377-1.9693 6.9532 0.30197 1.0516 1.965 0.13656 3.7086-2.8953 5.5166-1.5178 0.90509-3.2245 2.6272-3.7927 3.8269-0.76512 1.6154-1.7039 2.3691-3.6188 2.9054-1.4221 0.39828-3.727 1.6823-5.1218 2.8534-2.8811 2.4188-4.5956 2.6709-6.1892 0.91007zm26.666-19.774c-1.064-1.064-1.401-2.3303-1.1331-4.2578 0.0701-0.50444 1.0806-1.6959 2.2457-2.6478 1.165-0.95185 3.073-2.7141 4.2401-3.9162 1.167-1.202 2.3838-2.1855 2.7038-2.1855 0.32006 0 1.5985-0.75 2.841-1.6667 2.5874-1.909 5.0497-2.1245 7.185-0.62887 2.7422 1.9207 1.9242 3.8881-3.3517 8.0609-2.6583 2.1025-5.7333 4.6426-6.8333 5.6446-2.5814 2.3514-6.3759 3.1189-7.8974 1.5974zm-211.16-15.453c-2.383-0.62258-3.0972-4.088-2.7594-13.387 0.22911-6.3062 0.10561-8.8333-0.43167-8.8333-1.1442 0-0.89982-2.99 0.47516-5.8128 1.1193-2.298 1.2144-4.2567 1.0773-22.187-0.0827-10.817-0.32136-26.417-0.53034-34.667-0.63856-25.208-0.63455-29.565 0.0297-32.333 0.35199-1.4667 0.54024-8.4496 0.41835-15.518-0.1219-7.068 0.0189-13.968 0.31292-15.333 0.294-1.3653 0.30792-6.3536 0.0309-11.085-0.35688-6.0965-0.28013-9.0098 0.26345-10 0.49604-0.90356 0.70444-4.4608 0.58986-10.068-0.0975-4.769 0.0986-9.419 0.4357-10.333 0.37496-1.017 0.36324-5.0271-0.0302-10.329-0.90616-12.212-1.0304-21.544-0.39499-29.667 0.43352-5.5418 0.33095-7.8641-0.49241-11.148-0.58289-2.3248-0.79922-4.5224-0.4922-5 0.3013-0.46865 0.61986-6.2521 0.70793-12.852 0.0881-6.6 0.17193-12.45 0.18637-13 0.23285-8.8742 0.23594-52.557 5e-3 -70.667-0.0444-3.4833-0.0554-7.3833-0.0245-8.6667 0.0637-2.6359 0.1792-11.707 0.25056-19.667 0.0263-2.9333-0.0902-8.9333-0.25882-13.333-0.32634-8.5144 0.0967-10.974 1.8991-11.042 0.85558-0.0322 0.78819-0.17704-0.28405-0.61033-2.0013-0.80874-2.4449-4.7164-1.2464-10.98 0.7348-3.8405 0.81772-5.8478 0.3182-7.703-0.37158-1.3799-0.64222-4.8688-0.60142-7.7532s0.0399-7.001-2e-3 -9.1482c-0.16882-8.6667 1.8107-10.889 9.0634-10.177 15.05 1.4786 25.095 1.7293 48.527 1.2115 14.829-0.32772 26.687-0.31101 28.621 0.04035 2.1875 0.39758 3.8307 0.35845 4.8721-0.11602 1.0394-0.47358 2.522-0.50972 4.3795-0.10677 1.5457 0.33532 7.5398 0.40897 13.333 0.16385 8.6874-0.36758 10.692-0.27833 11.48 0.51119 0.75178 0.75268 1.2792 0.79537 2.475 0.20033 0.83582-0.4159 3.9197-0.87164 6.853-1.0128s5.8196-0.47352 6.414-0.73867c1.4258-0.63603 3.2322 1.1955 2.8019 2.8409-0.18263 0.6984-0.0181 1.4638 0.36556 1.701 1.0361 0.64034 3.3346-1.0333 3.5576-2.5905 0.14489-1.0119 0.61801-1.3107 1.861-1.1754 1.7473 0.19026 12.034 0.18056 48.052-0.04529l21.719-0.13619 2.5079-1.913c3.3384-2.5465 5.214-1.8061 6.2944 2.4847 0.84382 3.3511 1.0128 8.6201 0.29929 9.3336-0.82983 0.82982-1.163 17.955-0.77999 40.095 0.0127 0.73333-0.19617 3.8135-0.46411 6.8449-0.40603 4.5936-0.28776 5.9537 0.71014 8.1667 0.65851 1.4603 1.228 2.6551 1.2656 2.6551 0.0376 0 2.136 0.75 4.6633 1.6667s5.2805 1.6667 6.1184 1.6667c2.2517 0 4.6684 3.6372 3.882 5.8426-0.95094 2.6669-2.6102 3.3673-4.7736 2.0149-3.1594-1.9751-8.9405-4.5242-10.26-4.5242-1.9657 0-2.7289 2.9866-2.2263 8.7115 0.40716 4.6374 0.5991 78.969 0.27016 104.62-0.16035 12.504 0.55248 85.283 1.1394 116.33 0.45967 24.317 0.45123 35.052-0.0383 48.667-0.4953 13.777-0.48545 29.965 0.0208 34.172 0.25012 2.0784 0.14173 3.8425-0.26632 4.3342-0.37848 0.45604-0.82638 3.2288-0.99532 6.1616-0.16896 2.9329-0.67307 8.0325-1.1202 11.332-0.63061 4.6536-0.63621 7.0056-0.025 10.481 0.85203 4.8446 0.58071 7.0528-1.4232 11.583-1.335 3.018-2.4255 3.6541-6.2363 3.6378-11.198-0.048-67.353 0.46295-83 0.75515-3.0623 0.0572-23.375-0.55726-26.667-0.80666-0.55-0.0417-5.05 0.14948-10 0.42477s-10.8 0.46194-13 0.41478c-25.827-0.55368-27.46-0.53357-30.932 0.38091-2.618 0.68954-4.253 0.77039-6 0.29668-1.3208-0.35814-8.8592-0.61732-16.752-0.57598l-14.351 0.0752-4.09 2.4363c-4.4449 2.6477-5.9751 3.2084-7.598 2.7844zm46.229-6.9815c-0.41841-0.41841-2.2034-0.82751-3.9667-0.90911-2.0176-0.0934-2.2793-0.0443-0.70591 0.13243 1.375 0.15442 2.5 0.56352 2.5 0.90911 0 0.34558 0.66 0.62833 1.4667 0.62833 1.0987 0 1.2758-0.19086 0.7059-0.76076zm150.3-6.0694c15.476 0.15638 16.85 0.0771 17.336-1 0.69353-1.5366 0.52915-9.6108-0.43097-21.17-0.42638-5.1333-0.74206-10.833-0.70149-12.667 0.51082-23.087 0.4663-40.28-0.10815-41.773-0.4702-1.2222-0.46299-2.1822 0.0232-3.0906 0.79349-1.4827 1.0528-16.653 0.50944-29.803-0.19694-4.7667-0.36416-8.9667-0.37158-9.3333-7e-3 -0.36667 0.15309-4.4167 0.35668-9 0.46111-10.38 0.45641-12.592-0.0922-43.333-0.63041-35.327-0.64324-34.421 0.75332-53.167 0.34875-4.6811 0.31261-4.8333-1.1473-4.8333-0.82906 0-2.4584 0.34389-3.6207 0.7642-3.1837 1.1513-5.6041 0.28871-6.0963-2.1726-0.53478-2.6739-1.8713-3.0989-4.2394-1.3481-3.4466 2.5482-3.8575 1.8967-4.1435-6.5698-0.14096-4.1726-0.36304-5.03-1.3515-5.2187-1.0144-0.19359-1.1307 0.13771-0.81649 2.3263 0.28658 1.9962-0.0365 3.2779-1.4838 5.8853-1.7038 3.0695-2.1873 3.4421-6.11 4.7079-2.703 0.8722-4.8545 2.0659-5.887 3.2662-1.5576 1.8108-4.6466 4.1549-7.4583 5.6596-1.8439 0.98682-4.7282-0.39079-4.7282-2.2583 0-1.045 0.90705-1.8435 3.5-3.0813 2.7686-1.3216 3.5433-2.0414 3.7073-3.4443 0.16427-1.4057-0.21402-1.9914-1.8237-2.8238-2.4547-1.2694-3.0604-3.2748-2.084-6.9007 1.2048-4.4742 6.448-7.1726 8.6893-4.472 0.66779 0.80463 0.49188 1.3752-0.95367 3.0931-2.1491 2.5541-2.1236 5.4792 0.0506 5.7894 1.1394 0.16253 1.8951-0.66344 3.8333-4.1896 1.3278-2.4156 2.4142-4.9392 2.4142-5.608 0-1.4503 6.442-5.9265 9.3727-6.5126 2.5444-0.50888 4.3844 1.063 5.3225 4.5471 0.87433 3.247 1.7972 3.2713 2.3117 0.0608 0.85067-5.3083 4.0782-8.186 5.9573-5.3115 1.0316 1.5782 1.6148 13.669 0.7285 15.103-0.75578 1.2229 1.4896 4.0421 3.2194 4.0421 3.1501 0 3.9441-1.9823 4.1624-10.393 0.14503-5.5856-0.0673-8.4017-0.76654-10.166-0.76481-1.9301-0.89555-4.8115-0.62494-13.774 0.46841-15.514 0.6139-26.153 0.40116-29.333-0.0981-1.4667 0.0112-16.017 0.24284-32.333 0.57224-40.305 0.49963-55.187-0.29326-60.111-0.45054-2.7976-0.4489-5.5921 5e-3 -8.5255 0.3717-2.4 0.5899-8.1137 0.48523-12.697l-0.19032-8.3333-4 0.04508c-6.8612 0.07733-17.562 0.81155-18.278 1.2541-0.37631 0.23257-1.3677-0.0037-2.203-0.52507-2.307-1.4398-7.297-1.8706-9.3473-0.80688-3.1583 1.6386-5.5178 1.8168-8.4609 0.6392-2.1044-0.84199-3.9436-1.0298-7.3158-0.7471-2.4776 0.20771-8.53-0.02073-13.45-0.50766-5.8497-0.57896-9.36-0.66349-10.144-0.24425-0.78827 0.42135-1.9732 0.38566-3.4574-0.10415-1.6374-0.54039-3.6899-0.55032-7.4674-0.03613-2.8651 0.39-14.059 0.71865-24.876 0.73033-10.817 0.01168-21.317 0.07401-23.333 0.13852-2.0167 0.06451-5.4667 0.03436-7.6667-0.06699-2.2-0.10135-9.55 0.16775-16.333 0.59798-9.7305 0.61717-13.265 0.60668-16.747-0.04971-2.8323-0.53386-6.4153-0.66805-10-0.3745-6.9936 0.57271-10.282 0.50782-13.253-0.26152-1.2833-0.3323-4.5536-0.81476-7.2672-1.0721l-4.9339-0.46794 0.55834 2.9294c0.61122 3.2068 0.6589 4.8092 0.39461 13.263-0.13731 4.3919 0.24123 36.514 0.6285 53.333 0.0295 1.2833 0.0482 7.2601 0.0415 13.282-7e-3 6.4969 0.27653 11.488 0.69803 12.276 0.50479 0.94322 0.497 2.3083-0.0269 4.7183-1.4326 6.5898-2.1591 56.443-0.85798 58.874 0.57576 1.0758 0.58249 3.1434 0.0269 8.251-0.53633 4.93-0.54067 7.4856-0.0157 9.2378 0.49551 1.6539 0.5378 4.739 0.13332 9.7254-0.32584 4.0167-0.44111 12.553-0.25617 18.97 0.49993 17.345 0.50105 19.017 0.0181 27-0.56812 9.3902-0.57506 8.4349 0.14039 19.333 0.33699 5.1333 0.62407 15.933 0.63796 24 0.0241 14.013 0.0657 18.564 0.35636 39 0.0759 5.3363-0.1835 9.9499-0.63721 11.333-0.53016 1.6166-0.66038 7.1456-0.42394 18 0.35287 16.199 0.35239 22.661-4e-3 56.064-0.24274 22.739-0.32259 22.376 4.7512 21.56 2.3169-0.37303 52.003-1.0525 74.705-1.0216 1.65 2e-3 5.55 0.014 8.6667 0.0261s6.6593-0.30335 7.8725-0.70105c1.6102-0.52784 2.7015-0.51777 4.0415 0.0373 1.0472 0.43375 5.254 0.74297 9.7941 0.71988 20.895-0.10623 25.178-0.0643 32.625 0.31984 4.4 0.22693 11.8 0.46883 16.444 0.53757 4.6444 0.0687 8.6799 0.36052 8.9679 0.6484 0.28794 0.28788 1.438 0.28788 2.5557 0 1.1177-0.28788 9.5958-0.447 18.84-0.35359zm-126.48-154.51c-1.0661-1.992-0.34679-11.019 1.0514-13.197 1.8333-2.8545 5.1943-6.1177 6.2852-6.1024 1.2191 0.0172 3.3333 1.5494 3.3333 2.4157 0 0.34668-0.75 1.6469-1.6667 2.8894-1.6726 2.2672-2.275 6-0.96817 6 0.38418 0 1.4342-0.7938 2.3333-1.764 1.238-1.3358 1.6375-2.5091 1.6458-4.8333 0.0134-3.752 2.2689-8.0372 4.8929-9.2962 2.6425-1.2678 5.6199 0.0554 6.873 3.0546 0.52042 1.2455 1.3085 2.1461 1.7513 2.0013 0.4428-0.14486 1.581-1.7218 2.5292-3.5043 2.207-4.1488 4.0081-5.037 6.4663-3.1891 1.9556 1.4701 2.1498 2.9719 1.1592 8.9642-0.46229 2.7964-0.36679 3.1776 0.97633 3.8964 1.321 0.70696 1.7653 0.52671 3.9429-1.5996 1.3498-1.318 3.07-2.3964 3.8227-2.3964 1.7055 0 3.8625 2.2897 3.3689 3.576-0.7271 1.8948-5.2683 7.7577-6.0229 7.7759-0.42393 0.0102-1.9492 0.9102-3.3896 2-4.6603 3.5261-8.3812 2.0887-8.3812-3.2377 0-1.9768-0.27776-2.7808-0.96065-2.7808-1.2829 0-1.745 0.85992-2.641 4.915-0.69528 3.1466-0.9205 3.4344-2.8331 3.6214-1.6184 0.15824-2.4041-0.21024-3.5537-1.6667-1.5081-1.9105-1.5525-3.4948-0.28125-10.036 0.3096-1.5931 0.18044-2.164-0.48794-2.1565-1.8014 0.0202-2.5715 1.119-3.2344 4.6146-1.4826 7.8175-5.1758 11.372-11.818 11.374-2.8002 6.7e-4 -3.616-0.25956-4.1934-1.3384zm20.837-19.102c-0.45833-0.18494-1.2083-0.18494-1.6667 0-0.45834 0.18494-0.0833 0.33626 0.83333 0.33626 0.91667 0 1.2917-0.15132 0.83333-0.33626zm40.792 12.908c-3.2143-2.7648-3.4381-9.8783-0.62295-19.8 0.46815-1.65 1.0591-5.2445 1.3133-7.9878 0.73271-7.9086 3.1607-11.956 6.6472-11.081 2.432 0.61038 2.917 3.2944 1.2086 6.6882-2.7756 5.514-2.6574 6.1904 1.5928 9.1146 4.2496 2.9238 5.4143 2.4909 8.2357-3.0615 1.3026-2.5635 2.8455-4.7528 3.4286-4.8651 0.58309-0.11229 2.0002 0.58679 3.1491 1.5535 2.7514 2.3152 2.6935 4.4182-0.24443 8.8792-2.6262 3.9877-2.85 5.0857-1.1678 5.7312 0.8068 0.3096 1.6789-0.14456 2.8333-1.4756 0.91729-1.0576 2.5678-2.9355 3.6678-4.1732s3.205-4.2166 4.6778-6.6198c1.5476-2.5253 3.7282-5.0497 5.1667-5.9812 1.6821-1.0893 2.4888-2.1073 2.4888-3.1407 0-1.9192-2.4457-4.2779-3.9065-3.7676-1.986 0.69389-4.8239 3.8049-6.0977 6.6846-1.4387 3.2524-2.1973 3.4986-3.7025 1.2014-1.3319-2.0328-0.90885-3.6142 2.203-8.2344 2.544-3.7771 5.9757-5.8256 8.6393-5.1571 2.3526 0.59048 7.2169 4.1388 7.9822 5.8228 0.45523 1.0016 0.51553 3.8868 0.17331 8.2924-0.4913 6.325-0.74138 7.1826-3.9166 13.432-1.8655 3.6716-3.8625 6.8562-4.4377 7.077-1.8423 0.70697-4.2706 0.43183-5.9603-0.67533-1.5237-0.99838-1.7765-0.99014-3.4765 0.11339-1.0083 0.65453-2.2087 1.7153-2.6675 2.3572-1.0901 1.5252-4.3903 2.223-6.1246 1.2948-0.75364-0.40334-1.9773-1.9233-2.7193-3.3777-0.74198-1.4544-1.7813-2.6444-2.3095-2.6444-1.2931 0-3.4971 2.4189-5.1632 5.6667-0.75239 1.4667-2.3725 4.2417-3.6003 6.1667-2.5584 4.0112-4.3512 4.4949-7.2902 1.9669zm7.6992-11.453c1.9098-3.0901 1.5746-5.7343-0.87512-6.9031-1.0361-0.49436-2.0504-0.73229-2.254-0.52872-0.20357 0.20356-0.52114 2.4808-0.70572 5.0606-0.31448 4.3952-0.24946 4.6905 1.0329 4.6905 0.84334 0 1.9186-0.89005 2.8019-2.3192zm32.332-10.733c1.4841-1.6013 2.8402-5.339 2.1775-6.0016-0.52209-0.52208-3.8299 2.955-4.5081 4.7388-1.3204 3.473-0.25352 4.0511 2.3306 1.2628zm-139.44-0.67495c-0.22392-0.58353-0.16656-3.6585 0.12747-6.8333 0.78472-8.473 0.73213-10.841-0.31087-14.002-0.83568-2.5322-0.80714-3.3521 0.25992-7.4662 1.1501-4.4341 1.1507-4.8254 0.0167-9.6408-0.98735-4.1927-1.0495-5.4614-0.37734-7.7048 1.0113-3.3754 3.2076-4.4371 6.0926-2.9452 2.6372 1.3638 3.6125 3.588 4.6093 10.512 0.71725 4.9819 1.8376 7.8082 3.0953 7.8082 0.85004 0 1.7255-4.1542 1.6594-7.8746-0.0494-2.7825 0.26706-4.6958 0.93422-5.6483 0.55489-0.79224 1.0089-2.1358 1.0089-2.9858 0-2.2296 2.626-5.4913 4.4209-5.4913 1.6141 0 3.5791 2.2472 3.5791 4.0931 0 0.62135-0.65603 2.5796-1.4578 4.3517-0.82622 1.826-1.5156 4.8106-1.5911 6.8886-0.0733 2.0167-0.33133 8.0167-0.57347 13.333-0.24883 5.4634-0.15464 11.651 0.21662 14.231 0.38774 2.6945 0.41622 5.1977 0.0695 6.1096-0.7913 2.0813-3.0902 2.7497-4.6384 1.3486-1.4916-1.3499-2.1393-8.9335-1.2176-14.256 0.83668-4.8312 0.46853-5.6712-1.9382-4.4225-1.6771 0.87008-1.9759 0.84508-3.0786-0.25757-0.67165-0.67166-1.5161-2.5337-1.8765-4.1378-0.36043-1.6041-0.9993-3.1292-1.4197-3.389-2.2058-1.3632-2.4898 2.5985-0.38995 5.4387 1.2554 1.698 1.3189 2.0891 0.5 3.0784-0.54847 0.66255-1.0064 2.9585-1.1026 5.5279-0.0905 2.4171-0.21069 5.5946-0.26712 7.0613-0.0565 1.4667 0.12034 3.3139 0.39282 4.105 1.036 3.0078-5.6073 6.1281-6.7435 3.1673zm2.834-24.831c-1.4236-0.27781-2.0024 0.22668-1.3924 1.2136 0.32979 0.5336 0.7542 0.49908 1.5039-0.12231 0.94101-0.77996 0.92996-0.88805-0.11153-1.0913zm26.782 15.839c-2.1354-1.2438-3.1666-4.3257-3.1666-9.4639 0-4.2776 0.20062-5.1054 1.543-6.3664 3.0498-2.8651 3.7865-1.8056 3.2798 4.7171-0.33052 4.2554-0.2724 4.5 1.0693 4.5 1.0316 0 1.8767-0.90357 3.0967-3.3112 0.92285-1.8211 1.6779-3.8771 1.6779-4.5688 0-0.69169 0.74878-3.3267 1.664-5.8555 1.5132-4.1813 3.0011-6.2645 4.4742-6.2645 0.71581 0 2.248 3.6188 2.9639 7 1.114 5.2617 5.529 2.1334 5.789-4.1019 0.15753-3.7766 1.9444-7.0917 3.6459-6.7641 1.7451 0.33608 2.9386 3.4049 2.1406 5.5039-0.8487 2.2323 0.0336 6.3608 1.854 8.675 1.5148 1.9258 2.4666 6.2592 1.8212 8.2925-0.23188 0.73058-1.464 1.9726-2.738 2.76-2.1749 1.3442-2.4172 1.3656-3.9656 0.35106-1.998-1.3092-2.0384-1.9293-0.3079-4.7293 1.64-2.6536 1.1438-4.4741-1.142-4.1899-1.2824 0.15945-2.2248 1.33-4.4148 5.4834-3.2767 6.2143-5.0963 7.3255-8.7623 5.3513l-2.1979-1.1836-2.9808 2.4425c-3.2171 2.6362-3.576 2.7519-5.3435 1.7224zm14.667-9.2726c2.091-1.2749 2.8758-2.674 1.5-2.674-0.36667 0-0.66667 0.3-0.66667 0.66667 0 0.36666-0.3 0.66666-0.66666 0.66666-0.36667 0-0.66667-0.56326-0.66667-1.2517 0-1.53-1.446-2.8406-2.4386-2.2102-0.90874 0.57715-1.8065 4.5259-1.2381 5.4456 0.62349 1.0088 1.7524 0.83501 4.1767-0.6431zm29.903 1.0837c-1.3415-1.0394-1.5195-2.3977-0.62353-4.7577 0.4176-1.1 1.1349-3.4533 1.5939-5.2296 0.9566-3.7014 0.33029-4.6113-2.7501-3.9952-5.5407 1.1081-9.9303-6.5284-9.9492-17.308-0.01-5.6044 1.0252-7.7376 5.1217-10.556l3.1279-2.152 6.8656 0.76721c7.8126 0.87303 9.306 1.4965 13.688 5.7147l3.144 3.0267-0.39565 7.8663c-0.32316 6.4249-0.23742 7.7175 0.46793 7.0544 0.47497-0.44655 1.2306-1.7966 1.6791-3 0.44852-1.2034 1.423-3.8319 2.1655-5.8411 1.3232-3.5803 3.9954-6.6803 5.7585-6.6803 0.48894 0 1.5874 0.56557 2.4411 1.2568 1.1856 0.96006 1.5572 1.9412 1.5738 4.1553 0.0165 2.1956 0.29887 2.9524 1.1646 3.1208 0.75696 0.14728 1.2825-0.334 1.5564-1.4254 0.4911-1.9567 3.2676-4.746 4.1694-4.1887 0.34872 0.21552 0.96032 1.6719 1.3591 3.2365 0.3988 1.5646 1.3171 3.9966 2.0406 5.4044l1.3155 2.5597 0.40235-2.2264c0.22129-1.2245 0.36553-3.2764 0.32054-4.5597-0.12224-3.4864 0.76235-8.5607 1.6158-9.2691 0.41336-0.34306 1.5502-0.82419 2.5264-1.0692 2.4895-0.62482 3.2827 1.069 2.4894 5.3156-1.2012 6.4295 1.0232 7.712 3.7973 2.1893 2.1808-4.3416 2.0284-4.1924 3.2483-3.18 1.3718 1.1385 1.2782 2.8626-0.31722 5.8392-0.73334 1.3682-1.3333 3.5753-1.3333 4.9045 0 5.0583-0.82606 8.6413-2.1564 9.3533-1.7882 0.95704-4.2778 0.21054-4.7015-1.4098-0.52615-2.012-2.1031-1.6213-4.1178 1.0202-1.4101 1.8487-2.1142 2.268-3.2458 1.9327-1.9828-0.58744-3.1118-2.1915-3.1118-4.4209 0-1.5697-0.2789-1.8726-1.7246-1.8726-1.2944 0-1.9083 0.4867-2.4611 1.9512-0.84756 2.2455-2.908 3.3822-6.1307 3.3822-1.6247 0-2.6288 0.47694-3.598 1.7091-1.0962 1.3936-1.8129 1.6705-3.8817 1.5-2.1305-0.1756-2.5743-0.47636-2.7679-1.8758-0.4371-3.16-1.4464-3.5043-3.1055-1.0594-0.83958 1.2372-1.732 3.1852-1.9832 4.3288-0.91711 4.1756-12.522 10.623-15.277 8.4882zm9.6837-8.9244c2.596-2.85 3.5812-4.7719 5.2115-10.167 1.0753-3.5582 1.4033-5.913 1.1376-8.1663-0.48834-4.1409-2.2628-7.8337-3.7642-7.8337-0.64677 0-2.253-0.45-3.5693-1s-3.9618-1-5.8789-1c-4.4458 0-8.3282 2.4297-8.9166 5.5802-0.36601 1.9598 0.68173 10.657 1.4296 11.867 1.1527 1.8651 6.4059-0.74098 7.3195-3.6312 0.25776-0.81544 1.1012-2.3826 1.8744-3.4826s1.7372-2.6 2.1422-3.3333c0.93284-1.6889 2.8064-2.0898 3.3345-0.71349 0.22198 0.57845-0.26777 2.4756-1.0883 4.2159-0.82437 1.7484-1.764 5.5506-2.1 8.4976-0.33448 2.9333-0.9272 5.9726-1.3172 6.7539-0.91397 1.8312-0.14535 4.2461 1.3514 4.2461 0.64002 0 1.9152-0.825 2.8336-1.8333zm17.267-9.3333c0.0117-0.64167 0.46167-1.749 1-2.4608 1.0837-1.4328 1.3261-5.4126 0.36588-6.006-1.3842-0.85549-2.7286 1.6809-2.3027 4.3444 0.2506 1.5671 0.11941 2.9752-0.32732 3.5135-0.41003 0.49406-0.54811 1.0957-0.30685 1.337 0.80103 0.80102 1.5495 0.45418 1.571-0.72801zm-74.18 3.1224c-0.63717-0.37371-1.4835-1.2867-1.8807-2.029-1.541-2.8793 2.9219-6.1107 5.2392-3.7934 1.2144 1.2144 0.96324 2.942-0.7 4.8137-1.1782 1.3259-1.7485 1.5423-2.6585 1.0086zm110.49-77.35c-1.1-0.36989-6.05-0.91839-11-1.2189-7.1831-0.43607-9.3967-0.3591-10.965 0.38124-1.724 0.81375-2.0373 0.79893-2.552-0.12075-0.45404-0.81133-1.6677-1.0344-5.3681-0.98681-2.6298 0.0339-10.921-0.0889-18.425-0.27283-8.5761-0.21017-13.794-0.0914-14.048 0.31981-0.26093 0.42221-2.1603 0.35823-5.3561-0.18042-2.7235-0.45904-7.8018-0.87817-11.285-0.93139-3.4833-0.0532-9.0926-0.32751-12.465-0.60953-4.1506-0.34708-7.0585-0.25948-9 0.27112-1.5775 0.43112-4.0683 0.80134-5.5349 0.8227-4.7416 0.069-21.283 0.0819-23 0.0179-0.91667-0.0342-3.9994-0.0496-6.8505-0.0342-5.4602 0.0295-9.6522-0.92203-10.89-2.4718-0.99287-1.2428-0.4145-3.9119 1.1556-5.3328 1.1708-1.0595 1.9396-1.0865 9.4299-0.33065 4.767 0.48102 15.634 0.76593 26.155 0.68574 24.666-0.18798 73.228 0.12362 73.803 0.47354 0.65639 0.3998 23.208 0.38325 32.926-0.0241 9.4198-0.39492 11.617 0.0273 12.798 2.4598 0.71752 1.4768 0.69714 2.0867-0.12271 3.6721-0.54074 1.0457-1.4262 2.2689-1.9676 2.7183-1.381 1.1461-5.0665 1.489-7.4368 0.692zm-92.423-15.45c-1.3324-0.81896-3.6554-2.3165-5.1622-3.3279-2.0356-1.3663-3.4689-1.812-5.5775-1.7342-4.7484 0.17508-9.5801-2.7557-15.004-9.1012-2.55-2.9831-2.7068-4.8664-0.81565-9.8006 1.7475-4.5596 5.9215-7.9989 10.478-8.6333 5.6537-0.78725 10.508-0.61545 11.877 0.42039 0.71174 0.53834 1.8587 0.98834 2.5487 1 1.8393 0.0311 5.6113 2.5486 6.0931 4.0666 1.1272 3.5516 6.6758 7.4512 10.187 7.1594 2.1127-0.17554 2.7737-0.6665 4.6228-3.4333 1.1867-1.7756 2.4841-4.4756 2.883-6 0.399-1.5244 1.6031-4.5953 2.6757-6.8242s1.9503-4.6793 1.9503-5.4452c0-0.7659 0.77503-2.9356 1.7223-4.8216 0.94727-1.886 1.5645-3.8402 1.3716-4.3429-0.19288-0.50262-2.1102-1.4075-4.2606-2.0109-3.5695-1.0015-4.1705-1.4554-6.9019-5.2119-4.7787-6.5721-5.37-7.7257-6.345-12.378-0.68266-3.2575-0.75249-5.3263-0.26841-7.9507 0.94799-5.1395 4.581-12.177 7.117-13.786 1.1559-0.73333 2.5059-2.1967 3-3.252 2.4926-5.3232 15.771-5.4028 22.805-0.13674 1.1514 0.86203 2.8357 1.7937 3.743 2.0705 2.5528 0.77858 9.2222 6.9807 11.092 10.314 1.8202 3.2459 3.3418 12.513 2.702 16.455-0.19587 1.207-0.1 3.0876 0.21305 4.1791 0.44722 1.5594 0.15605 2.9678-1.359 6.5738-2.059 4.9005-6.4568 12.129-7.3794 12.129-0.80207 0-3.2513 5.0253-3.2513 6.6709 0 0.76489 1.021 3.5518 2.269 6.1932 2.116 4.4786 4.7394 7.855 8.2592 10.629 0.80951 0.63808 1.4718 1.7226 1.4718 2.4101 0 0.68748 0.5554 1.9654 1.2342 2.8399 1.6615 2.1402 2.296 4.7667 2.3703 9.8109 0.0509 3.4539-0.17305 4.3929-1.2319 5.1667-1.9898 1.454-4.0299 1.134-6.3021-0.98851-1.7666-1.6502-2.0705-2.4095-2.0705-5.1722 0-2.6417-0.48083-3.9738-2.6106-7.2325-1.4358-2.1969-3.8562-5.3035-5.3786-6.9034s-3.0178-3.566-3.3231-4.369c-0.3053-0.803-0.77224-5.0982-1.0376-9.5448-0.4482-7.5094-0.38328-8.2454 0.91217-10.342 0.76709-1.2412 2.0483-2.837 2.847-3.5462 0.79878-0.70921 2.4903-2.8998 3.7589-4.8679 1.8941-2.9386 2.1834-3.8326 1.6179-5-0.37876-0.78185-0.85112-2.7716-1.0497-4.4216s-0.54419-3.766-0.76803-4.7023c-0.33099-1.3844-0.0859-1.8486 1.3124-2.4857 2.0893-0.95193 2.193-2.6033 0.38601-6.1453-0.73334-1.4375-1.3333-2.95-1.3333-3.3612 0-1.4202-4.5778-6.3096-7.1181-7.6026-1.4017-0.71343-3.2985-1.9528-4.2152-2.7541-2.4188-2.1145-10.104-2.766-13.299-1.1276-1.4378 0.7371-2.4761 1.8591-2.7709 2.9943-0.2593 0.99851-1.0736 2.581-1.8097 3.5167-0.73602 0.93569-1.7119 3.7923-2.1686 6.348-0.71956 4.0264-0.694 4.8029 0.1915 5.8166 0.56205 0.64342 1.3803 2.2864 1.8183 3.651 2.2878 7.1272 5.5072 10.215 12.639 12.121 3.9944 1.0678 4.8148 3.1472 2.2205 5.6282-2.4213 2.3154-3.8899 5.8886-5.1116 12.436-1.1365 6.0907-2.8069 10.732-6.1721 17.15-2.2882 4.3636-7.314 9.8507-9.022 9.85-3.3258-1e-3 -13.364-5.9717-15.374-9.1438-0.28924-0.45648-1.8686-1.6169-3.5098-2.5786-2.3031-1.3497-3.5521-1.6664-5.4741-1.3878-1.3696 0.19848-4.0364 0.56497-5.9263 0.81443l-3.4361 0.45357-0.46003 3.0677c-0.4343 2.8961-0.33203 3.185 1.8278 5.1643 1.6892 1.5481 3.3392 2.2818 6.3064 2.8045 6.3089 1.1113 14.198 6.8686 14.198 10.361 0 1.0298-1.718 3.1205-2.5476 3.1004-0.24881-6e-3 -1.5425-0.68103-2.8749-1.5zm127.21-52.254c-0.62472-0.62473-6.8756-2.8122-11.03-3.8597-3.6867-0.9297-5.2268-1.977-5.4545-3.709-0.29366-2.2345 0.10758-3.2331 1.7248-4.2927 1.6044-1.0513 1.9083-1.0343 5.5 0.30754 2.091 0.78116 4.2517 1.8037 4.8017 2.2724 0.55 0.46865 2.5961 1.7049 4.5469 2.7473 4.0784 2.1791 5.1695 3.6708 4.1198 5.6322-0.67916 1.269-3.2839 1.8272-4.2091 0.902zm-27.353-11.606c-0.90624-0.71284-1.9386-1.2961-2.2942-1.2961-0.35561 0-0.98429-0.40695-1.3971-0.90433-0.4506-0.54294-2.9204-1.0853-6.1804-1.3572-4.3507-0.36283-5.8087-0.7716-7.3359-2.0567-1.0483-0.88212-3.3864-2.4096-5.1958-3.3944-1.8094-0.98478-3.4478-2.2023-3.6409-2.7057-0.51885-1.3521 0.22412-2.8096 1.6654-3.267 1.6001-0.50785 12.584 2.179 13.994 3.423 0.57887 0.51089 1.5658 0.92889 2.1932 0.92889 3.4376 0 11.733 6.8933 11.747 9.762 0.0101 2.0034-1.6091 2.3984-3.5554 0.86741zm11.535 134.44c0.9055-2.3816 0.19824-4.3248-1.4201-3.9016-1.5651 0.40929-2.9 2.9634-2.3279 4.4542 0.62415 1.6265 3.0558 1.268 3.748-0.55261zm16.894-185.97c0.58877-1.5343-0.5223-2.6582-1.4832-1.5003-0.8252 0.99431-0.4836 2.3941 0.58426 2.3941 0.3058 0 0.71034-0.4022 0.89898-0.89379zm29.633 435.17c-2.7235-1.469-2.4422-3.8768 0.80122-6.8581 4.8532-4.4609 8.5056-7.4216 9.1554-7.4216 0.35435 0 1.3716-0.77919 2.2605-1.7316 2.1968-2.3536 6.3472-4.3917 8.433-4.1412 4.7676 0.57269 3.0107 5.6566-3.6775 10.641-2.3067 1.7192-5.357 4.1765-6.7784 5.4606-5.0472 4.5598-7.4672 5.5214-10.194 4.0505zm28.167-21.613c-1.699-1.699-1.6796-2.0276 0.35534-6.0434 1.2315-2.4303 2.3595-3.6384 4.1667-4.4627 1.3629-0.62162 3.4023-1.887 4.532-2.8121 6.1575-5.0417 7.4408-5.5343 10.355-3.9746 3.6197 1.9372 2.3366 8.3574-2.0614 10.315-2.957 1.316-4.4416 2.2004-7.3581 4.3831-2.6992 2.02-6.4681 3.9282-7.7586 3.9282-0.49366 0-1.4976-0.6-2.2309-1.3333zm24.023-18.623c-1.888-3.5278-0.19783-7.5952 4.0507-9.7481 1.7284-0.87585 4.7156-3.1007 6.6382-4.9441 2.4768-2.3748 4.0334-3.3516 5.3405-3.3516 2.3567 0 5.9471 2.9842 5.9471 4.943 0 1.5397-2.1189 3.8806-4.1667 4.6034-0.64167 0.22647-1.1667 0.67992-1.1667 1.0077 0 0.61841-7.8999 6.6742-10.456 8.0153-2.3074 1.2105-5.3984 0.94797-6.187-0.52554zm27.498-17.595c-3.3402-1.2186-4.4037-2.617-3.8627-5.0797 0.37513-1.7081 1.8101-3.0904 7.5157-7.2404 3.8787-2.8211 8.1281-6.0732 9.4433-7.2269 1.3151-1.1537 3.2846-2.2037 4.3766-2.3333 1.7062-0.2025 2.1464 0.0925 3.1302 2.0977 2.2815 4.6503 1.9418 5.2319-6.1295 10.497-2.7527 1.7957-6.3056 4.8184-7.8954 6.7172-3.0891 3.6896-3.2898 3.768-6.5782 2.5683zm26.393-19.949c-1.5103-1.2494-3.2475-4.2904-3.2475-5.6852 0-1.3544 2.725-4.1684 5.3333-5.5076 1.8504-0.95006 6.682-4.7966 11.471-9.1328 3.4964-3.1655 4.9-3.4563 7.3567-1.5238 3.3 2.5958 2.5144 6.4424-1.9472 9.5343-1.4579 1.0104-5.2833 4.3821-8.5008 7.4928-6.0281 5.828-8.0977 6.7816-10.466 4.8224zm1.9053-2.9028c-0.22153-0.22153-0.79653-0.24521-1.2778-0.0526-0.5318 0.21281-0.37386 0.37078 0.4028 0.40277 0.70274 0.0289 1.0965-0.12862 0.875-0.35015zm23.674-20.097c-0.2554-0.64167-0.471-2.476-0.47907-4.0762-0.0133-2.6152 0.28887-3.1802 2.9854-5.5858 1.65-1.472 4.3019-3.2385 5.893-3.9257 1.5911-0.68715 4.7666-3.0485 7.0566-5.2475 4.3909-4.2164 5.3335-4.5998 7.423-3.0193 2.0664 1.563 2.4942 1.2046 2.0971-1.7566-0.32553-2.4269-0.139-2.9954 1.4767-4.5 1.0171-0.94718 3.7979-2.859 6.1795-4.2484 2.3816-1.3895 5.3526-3.5912 6.6022-4.8929 1.2495-1.3016 3.6299-3.0609 5.2897-3.9095 2.7697-1.4161 3.2006-1.466 5.2432-0.60713 3.179 1.3367 3.4057 1.2274 3.4057-1.641 0-3.0201 1.5933-5.3298 5.1776-7.5057 1.369-0.83105 4.382-3.2291 6.6955-5.3291 5.9021-5.3571 10.996-5.9516 13.838-1.6149 1.3157 2.008 0.776 2.9483-3.0944 5.3916-1.3219 0.83444-2.8263 1.9225-3.3431 2.418-0.51686 0.49545-1.7601 1.4257-2.7625 2.0673-1.0025 0.64154-2.0177 1.9432-2.256 2.8926-0.33367 1.3294-1.4413 2.1785-4.8184 3.6937-2.5065 1.1246-5.2216 1.8809-6.3376 1.7654-2.0455-0.21173-2.4811 0.25031-3.5207 3.7351-0.39626 1.3284-1.5609 2.4808-3.7054 3.6667-3.2076 1.7737-11.264 9.1712-13.404 12.307-1.0641 1.5596-1.6329 1.7556-5.0953 1.7556-4.0287 0-4.7069 0.47816-4.7069 3.3188 0 1.3417-4.2012 5.3479-5.6083 5.3479-0.49233 0-1.3025 0.4908-1.8003 1.0907-0.4978 0.59987-2.1095 1.8339-3.5816 2.7423-1.4721 0.90838-3.7668 2.8176-5.0995 4.2427-2.2077 2.3608-2.7279 2.5911-5.8543 2.5911-2.6465 0-3.5375-0.26683-3.8957-1.1667zm80.773-60.01c-1.0749-0.71773-2.2665-3.2038-2.2665-4.7286 0-0.72956 0.825-1.9522 1.8333-2.7171 1.0083-0.76482 4.2333-3.2843 7.1667-5.5988 7.8689-6.2089 11.087-8.4453 12.151-8.4453 1.7459 0 4.8074 3.6804 4.3899 5.2772-0.5172 1.9777-5.7868 7.1475-8.9091 8.7404-1.3979 0.71316-2.7382 1.6147-2.9784 2.0033-0.24027 0.38868-1.9375 1.893-3.7718 3.3429-3.1968 2.527-5.8893 3.2786-7.6155 2.126zm26.349-22.772c-3.1857-3.1857-2.1321-6.5143 2.5055-7.9151 2.4197-0.73085 5.5087-3.0581 6.6749-5.0288 0.9362-1.582 8.0464-5.9021 9.3126-5.6583 0.66806 0.12867 1.8607 1.5803 2.6501 3.2258l1.4355 2.9919-2.5713 2.5c-1.4142 1.375-2.7258 2.5-2.9147 2.5-0.18886 0-1.9255 1.5331-3.8591 3.4069-3.4985 3.3902-7.745 5.8839-10.067 5.9118-0.66987 8e-3 -2.0949-0.86228-3.1667-1.9341zm25.149-18.353c-0.9702-0.89916-1.764-2.2692-1.764-3.0445 0-2.3277 3.2392-5.846 7.0358-7.6421 1.9638-0.929 3.8091-2.1057 4.1007-2.6149 0.2916-0.50922 1.607-1.558 2.9231-2.3308 2.0251-1.1889 2.7169-1.292 4.5-0.67037 1.5607 0.54404 2.1071 1.1417 2.1071 2.3046 0 2.5772-1.4165 4.9088-3.9235 6.4582-1.2987 0.80262-4.0972 3.1952-6.2189 5.317-4.3379 4.3378-6.0181 4.7642-8.7603 2.2228zm-565.83-28.626c-1.3159-0.67016-1.5622-1.2444-1.4019-3.268 0.10697-1.3502-0.1241-3.0503-0.51351-3.7779-0.3894-0.72762-1.1313-4.1424-1.6486-7.5884-0.84154-5.606-1.4584-7.4034-4.446-12.956-0.67009-1.2454-0.61672-1.9368 0.29748-3.8539 0.61274-1.2849 1.5798-2.5149 2.149-2.7334 2.8358-1.0882 6.607 7.0149 7.5099 16.137 0.36104 3.6473 0.70256 4.6658 1.6239 4.8424 0.80285 0.15391 1.1667-0.20031 1.1667-1.1359 0-0.74778 0.41353-2.3448 0.91895-3.5489 0.50542-1.2041 1.4766-3.9803 2.1581-6.1693 0.68156-2.189 1.9005-4.739 2.7088-5.6667 1.3884-1.5934 1.5707-1.6313 3.2986-0.68536 1.3312 0.72874 2.0501 1.8681 2.6414 4.1857 0.44678 1.7514 1.2912 3.9153 1.8766 4.8086 0.58533 0.89332 1.0642 2.0848 1.0642 2.6477 0 0.58749 0.58245 1.0234 1.3674 1.0234 1.3766 0 3.2993-3.3334 3.2993-5.72 0-0.60289 0.95739-3.1625 2.1275-5.6881 1.7401-3.7557 2.4104-4.5919 3.681-4.5919 1.0004 0 1.8176 0.57984 2.2955 1.6287 0.6221 1.3653 0.4449 2.1971-1.0958 5.1436-3.3283 6.3652-6.3415 16.825-6.3415 22.013 0 2.2576-1.3297 4.5479-2.6404 4.5479-0.29986 0-1.1524-0.525-1.8946-1.1667-0.97575-0.84365-1.626-2.8279-2.3485-7.1667-0.91933-5.5205-3.7067-12.333-5.0461-12.333-1.462 0-2.7301 2.1204-3.3581 5.6149-0.39024 2.1715-1.1602 4.636-1.7109 5.4765s-1.0014 2.3686-1.0014 3.3955c0 2.4684-2.0851 6.2685-3.7846 6.8972-0.7745 0.2865-2.0406 0.15296-2.9524-0.31142zm580.85-12.132c-0.83153-0.58245-3.3733-1.8143-5.6483-2.7375-4.4469-1.8044-5.1104-2.407-5.1262-4.6551-0.012-1.6932 2.8963-4.2151 4.8607-4.2151 0.7468 0 3.3208 0.78533 5.72 1.7452 9.0437 3.618 11.168 6.1153 8.0497 9.4624-1.6453 1.7661-5.6169 1.9683-7.8559 0.40004zm-20.118-8.7413c-0.55-0.19894-1.9-0.75288-3-1.231s-3.0488-1.0817-4.3307-1.3413c-3.6575-0.74078-6.6787-2.4324-7.0604-3.9535-0.89907-3.5821 3.4933-7.7118 7.2101-6.7789 1.3903 0.34892 4.4244 2.376 7.7124 5.1526 0.62693 0.52948 1.1087 0.52772 1.7522-7e-3 1.1295-0.93741 4.0331 0.0851 4.6255 1.6289 1.3565 3.5348-0.543 7.0239-3.7802 6.9439-1.1709-0.0289-2.5789-0.2154-3.1289-0.41434zm-25.576-9.875c-1.0503-0.54526-2.4045-0.9914-3.0094-0.9914-4.2525 0-12.748-5.3844-12.748-8.0796 0-1.6136 3.2105-5.2537 4.6337-5.2537 0.64994 0 3.7425 1.2 6.8723 2.6667 3.1298 1.4667 6.4518 2.6667 7.3823 2.6667 2.4309 0 4.8631 1.0568 5.3495 2.3245 0.48347 1.2599-0.8694 4.1816-2.6694 5.7649-1.9308 1.6984-3.7373 1.9788-5.8111 0.90201zm-25.463-9.3035c-0.71173-0.53833-1.6633-0.98833-2.1145-1-1.7474-0.0451-12.198-5.4762-12.838-6.6716-1.1645-2.1758-0.74386-4.3679 1.1944-6.2249 2.1397-2.0499 3.2059-2.194 5.8873-0.7955 1.0503 0.54774 2.3595 1.0044 2.9095 1.0148 0.55 0.0104 1.75 0.60559 2.6667 1.3226 0.91666 0.71702 2.2313 1.3104 2.9213 1.3185 1.6649 0.0197 5.5939 2.4862 6.4204 4.0306 1.1114 2.0766 0.7508 3.3584-1.6084 5.7176-2.5041 2.5041-3.5149 2.7434-5.4393 1.2879zm-537.63-1.0212c-1.8008-1.8008-1.677-4.1761 0.40242-7.7244 1.4103-2.4066 1.6612-3.4912 1.3381-5.7854-0.21873-1.5529-0.68889-6.2735-1.0448-10.49s-0.79551-8.6808-0.97691-9.9202c-0.38449-2.6272 0.85507-5.3856 3.2758-7.2898 3.187-2.5069 6.4375 0.0225 7.5522 5.8766 0.89726 4.7122 2.2832 8.6667 3.0374 8.6667 0.32522 0 0.43024-1.2009 0.23336-2.6688-0.33058-2.4646-0.15877-2.8393 2.2456-4.8973 1.4319-1.2257 2.6035-2.5577 2.6035-2.9601s0.66676-1.1986 1.4817-1.7694c3.865-2.7072 5.9115 0.0733 4.5102 6.1275-0.97257 4.2017-1.0362 23.497-0.0837 25.402 0.30207 0.60443 0.35779 1.849 0.12383 2.7656-0.34879 1.3665-0.83255 1.6667-2.6863 1.6667-1.9917 0-2.3278-0.25829-2.823-2.1692-0.49338-1.904-0.0591-7.7583 1.2551-16.919 0.19546-1.3625 0.0403-2.6118-0.35469-2.8559-0.93069-0.5752-3.3418 0.97162-3.809 2.4436-1.0195 3.2122-5.6279 3.0305-7.3448-0.28966-1.6046-3.103-2.0375-1.5704-2.4827 8.7906-0.4188 9.7462-1.0776 12.983-2.9281 14.387-1.5975 1.2117-1.9669 1.1712-3.5251-0.38697zm32.29-3.602c-0.6367-2.5368-0.67602-11.695-0.0685-15.953 0.5704-3.9973 2.1654-6.4452 4.1996-6.4452 0.92287 0 1.0031 0.42954 0.5295 2.8333-0.30706 1.5583-0.48603 5.9833-0.39773 9.8333 0.21652 9.4405-0.1571 11.333-2.2371 11.333-1.1585 0-1.739-0.45899-2.0258-1.602zm28.781-0.78583c-0.22256-0.57999-0.40466-1.4083-0.40466-1.8406 0-1.5399 4.379-5.717 7.1152-6.7872 3.1158-1.2186 3.6282-1.9732 2.8187-4.151-0.44532-1.198-1.0725-1.5-3.1152-1.5-3.1123 0-8.8187-3.3552-8.8187-5.1852 0-3.5626 7.771-10.815 11.589-10.815 2.3552 0 6.4115 2.5474 6.4115 4.0265 0 1.7291-0.902 2.1079-5.4202 2.2762-4.2109 0.15685-5.5134 0.84257-5.1423 2.7073 0.1519 0.76327 2.0005 1.7763 5.482 3.0041 5.6702 1.9997 6.3881 2.6262 6.4037 5.5883 8e-3 1.4238-0.72443 2.614-2.7674 4.5-1.5277 1.4103-3.0075 2.5643-3.2884 2.5643-0.28095 0-0.68632 0.55293-0.90081 1.2288-0.55149 1.7376-5.93 5.4379-7.9042 5.4379-0.90916 0-1.8351-0.47454-2.0577-1.0545zm-14.405-0.083c-1.9113-0.69868-4-3.1039-4-4.606 0-2.0369 1.0095-2.5286 4.7799-2.3285 2.6458 0.14042 3.4685-0.11573 4.8686-1.5158 0.92665-0.92666 1.6848-1.9617 1.6848-2.3002 0-0.94603-1.8114-2.2826-5.573-4.1119-2.1512-1.0462-3.759-2.3662-4.3186-3.5458-0.81016-1.7074-0.73393-2.1174 0.83407-4.4868 1.906-2.8802 5.9896-5.3123 8.8643-5.2796 4.3077 0.0491 5.8651 4.5194 1.8599 5.3384-3.3799 0.69105-5 1.885-5 3.6848 0 1.0081 0.45992 1.8011 1.1667 2.0115 3.4911 1.0395 6.7946 3.262 7.9004 5.3154l1.2213 2.2678-2.3108 2.404c-1.271 1.3222-3.2108 2.8706-4.3108 3.4409-1.1 0.57031-2.848 1.7447-3.8845 2.6098-1.9687 1.6432-2.1541 1.6972-3.7822 1.102zm467.41-4.6157c-0.8532-0.59757-2.747-1.3552-4.2086-1.6836-1.4615-0.3284-3.7499-1.3395-5.0853-2.2469-1.3353-0.90738-3.3617-1.6498-4.5031-1.6498-1.1639 0-2.5599-0.53545-3.1786-1.2192-1.2805-1.4149-1.4458-5.2998-0.32967-7.7495 0.6674-1.4647 1.199-1.698 3.8691-1.698 1.8707 0 4.4001 0.62038 6.393 1.568 1.8136 0.86239 5.2693 2.505 7.6794 3.6503 5.8432 2.7768 6.7692 3.8454 5.9386 6.8537-0.35986 1.3032-1.5206 2.9848-2.6227 3.7996-2.3599 1.7447-2.0405 1.7144-3.9523 0.37527zm-33.659-12.953c-4.3523-1.4452-8.3265-2.6276-8.8314-2.6276-1.3512 0-6.2552-4.6413-6.2552-5.9201 0-0.60406 1.4873-2.5192 3.305-4.2558 3.4891-3.3334 6.3911-4.1302 7.9966-2.1956 0.43906 0.52899 3.602 2.3532 7.0287 4.0539 6.4212 3.1867 9.6697 6.4274 9.6697 9.6464 0 1.147-3.4705 4.0941-4.6667 3.963-0.18333-0.0201-3.8943-1.219-8.2467-2.6642zm-446.71-8.5793c-2.2565-2.4934 1.4222-6.818 3.9883-4.6884 1.275 1.0582 1.2337 3.6124-0.0796 4.9258-1.3888 1.3888-2.4979 1.3215-3.9086-0.23736zm422.29-1.7923c-2.3833-0.91453-5.0833-1.9165-6-2.2266-4.5511-1.5396-6.8249-2.9235-8.0179-4.8803-1.7935-2.9415-1.6563-4.0771 0.73574-6.0899 2.9491-2.4815 2.704-2.5243 14.949 2.6112 1.1 0.46134 3.0785 1.1822 4.3968 1.6018 4.0393 1.2859 4.9601 4.9992 2.1052 8.4901-1.7984 2.199-3.4625 2.2996-8.1687 0.49376zm-23.98-9.6645c-0.90573-0.36147-2.5995-1.3839-3.764-2.2721s-3.4235-1.7923-5.0199-2.0092c-5.2545-0.71373-5.8684-0.97689-6.8905-2.9535-1.5397-2.9775-1.2569-5.2146 0.9366-7.4081 2.4273-2.4273 3.2287-2.4259 8.3028 0.0142 2.245 1.0796 6.1071 2.861 8.5825 3.9585 6.1286 2.7174 7.3015 5.9113 3.6398 9.9119-1.4646 1.6001-3.1309 1.8184-5.7873 0.75828zm-389.02-5.5546c-4.9574-1.6244-10.375-4.4816-11.366-5.994-0.54205-0.82728-1.7669-1.8602-2.7219-2.2953-1.4531-0.66207-1.6737-1.1044-1.3523-2.7113 0.243-1.2151 0.052-2.1957-0.52009-2.6705-0.86959-0.72169-1.2102-2.3043-2.115-9.8267-0.37631-3.1287-0.18856-3.8644 1.9568-7.6667 1.3052-2.3132 4.4221-6.3575 6.9265-8.9872 3.8179-4.009 5.2512-5.03 8.8729-6.3204 12.324-4.3912 23.37 0.79921 25.755 12.102 0.42548 2.0167 1.2189 5.4206 1.7631 7.5642 1.4549 5.7309 0.62908 10.994-2.6374 16.808-2.73 4.8594-2.6253 4.7792-12.116 9.2764-3.9784 1.8852-8.1549 2.1272-12.445 0.72143zm11.614-9.4357c2.4121-0.95261 5.5074-2.8103 6.8784-4.1282l2.4927-2.3962-0.37868-4.7051c-0.56392-7.0069-2.2204-14.096-3.865-16.54-1.3532-2.011-1.8125-2.2028-6.4328-2.6872-8.4544-0.88636-8.225-0.94868-13.411 3.6439-6.6622 5.9003-7.6406 8.8009-5.6048 16.617 1.8105 6.9512 6.3011 11.504 10.196 10.338 0.64743-0.1938 1.9271 0.0739 2.8438 0.5948 2.2146 1.2585 2.2308 1.2569 7.281-0.7376zm352.06 3.7496c-0.54694-0.3458-1.6841-0.45565-2.5269-0.24412-0.9078 0.22784-1.997-0.0235-2.6722-0.61673-1.4902-1.3092-5.9896-3.518-8.2942-4.0717-2.3917-0.57466-6.5122-4.2276-6.5122-5.7732 0-1.5465 4.1374-5.9784 5.5811-5.9784 0.5997 0 2.2098 0.6 3.5781 1.3333 1.3682 0.73333 3.4071 1.3333 4.5309 1.3333 1.1237 0 2.3282 0.27362 2.6765 0.60803s2.5169 1.558 4.819 2.7191c5.2499 2.6479 6.6453 4.5285 5.4684 7.37-1.3737 3.3164-4.3241 4.7899-6.6485 3.3204zm-29.339-12.7c-0.55-0.36437-2.575-1.1311-4.5-1.7038-1.925-0.5727-3.5-1.2816-3.5-1.5754 0-0.29378-1.1783-0.72257-2.6184-0.95285-1.7038-0.27245-3.101-1.0322-4-2.1751-1.7175-2.1835-1.7449-3.6473-0.10604-5.6694 1.9346-2.387 7.371-2.1749 11.768 0.45914 1.8058 1.0819 4.4848 2.567 5.9534 3.3003 2.3354 1.1662 2.6966 1.655 2.881 3.8987 0.33245 4.0456-2.8401 6.4306-5.8775 4.4184zm-27.076-11.854c-1.5084-0.62118-3.2067-1.5189-3.7738-1.995-0.56717-0.47608-2.0905-1.0375-3.3852-1.2476-4.462-0.72407-6.3405-4.15-4.0605-7.4051 1.187-1.6946 3.9601-1.9644 5.9805-0.58175 0.72326 0.49497 3.4328 1.5362 6.0211 2.3139 3.8472 1.1559 5.0898 1.8914 6.8083 4.0298l2.1021 2.6158-1.6098 1.737c-1.884 2.0328-4.0878 2.1782-8.0827 0.53305zm183.85-87.463c0-0.91667 0.15133-1.2917 0.33627-0.83333 0.18493 0.45833 0.18493 1.2083 0 1.6667-0.18494 0.45833-0.33627 0.08333-0.33627-0.83333zm147.13 708.96c0.12987-0.11487 0.12987-0.5128 0-0.88427s-0.98613-0.0715-1.9028 0.6668l-1.6667 1.3422 1.6667-0.45793c0.91667-0.25187 1.7729-0.55194 1.9028-0.6668zm-14.148-283.73c4.4485 0.12656 8.2442-0.0235 8.435-0.33334 0.5674-0.92145 0.66787-14.588 0.17567-23.897-0.64713-12.238-0.58633-47.094 0.0919-52.667 0.3236-2.6596 0.31206-5.9569-0.0267-7.6667-0.32707-1.65-0.5244-7.2-0.43853-12.333 0.19326-11.549 0.22506-10.373-0.649-24-0.793-12.363-0.79827-12.529-0.61407-19.333 0.0695-2.5667 0.1212-6.1667 0.115-8-7e-3 -1.8333-0.0313-18.783-0.0553-37.667-0.062-48.417-0.30467-56.676-1.6869-57.45-1.3936-0.77986-1.4189-2.3065-0.0507-3.0721 0.81974-0.45876 1.1794-2.4815 1.6357-9.1998 0.32166-4.7364 0.77646-9.5376 1.0107-10.669 0.739-3.5708-0.43426-4.0523-11.162-4.5812-10.522-0.51874-12.914-0.0718-13.568 2.5351-0.22227 0.88561-0.0873 6.3712 0.29993 12.19 0.66434 9.9824 0.6322 10.679-0.56926 12.325-0.83734 1.1476-1.0482 1.9704-0.61574 2.4029 0.7154 0.71538 1.5506 28.015 1.1581 37.852-0.3378 8.4634-0.22647 17.468 0.3214 26 0.25893 4.0333 0.5924 13.933 0.74093 22 0.14854 8.0667 0.48667 24.267 0.75134 36 0.26466 11.733 0.55013 26.283 0.63433 32.333 0.0841 6.05 0.5176 12.927 0.96327 15.283 0.57213 3.025 0.61993 5.3752 0.1626 8-0.3562 2.0442-0.45987 6.8667-0.23047 10.717s0.17667 8.95-0.1172 11.333c-0.29393 2.3833-0.35773 7.1833-0.14193 10.667 0.21586 3.4833 0.41533 11.812 0.44333 18.509 0.044 10.538 0.19767 12.261 1.1419 12.808 0.60007 0.34746 1.691 0.41832 2.4243 0.15746 0.73333-0.26085 4.973-0.37072 9.4215-0.24416zm-16.479-28.671c-0.52673-0.98413-0.93693-1.2417-1.1171-0.70135-0.29273 0.87817 1.1337 3.0724 1.6571 2.549 0.1608-0.16078-0.0822-0.99224-0.54-1.8477zm-175.61-419.23c0.5246-0.84879-1.0199-0.84879-2.3333 0-0.813 0.52539-0.72687 0.64816 0.46067 0.65646 0.80333 0.0056 1.6461-0.28979 1.8727-0.65646zm292.33 342.19c-3.7475-1.3779-4.1411-4.1196-1.6466-11.47 1.3146-3.8737 1.5434-5.388 1.0576-7-0.341-1.1314-0.6627-3.9047-0.7149-6.1629-0.083-3.5725 0.1017-4.2437 1.4195-5.1667 2.0285-1.4208 3.3916-1.3363 4.3963 0.27259 0.458 0.73333 1.2337 1.3333 1.7237 1.3333 0.4901 0 1.434-0.6 2.0977-1.3333s1.7901-1.3333 2.5033-1.3333c1.785 0 5.83 4.1959 5.83 6.0475 0 2.4253-1.784 3.9037-4.2314 3.5066-2.5597-0.41538-4.057 1.0091-4.6732 4.4459-0.2301 1.2833-0.7076 3.6833-1.0612 5.3333-0.3535 1.65-0.6558 4.3727-0.6718 6.0505-0.041 4.3434-2.6547 6.7173-6.029 5.4766zm19.626-1.0208c-0.7112-0.37856-1.9681-1.2996-2.7931-2.0468-4.4064-3.9907 1.5116-21.305 8.0491-23.549 1.4021-0.48126 3.3919-1.7771 4.4218-2.8797 2.7306-2.923 5.0122-3.615 8.512-2.5817 2.6104 0.77079 2.9208 1.0889 3.2851 3.3675 0.2213 1.384 0.5197 2.5164 0.6629 2.5164 0.1434 0 1.98-1.3498 4.0815-2.9996 3.1272-2.455 4.3214-2.9997 6.5776-3 2.1945-3.3e-4 2.9762 0.33465 3.8333 1.6428 2.467 3.7651 0.2652 10.346-3.4687 10.367-2.3617 0.0135-3.1584 0.61831-3.6931 2.8039-0.2442 0.99774-1.0404 2.1333-1.7694 2.5234-0.9458 0.50623-1.3254 1.3964-1.3254 3.1086 0 4.9732-2.6068 10.221-5.0773 10.221-0.5639 0-1.9398-0.91449-3.0575-2.0322l-2.0322-2.0322 0.462-5.9062c0.4947-6.3232-0.4222-11.363-2.0672-11.363-0.492 0-0.9184 0.375-0.9476 0.83333-0.029 0.45833-0.1142 2.6333-0.1888 4.8333-0.1998 5.8846-2.4765 10.508-6.6985 13.604-4.2057 3.0833-5.1367 3.4368-6.7665 2.5693zm6.7516-11.481c1.3908-2.1226 2.0956-7.0254 1.01-7.0254-1.3976 0-4.5476 1.9188-4.9739 3.0299-0.6967 1.8155-0.4655 3.4902 0.6335 4.5892 1.4351 1.4351 2.0759 1.3208 3.3304-0.59365zm12.289-14.359c0-0.36667-0.3-0.66667-0.6666-0.66667-0.3667 0-0.6667 0.3-0.6667 0.66667 0 0.36666 0.3 0.66666 0.6667 0.66666 0.3666 0 0.6666-0.3 0.6666-0.66666zm-92.761 24.204c-1.8904-2.1975-1.9349-2.7475-0.51227-6.3226 2.4861-6.2474 3.2587-9.4534 3.2661-13.553 7e-3 -2.2024 0.30206-5.0326 0.66246-6.2892 1.329-4.634-1.1928-3.3957-3.9921 1.9602-1.0539 2.0167-2.6093 5.4354-3.4564 7.5972-2.7523 7.0242-5.8663 7.2856-6.2135 0.52158-0.23666-4.6108-0.58546-5.4521-2.2604-5.4521-1.4299 0-2.7329 3.802-2.7329 7.9744 0 1.6716-0.50534 3.5403-1.241 4.5893-0.68254 0.97326-1.434 2.8299-1.6699 4.1259-0.81907 4.4992-4.0111 6.7884-6.2891 4.5104-1.2425-1.2425-0.95867-5.4852 0.49013-7.327 0.7096-0.90208 2.3657-3.9062 3.6803-6.6757 2.1685-4.5685 2.4199-5.703 2.7106-12.231 0.24147-5.4226 0.592-7.496 1.4225-8.4137 0.78986-0.87276 1.0673-2.283 0.97933-4.9771-0.137-4.1915 1.0473-6.2417 3.6054-6.2417 2.9013 0 3.692 2.6012 4.5107 14.839 0.28387 4.2425 1.2255 5.1028 3.0485 2.7853 0.78053-0.99226 1.4191-2.1769 1.4191-2.6326s0.41254-1.1709 0.9168-1.5893c1.0341-0.85822 2.0679-5.4848 1.8315-8.1965-0.20653-2.369 1.5953-5.7539 3.5328-6.6367 2.0458-0.93211 4.0237 0.13066 5.4783 2.9436 1.8562 3.5894 1.3941 16.612-0.54693 15.413-0.45933-0.28391-0.54353 0.44853-0.25067 2.1818 0.2424 1.435 0.13074 3.9927-0.24826 5.6837-0.37894 1.691-0.72047 6.677-0.759 11.08-0.064 7.2986-0.19727 8.1242-1.5123 9.3512-2.1599 2.0156-4.6262 2.4284-5.87 0.9825zm-11.139-26.538c0.0547-0.91666 0.13-1.9667 0.16666-2.3333 0.0367-0.36667-0.23333-0.70801-0.6-0.75853-0.9104-0.12546-2.2999 2.7366-1.8711 3.854 0.58987 1.5371 2.1984 1.0051 2.3045-0.76218zm46.205 25.636c-1.1775-1.3011-1.1863-1.6481-0.1897-7.4815 0.7329-4.2897 0.8522-6.6703 0.3996-7.969-0.3551-1.0185-0.8412-1.8517-1.0804-1.8515-1.0233 6.7e-4 -6.0062 6.6399-7.5878 10.11-2.7506 6.0346-5.7747 7.1816-9.232 3.5015-1.4151-1.5062-1.5959-2.3172-1.5961-7.1552-2e-4 -6.7211 1.9239-15.534 3.5856-16.423 1.5645-0.8373 3.607-0.2484 4.5883 1.3229 0.6445 1.032 0.4662 2.2852-0.9495 6.6741-1.2039 3.7326-1.529 5.6175-1.0512 6.0952 0.3804 0.38041 1.0213 0.48795 1.4242 0.23895 1.188-0.73426 5.3818-7.6224 5.4048-8.8774 0.032-1.7455 1.5602-3.4104 3.8685-4.2152 1.6426-0.57262 2.5111-0.50297 4.1934 0.33629 3.1188 1.5558 3.6837 1.3606 5.6189-1.9415 2.0641-3.5222 4.0866-3.9387 6.655-1.3704 1.9799 1.98 1.6927 3.0836-1.7448 6.7037-3.2841 3.4586-5.2008 9.3106-5.574 17.018-0.2733 5.647-3.8584 8.4606-6.7329 5.2842zm-14.734-35.271c-3.2848-1.3836-4.5388-5.6862-2.5041-8.5912 3.2637-4.6596 10.266-1.8494 10.266 4.1201 0 3.4467-4.3058 5.9269-7.762 4.4711z" stroke-width=".66667"/>
</svg>
