<?xml version="1.0" encoding="utf-8"?>
<svg xmlns="http://www.w3.org/2000/svg" style="fill-rule:evenodd;clip-rule:evenodd;stroke-linejoin:round;stroke-miterlimit:2" xml:space="preserve" viewBox="0 0 391 410">
	<title>A sketch of the layout of Agatha Dawson’s bedroom showing the position of a mirror through which the maids could see her sign documents.</title>
	<path d="M378 18118c-14-8-44-15-65-16-64 0-77-47-40-147 25-69 27-162 5-218-11-27-13-50-8-66 5-14 7-186 5-383-2-196-3-385-4-420 0-34 1-169 3-299 2-171-2-251-12-291-11-44-11-68-1-122 16-88 15-123-4-168-14-35-14-41 6-79 22-43 22-47-8-456-2-39 0-93 6-120 7-33 7-88 1-158-10-116-11-340-4-622 6-209 6-185 0-567-3-177-1-325 5-346 5-21 9-80 9-132s1-113 2-136c7-134-7-647-21-767-15-128-15-178 4-267 16-76 16-94 11-735-2-246-4-461-4-478 1-47 1-135-2-362-1-113 1-221 5-239 5-21 4-40-3-48-12-14-14-94-5-214 3-51 0-89-11-121-12-37-13-56-4-88 6-24 13-170 15-346 2-167 4-337 5-378 1-40-2-191-7-336-4-144-8-281-8-304 3-239 1-397-7-425-6-18-6-44-1-56 4-13 6-293 3-622s-4-622-3-651c2-29 3-74 2-99 0-75-13-922-14-998-1-38-1-94 1-126 1-32 0-117-4-189-5-106-8-721-5-845 1-18-3-81-7-142s-7-165-6-231c4-195 6-471 5-577v-210c2-219 2-281-1-394-2-58-3-115-2-126 4-62-12-955-17-963-4-6-10-58-15-117-7-90-6-110 8-125 13-14 14-25 6-47-6-16-9-98-7-181 1-84 3-167 3-184-1-93-7-217-14-263-3-29-1-109 5-178 6-70 10-136 9-147-3-36-1-71 7-144 5-50 3-89-9-136-44-179-47-219-20-243 25-23 164-43 191-28 11 6 67 13 123 15 57 3 159 8 229 12 193 10 406 10 556 1 75-5 205-11 289-13s221-7 305-11c188-9 158-9 504-1 158 3 313 10 343 13 38 5 55 3 56-5 0-15 53-14 74 2 12 9 71 12 215 9 109-2 270-3 356-2 87 1 248 0 357-1 213-2 444-1 573 2 43 0 185-2 315-7 129-4 304-6 388-4 173 4 429 6 515 3 112-4 405 3 462 11 68 10 368-8 417-25 24-9 43-9 68-1 34 12 582 17 1357 15 18 0 110-4 205-8 139-6 617-9 709-4 11 0 73-3 136-7 238-15 439-15 468 0 24 13 32 12 58-1 26-14 62-15 225-10 107 4 284 9 393 12s201 7 205 9c3 2 66-2 139-9 74-6 142-9 153-6 10 4 200 5 423 3 222-1 413-3 425-3 11 0 75-1 142-2 222-4 361-3 425 1 76 6 170-5 190-21 10-9 26-7 61 6 25 10 52 15 59 10 23-13 520-16 553-3 40 16 539 13 614-4 62-13 110-14 203-5 141 16 337 25 362 18 14-4 159-3 320 1 162 5 309 6 327 3 20-4 45 1 64 10 25 13 38 14 72 4 23-7 92-12 155-11 102 1 116 3 136 23 21 20 23 33 20 115-1 50-8 131-14 181-7 49-13 200-15 336-1 135-5 338-9 451s-6 266-6 341v384c0 135-4 308-10 383s-11 221-10 325c0 104-5 233-12 286-9 74-9 107 0 134 10 28 9 56 0 117-9 56-11 134-5 265 4 102 7 242 6 311-2 187-2 207-1 520 2 330-2 451-13 470-5 7-3 31 4 54 10 34 10 46-1 58-7 9-10 27-7 41 14 56 27 316 18 358-11 47-16 729-8 1061 3 116 0 286-5 378-6 93-10 178-9 189 2 21 11 360 11 420v168c0 75 1 156 2 179 0 23-3 252-7 509-5 257-8 493-8 525 3 289 3 534-1 1145-3 389-8 852-12 1029-3 176-8 674-10 1107-3 498-9 808-16 844-6 31-8 61-4 67 7 11 7 632-1 1057-3 195-1 278 9 310 9 30 10 52 3 70-10 27-22 250-20 369 3 124 3 168 3 286-1 220 6 389 17 416 8 18 9 54 2 109-5 49-5 100 1 126 16 70 6 382-14 428-9 21-12 41-8 44 5 3 12 82 16 176 10 215 10 220 2 486-4 122-8 425-8 674l-1 453-22 7-23 6 24 20c13 11 24 23 24 26 0 4-23 17-50 29-45 20-62 21-176 16-70-4-152-12-181-19-43-10-91-10-223 1-152 13-351 10-483-7-51-6-423-3-434 3-5 4-314 8-688 11s-698 5-721 6-120-2-215-6c-156-6-375-8-504-4-26 1-104 1-174-1-69-1-223-2-341-3-198-2-494-6-556-9h-147c-67 0-194-2-284-5-258-9-324-9-428 3-64 7-130 7-192 1-54-6-250-7-449-3-195 3-396 5-448 4s-147-1-210 0c-64 1-149 1-189 1-41-1-126 0-189 1-196 4-459 1-530-7-38-5-118-3-179 3-77 7-137 7-199-1-50-6-109-11-132-10-182 3-447 2-525-1-52-2-102 0-112 5-20 10-91 10-575 3-188-3-354-4-368-3-14 0-40 0-58-1-17-1-41-2-52-2-12 1-114 3-228 5-113 2-210 6-215 9s-53 2-108-3c-55-6-103-6-107-2-5 5-111 6-237 4-315-5-642-6-885-2-113 1-306 2-430 1-125-1-246 3-271 8-24 5-62 7-84 3s-337-6-701-5c-517 1-667-1-689-12-19-9-32-10-39-2-6 6-81 12-172 15-88 2-174 8-192 14-17 5-53 9-78 8-26-1-62 1-79 5-21 5-41 2-58-8Zm11330-110c0-6-8-11-17-11s-13 5-10 11c4 5 11 10 17 10 5 0 10-5 10-10Zm-5639-36c51-9 103-12 147-7 38 4 111 3 163-2 52-6 104-9 115-8 12 1 184 3 384 4 250 2 371 6 391 15 22 9 60 10 150 2 66-6 206-10 312-9 105 0 305-3 443-8 254-9 287-9 720-4 314 3 601-7 645-22 29-11 45-10 81 1 77 23 218 31 259 13 32-13 52-13 161 2 68 9 134 15 147 11 28-6 423-19 486-15 46 2 1209 2 1260-1 18-1 105 2 195 6 89 3 240 5 336 4 95-2 196-2 225-2 29 1 152 3 273 5 122 3 234 8 250 13 24 7 35 4 54-15 23-21 29-22 81-12 58 12 719 27 1199 28 229 0 272-3 281-16 7-10 8-41 3-84-5-38-8-153-8-257 2-393 2-921 1-1113-2-179 0-201 17-223 16-20 17-28 6-41-15-18-17-166-7-516 5-184 9-229 24-251 16-24 16-28 1-45-10-10-17-25-17-35 0-38-26-46-133-43-186 6-218 10-266 33-63 30-85 29-119-6-34-36-36-73-8-157 20-59 49-313 45-396-1-23-3-97-5-164l-2-122-37 19c-20 11-55 20-79 20-29 0-56 10-88 32-54 36-56 36-91 14-19-12-25-26-25-52 0-37 21-57 59-57 58-1 59-62 1-89-19-9-51-28-71-42s-48-33-61-43c-76-53-27-156 53-111 16 9 29 20 29 24 0 5 22 23 48 41 27 18 72 54 100 79 29 26 63 47 76 47s33 6 44 15c12 8 28 15 38 16 15 0 17-46 16-517-1-285 3-598 8-696 6-121 5-222-3-315-9-100-9-164-1-241 6-58 14-209 18-336 6-228 6-260 3-373-1-32 0-145 3-252s4-213 3-236c0-23 1-85 3-137 6-146 7-284 1-402-7-140-8-138 159-138 77 0 126 4 130 11 9 13 161 2 180-14 15-11 12-144-3-167-5-8-10-40-11-72-3-142-1-377 4-420 3-26 7-236 9-467s7-454 11-494c5-54 2-94-10-142-15-60-15-77-2-153 12-69 13-134 6-336-11-301-8-475 10-508 10-19 10-37 2-78-7-29-15-67-19-85-3-17-6-45-6-63 3-170 7-1108 5-1197-2-63-2-134-1-157s1-94-1-158c-1-63 3-177 10-251 11-129 11-137-8-153-35-28-37-51-7-79l28-26-9-281c-5-154-8-300-7-323s1-63 0-89c0-26 0-78 1-115 1-38 3-142 4-231 2-90 6-168 10-175 4-6 0-51-9-100-14-75-15-115-6-271 6-102 8-395 6-651-3-257-5-480-4-494 0-14 2-111 4-215 3-104 7-204 12-223 4-20 0-60-10-99-12-50-14-76-6-103 6-21 11-72 11-114 0-50 6-88 17-109 17-33 16-138-3-310-4-39-1-64 11-88 21-42 21-55 1-114-12-34-16-84-15-200 2-96-2-168-10-192-11-33-10-44 6-78 21-44 21-35 14-470-3-150-1-284 3-297 7-18 3-29-19-51-24-24-32-27-71-19-35 6-451 16-637 15-21-1-86 0-145 0-59 1-135-4-168-10s-91-11-128-10h-105c-21 0-205 1-410 1-205 1-394 1-420 0-26 0-156-1-289 0h-624c-182 1-345 1-363 0-187-3-343 0-373 9-24 7-73 6-150-1-62-7-120-9-127-6-8 3-179 5-380 5h-408c-113 1-843 2-1292 2-277 0-570 2-651 5-194 6-1786 16-3386 21-707 3-1305 5-1328 6s-245 2-494 2c-248 1-487 1-530 1-43 1-159 0-257-1-187-2-533 3-819 13-211 7-188 7-459 1-125-2-232-7-237-10-18-11-268 12-282 27-12 12-15 116-15 586 0 314 3 659 6 766 8 266 5 571-10 1105-7 217 1 262 48 275 14 4 34 11 46 16 46 18 97 35 151 50 32 8 67 22 79 30s27 15 35 15 52 19 100 42c47 23 96 42 109 42s74 25 137 56c128 64 165 78 238 93 28 5 88 31 133 57 45 27 102 52 127 57 25 6 76 24 114 41 38 16 97 40 131 51 35 11 85 29 111 39 25 10 75 25 110 32 136 30 168 39 184 51 40 34 120 71 236 109 69 23 161 57 205 74 43 18 91 35 106 38 16 3 43 18 62 33 20 18 53 32 86 37 79 12 223 56 362 110 35 14 73 25 84 25 24 0 135 112 142 144 6 26-21 69-55 87-16 8-32 5-71-14-27-14-76-37-107-52-32-15-91-43-132-63-40-19-135-55-211-80-77-25-149-55-162-67-24-23-93-52-170-71-21-6-74-27-118-47-43-20-85-37-94-37-8 0-18-5-22-11-5-7-24-9-52-5-39 6-46 4-61-19-18-27-177-111-209-112-20 0-93-25-134-46-15-8-46-20-69-27s-65-24-94-37c-70-32-318-121-338-121-8 0-35-13-59-29s-63-35-86-43-66-25-95-38c-29-14-76-30-104-36-29-7-67-21-86-33-18-11-42-20-52-20-11 0-48-14-82-32-35-17-79-31-100-31-24 0-76-19-143-52-137-67-190-83-209-63-18 18-19 94-13 614 3 196 1 409-4 473-5 71-5 132 2 158 9 36 25 564 20 671-5 116-2 351 6 472 4 75 7 153 6 174-1 20-4 98-8 173-3 75-6 146-6 157 0 12 3 198 6 415s8 446 11 509c3 64 5 269 4 457v373c4 377 3 466-8 485-8 17-8 37 1 78 7 31 13 104 14 161 4 372 5 518 4 625-1 66 2 227 6 357 7 248 12 880 8 1050-1 55-2 119-1 142s-1 145-4 271c-4 126-2 243 3 261 7 23 5 47-7 82-14 44-14 56 0 109 11 45 13 82 6 160-5 68-5 109 3 126 8 19 8 36-2 67-12 35-12 49-1 83 10 31 11 53 3 83-6 26-7 93-2 177 4 74 5 170 3 214-6 90-7 136-6 225 1 35 2 93 2 129s0 86 1 110c0 25-3 87-7 139-8 130-8 126 1 321 5 95 8 189 8 210-1 20-1 58 0 84 4 127 2 420-8 777-5 216-9 412-8 435s3 164 5 312c2 162 7 274 14 280 6 7 8 65 3 161-4 82-5 153-2 158 3 4 4 108 4 231-3 407-2 566 4 990 9 609 12 728 21 795 8 54 13 63 47 84 36 22 45 23 278 20 133-1 245-4 249-7s45 1 90 8c51 8 83 9 85 2 13-36 23-41 45-20 22 20 37 21 397 17 206-2 401-3 433-1 31 2 83 3 115 2 177-4 429-2 452 3 15 3 39 2 53-3s37-6 52-3c14 4 42 1 62-8 23-9 49-12 73-7 21 5 78 7 127 6s314-1 588 0 513 2 530 1h147c64 1 165 0 226-1s122-2 137-3c14 0 243 3 509 6 531 7 814 14 822 22s20 7 107-9Zm8852-1739c0-6-5-10-10-10-6 0-13 4-17 10-3 6 1 11 10 11s17-5 17-11Zm-71-1042c13-15 17-31 13-48-4-14-11-87-16-163-6-76-15-140-21-142s-16-12-22-24c-8-16-6-21 13-28 22-9 23-15 26-176 9-420 11-1040 3-1050-4-6-3-32 3-57 6-26 7-78 3-115-3-38-5-88-4-111s2-75 0-115c-3-104-3-106 9-310 7-101 10-224 9-273-4-120 0-237 10-294 4-26 4-80-1-121-10-86-11-633-1-829 7-152 6-363-3-377-4-5-61-7-131-3-73 4-133 3-144-3-13-7-25-5-39 5-20 13-21 29-25 275-2 143-3 282-3 308 2 39 2 116 1 357 0 14 4 59 8 100 5 56 3 89-11 135-9 33-14 73-11 89 3 15 1 240-6 500-6 260-13 600-15 756s-8 319-15 362c-7 51-8 134-3 233 5 85 5 227 0 315s-6 204-3 256c5 80 4 98-10 109-15 13-15 16 5 37 21 22 21 28 10 197-12 188-9 211 35 228 13 5 89 7 170 4 135-4 149-6 166-27Zm-370-3793c0-9-2-16-5-16-2 0-6 7-10 16-3 8-1 16 4 16 6 0 11-8 11-16Zm483-4909c0-6-5-10-10-10s-18-3-29-7c-18-5-18-4 1 11 23 19 38 21 38 6Z" style="fill-rule:nonzero" transform="matrix(.02286 0 0 -.02286 -3.395 414.368)"/>
	<path d="M5156 17750c-35-56-107-136-136-152-23-12-190-215-190-230 0-6-26-32-58-59-39-34-77-82-118-151-34-57-87-128-123-164-35-34-86-97-114-138-27-42-63-87-78-100-31-27-97-107-115-139-6-10-28-39-49-63-106-119-176-214-187-250-6-22-18-39-25-39-8 0-47-40-88-89s-79-92-85-96c-10-6-41-49-85-119-10-15-32-44-51-64-18-20-56-65-85-100-74-89-104-120-114-120-5 0-19-21-32-45-13-25-51-71-85-103-66-63-72-82-51-145 7-17 21-35 32-39 12-3 35-31 52-62 17-30 41-64 52-74 12-10 21-23 21-29s21-33 47-61 48-55 48-61c-1-5 20-22 45-36 48-28 79-64 126-145 15-27 41-60 57-72 29-23 93-106 124-161 9-17 38-56 63-87 26-32 55-75 67-96 11-22 48-66 83-100 35-33 72-73 82-89 37-59 141-218 150-229 5-7 20-21 34-32 13-11 37-36 52-56 15-21 59-69 96-107 38-39 83-98 101-131 17-34 51-77 74-96 37-31 43-40 43-79 0-25-10-61-21-81-68-119-139-271-141-299-1-19-9-45-19-60-24-36-50-100-43-107 3-3 12-3 20 1 8 3 15 1 15-5s-11-13-25-17c-33-8-60-49-104-153-83-200-106-248-123-268-10-12-26-50-37-84-27-90-48-139-87-204-19-32-34-64-34-71 0-8-16-46-36-85s-42-94-49-123-26-71-43-94c-16-23-29-46-29-52s-10-21-22-33c-23-25-62-131-84-225-13-59-40-116-54-116-20 0-55-72-62-127-7-58-35-128-86-214-14-23-28-56-33-73-4-17-19-45-33-61-30-36-33-82-7-105 30-26 128-71 155-71 29 0 79-21 79-33 0-15 109-90 152-105 46-15 119-60 141-88 8-9 32-26 52-36 21-11 73-46 117-78 43-32 85-59 93-59s46-33 86-73c39-41 76-74 83-74 6 0 32-16 56-36s72-52 107-70c78-41 193-126 274-203 34-32 65-58 69-58 3 0 26-17 50-37 25-20 50-37 56-37 15 0 73-40 179-121 45-34 101-75 125-90 23-16 47-35 51-44 5-8 35-28 67-45 32-16 77-47 100-69 23-21 64-54 92-73 27-19 71-52 98-74 33-28 58-40 80-40 40-1 83 35 93 74 5 24-1 34-40 66-48 41-124 90-219 143-33 18-65 44-71 58-6 15-16 26-21 26-19 0-22 33-5 58 33 52-18 80-66 35l-23-22-41 22c-22 11-56 29-76 38-21 9-65 42-99 73-33 31-78 65-99 76-21 10-55 33-75 49-19 17-48 36-64 42-15 7-48 28-74 47-61 45-232 159-283 187-23 13-57 39-76 58-39 38-120 98-170 126-18 9-55 39-84 65-29 27-57 49-62 49-14 0-153 95-153 104 0 4-26 20-58 36s-74 49-94 73c-20 25-59 56-87 70-27 14-80 45-116 68-61 39-68 47-83 99-15 53-15 60 1 86 9 16 17 39 17 51-1 30 30 107 53 132 31 36 62 99 73 150 6 27 24 78 40 113 17 34 45 103 64 152s50 122 69 163c69 146 87 190 101 236 7 26 32 80 53 120 22 39 40 74 40 78 0 3 6 13 14 22 7 9 22 43 31 75 10 33 46 115 81 183s63 133 63 143c0 30 50 147 73 171 27 29 63 116 64 151 0 16 9 40 21 55 11 14 20 32 20 39 0 8 12 35 27 61 14 26 26 59 26 72 0 14 11 39 25 55 13 16 27 45 31 63 3 19 23 55 42 81 51 67 55 96 24 168-15 32-30 59-35 59-13 0-78 65-129 131-26 33-84 105-129 160s-100 129-123 164c-22 36-49 74-59 85-53 58-107 132-128 174-13 26-59 85-102 131s-79 86-79 89-20 27-44 53c-25 26-69 83-98 127-29 45-70 101-91 126-52 62-116 145-192 246-34 46-94 120-133 164-40 45-71 91-71 102 0 12 21 44 47 71 26 28 47 54 47 58s16 26 36 50 40 54 44 67 17 35 29 49c43 49 136 137 145 137 4 0 20 18 34 39 14 22 36 52 50 67 13 16 36 48 51 72 14 25 43 65 65 91s40 52 40 57 41 51 91 102c96 95 132 141 145 183 4 13 22 37 39 52 49 45 82 95 82 126 0 22 3 28 16 23 22-8 67 36 127 127 61 92 130 177 250 305 32 35 58 66 58 70 0 7 144 174 188 218 12 12 31 41 44 66 28 56 117 160 156 183 87 52 71 162-23 162-23 0-36-10-60-48Zm-525-4630c0-9-5-16-10-16s-15 7-22 16c-11 13-9 16 9 16 13 0 23-7 23-16Z" style="fill-rule:nonzero" transform="matrix(.02286 0 0 -.02286 -3.395 414.368)"/>
	<path d="M9151 17724c-4-6-22-19-40-28-30-16-88-19-469-23-562-6-520-6-602 1-67 5-73 4-81-17-19-52-71-62-59-11 9 34-21 49-68 36-20-6-65-10-101-10-37 0-75-6-87-13-16-10-24-10-39 3-16 14-44 15-181 8-98-4-182-3-210 3-32 7-55 6-74-2-18-7-42-8-69-2-24 6-213 6-451 0-225-5-433-7-462-3-29 3-90 7-136 9s-118 8-158 12c-103 11-137-6-147-74-4-26-5-63-2-82 3-18 2-54-3-79-4-24-3-81 3-125 12-95 11-159-4-216-6-22-8-64-4-92 6-43 11-51 30-52h22l-22-9c-32-13-38-81-24-255 9-107 9-169 0-237-7-61-8-112-1-152 6-40 6-71-2-93-7-21-8-62-3-118 16-158 8-1468-9-1495-5-8-1-43 8-79 13-52 14-88 8-175-10-128-9-275 6-468 6-85 6-146 0-162-5-15-8-83-7-153 2-76-1-140-9-162-8-26-10-77-4-168 4-73 4-149 0-169-5-21-8-129-7-242s-4-242-11-291c-7-48-10-101-7-117 8-35 18-462 21-893 2-282 0-313-17-349-22-45-26-92-8-92 9 0 11-38 6-138-5-114-3-143 11-170 30-61 49-60 152 1l66 38 221 2c121 1 241-3 266-9 33-8 57-7 89 3 60 19 373 22 445 4 37-9 66-10 90-3 20 5 52 9 72 9 19 0 90 2 156 4 66 3 126 1 132-4s39-5 77 0c60 9 290-2 302-14 3-2 22 0 43 6 22 5 280 13 575 16 619 6 567 6 662 3 83-3 120 5 120 26 0 7 7 27 16 44 25 48 30 96 16 170-10 54-10 90-1 159 7 49 16 129 20 179 4 49 13 99 20 111 9 16 9 33 1 62-7 27-9 148-4 361 9 439 10 661 3 988-4 153-9 576-12 940s-8 697-11 740 0 140 6 215 11 149 10 163c0 14-3 310-5 656-2 347-7 668-11 714-12 135 17 172 94 121 17-11 37-21 45-21 7 0 27-10 43-22 42-31 77-23 89 20 13 45-17 88-68 98-97 18-155 49-180 93-17 31-19 49-13 116 8 89 8 86 5 346-2 227 4 396 14 406 11 11 8 109-4 153-13 49-61 79-78 50Zm-192-80c9-8-2-35-14-35-5 0-9 9-9 21 0 20 11 27 23 14Zm-2990-83c18-2 48-8 69-13 20-5 50-8 68-6 17 1 68 6 114 10 53 4 108 2 153-6 56-11 111-11 264-2 106 7 222 11 256 10 35-1 92-2 126-1 35 2 203 2 373 2 173 0 344 5 388 11 56 8 87 8 112 0 23-7 41-8 54-1 12 7 63 5 150-5 159-18 139-17 213-8 45 5 76 2 123-12 58-17 65-18 107-1 58 22 143 22 174 1 13-9 28-14 34-10 11 7 185 19 294 20l57 1 3-131c2-73-2-163-7-200-8-47-8-91 0-135 12-77 13-305 4-946-3-257-5-487-4-510 4-50 1-217-6-462-4-141-2-186 10-217 11-28 14-72 12-161-3-107-6-125-25-144-16-15-29-19-48-15-32 8-54 43-42 64 15 26 0 237-17 247-37 23-78-21-90-97-8-50-22-50-36 1-15 55-44 80-84 72-50-10-147-77-147-101 0-11-18-52-39-90-30-55-42-68-60-66-34 5-35 51-2 90 34 40 27 66-20 66-45 0-86-34-101-84-16-55-5-91 33-111 26-13 32-22 29-45-3-22-15-33-59-54-47-23-55-30-52-53 2-17 12-29 31-36 23-8 37-3 85 29 31 21 64 49 73 63 17 25 42 37 119 58 37 10 47 19 72 70 23 45 28 65 22 95-6 33-4 37 12 34s20-16 22-82c4-133 11-144 65-104 36 27 64 20 64-16 0-15 8-31 20-37 26-14 81-14 90 0 3 5 21 10 38 10h32l-6-76c-22-282-22-282-12-837 9-485 9-520 2-683-4-72-6-136-6-142s3-72 6-147c8-215 4-446-8-469-8-14-8-30-1-49 10-23 10-271 2-658 0-29 5-118 11-199 14-175 18-303 9-329-6-16-31-18-284-19-152-1-291-2-308-3-46-1-263 7-415 15-157 8-356 10-455 3-40-3-106-1-147 4-96 12-108 12-222 0-70-7-106-6-139 4-36 10-52 10-84-1-28-9-88-12-197-9-87 2-172 5-189 5-115 3-702-10-741-16-77-12-77-12-75 275 1 137 4 339 7 449 3 109 1 254-3 320-5 66-6 154-3 194 3 41 2 106-3 145-7 55-6 80 7 115 13 36 15 87 12 271-2 124-6 235-9 247s-2 45 3 74c12 74-6 707-21 735-7 15-8 29-1 42 13 25 19 308 10 545-3 98-2 230 4 294 6 74 5 129-1 152-7 24-7 75 0 150 8 83 8 119-1 136-16 30-11 621 7 838 4 49 6 105 5 126-3 49-9 378-16 824-3 202-6 379-7 394 0 14 1 68 3 120s-1 116-6 141l-9 46 62-7c34-5 76-10 93-12Zm2727-2827c8-31-10-65-33-65-28 0-38 25-23 58 13 30 49 34 56 7Zm-2259-3882c16-10 20-15 9-16-8 0-20 4-26 10-5 5-26 11-46 14l-37 4 37 1c20 1 48-5 63-13Z" style="fill-rule:nonzero" transform="matrix(.02286 0 0 -.02286 -3.395 414.368)"/>
	<path d="M7366 17362c-18-8-40-17-50-20s-23-18-29-33c-6-14-22-32-36-38-46-21-110-148-127-250-9-56 19-167 59-232 64-105 93-132 159-151 33-10 63-22 66-28 4-5-5-35-19-65-14-31-29-73-33-95s-18-61-32-86c-14-26-28-62-32-81-8-35-49-115-77-147-34-41-131-8-180 62-39 56-74 87-104 94-15 3-40 12-56 21-40 21-197 18-238-5-58-33-98-76-118-128-34-91-25-118 75-218 37-36 146-87 174-80 26 7 94-19 125-47 40-37 88-55 111-43 76 41-55 172-203 203-103 22-139 59-127 131 6 41 7 42 60 49 30 5 76 9 102 9 51 2 48 3 176-100 65-53 161-103 199-103 24 0 98 76 135 141 50 84 93 203 109 300 13 78 45 156 70 171 8 5 19 18 25 29 17 31-4 58-55 71-89 23-137 57-168 118-15 32-28 65-29 74 0 10-10 30-23 45-15 20-20 37-16 57 3 15 10 51 15 78 6 28 20 61 32 75 13 13 23 34 23 47 0 18 11 29 46 44 38 17 57 19 115 12 47-6 78-16 94-30 13-12 42-32 65-43 40-20 111-94 111-116 0-6 9-31 20-56 28-61 27-81-6-95-22-10-25-18-20-39 3-15 9-49 12-74 3-26 10-58 16-70 10-19 4-33-31-84-23-34-52-71-65-83-52-45-59-84-46-229 12-138 13-141 79-212 75-80 114-152 114-208 0-42 5-56 31-81 33-33 69-39 99-17 40 29 32 152-16 246-11 21-19 45-19 52 0 8-16 24-36 35-48 29-105 113-138 207l-20 56 25 47c13 26 28 47 33 47 9 0 94 123 94 137 0 10 4 20 35 81 14 28 15 44 7 75-7 23-7 51-1 71 5 19 5 50 0 73-5 22-10 57-10 77 0 42-40 133-70 160-73 66-119 102-156 120-23 11-56 28-73 37-100 53-187 65-252 35ZM8106 17030c-18-32-7-48 52-78 30-15 64-37 76-49 25-25 81-39 158-40 28 0 50-4 50-10 0-5 11-13 24-17s33-16 45-27c27-25 57-16 57 17 0 45-127 153-181 153-12 0-30 6-39 14-16 15-176 59-212 59-10 0-24-10-30-22ZM8699 16806c-31-32-32-48-5-82 14-18 36-30 66-34 47-8 172-53 194-71 17-14 66 17 65 42 0 29-11 40-73 71-32 15-65 35-73 42-16 13-123 57-140 57-5 0-20-11-34-25ZM6099 15722c-41-48-34-81 21-104 29-12 80-16 232-15 107 1 207 2 221 2s66-1 116-3c59-3 100 1 123 11 27 11 59 12 137 6 56-5 147-9 202-10 54-1 134-8 176-15 52-9 81-10 90-3 8 7 86 8 217 4 112-3 241-5 285-4 63 1 83-2 90-14 8-14 13-15 40-2 25 12 59 13 173 6 77-5 158-14 178-20 60-18 84-13 122 25 40 41 44 67 15 102-22 28-34 28-378 21-73-1-236 1-363 4-127 4-339 9-472 11-133 3-249 5-257 6-9 0-108-3-221-8-198-9-488-3-651 12-70 7-81 6-96-12ZM7289 14762c-25-18-52-46-60-63-36-68-7-271 47-336 24-29 36-34 88-39 33-2 60-9 60-13 0-18-31-125-42-146-13-24 1-63 23-65 47-4 68 4 193 73 15 8 29 31 37 58 7 24 21 54 32 65 10 12 19 29 19 37 1 23 32-21 32-44 0-21 11-30 48-36 20-4 34 3 56 27 23 24 39 32 70 32 46 0 67 13 85 55 9 20 21 29 40 29 22 0 26-5 26-32 0-33 31-73 57-73 8 0 29 17 46 38 32 38 65 43 65 9 0-20 50-33 73-19 19 12 29 51 31 126 0 32 10 74 23 101 25 50 21 102-6 102-8 0-27-26-42-58s-32-58-37-58c-22 0-31 41-21 95 15 77-5 99-62 70-20-10-29-27-38-76-8-34-11-76-8-91 3-16 2-41-2-57l-7-28-20 32c-10 18-22 49-26 69-4 21-13 46-21 56-13 18-15 18-40-5-14-14-29-36-33-50-3-14-13-25-21-25-19 0-29 32-21 65 5 20 0 31-22 49-16 12-34 22-42 22-19 0-78-52-78-68 0-19-62-166-76-179-7-7-9 29-4 114l6 124-49 47c-62 61-87 73-178 87-122 19-151 16-201-21Zm251-90c75-23 90-39 105-114 11-55 10-72-5-126-37-125-93-215-133-215-24 0-39 46-22 66 6 8 14 47 18 87s19 103 33 139 23 73 20 82c-8 21-38 15-53-12-6-11-21-35-33-52-13-18-26-42-30-55-10-31-55-66-86-66-26 0-37 27-51 130-18 127 82 184 237 136Zm314-186c0-19-7-43-15-54-9-12-16-29-16-39-1-19-12-24-25-12-4 4-2 14 5 21 7 9 9 31 5 56-5 30-2 45 10 58 23 22 36 11 36-30ZM6531 14636c-18-20-31-47-31-62s-8-37-16-50c-11-15-16-45-15-88 1-78-14-127-37-118-20 8-24 20-38 121-13 97-32 139-76 165-26 15-32 16-58 1-43-24-52-76-28-171 18-75 18-80 0-152-18-67-18-79-5-120 9-27 14-71 11-113-2-38-4-104-5-147l-1-79 33-3c44-4 83 31 71 65-4 12-7 41-6 64s3 73 4 111c2 41 9 77 18 88 12 15 11 21-8 48-23 30-31 78-15 88 18 11 36-13 41-54 4-25 16-52 29-65 20-19 25-20 51-6 38 20 44 6 31-70-15-83-5-203 19-224 24-22 60-12 73 21 5 13 5 57-1 101-6 43-8 132-4 199 3 66 8 158 10 204 2 56 12 103 27 140 27 63 22 99-19 125-21 15-25 13-55-19Zm-252-424c-13-16-31-13-31 6 0 5 10 10 22 10 18 0 20-3 9-16Z" style="fill-rule:nonzero" transform="matrix(.02286 0 0 -.02286 -3.395 414.368)"/>
	<path d="M6637 14433c-29-30-28-49 4-79l27-25 26 25c37 35 35 78-5 92-25 9-33 7-52-13ZM7070 14430c-11-15-20-51-21-79-2-53-24-99-52-110-24-9-34 7-46 71-26 137-85 99-132-86-24-94-52-145-80-145-21 0-22 3-17 70 9 104-6 123-54 72-21-22-24-36-23-101 1-52 7-86 20-108 24-41 50-57 70-44 9 6 34 24 57 41 40 28 44 29 66 13 55-39 93-16 147 88 38 73 47 84 74 84 28 0 32-33 9-65-28-38-27-57 4-78 25-15 29-15 62 5 51 32 62 64 43 119-9 24-24 53-34 64-13 15-18 40-19 103-1 111-33 149-74 86Zm-154-252c16-51 16-51 24-30 5 13 10 16 15 8 8-12-24-37-63-49-30-8-38 6-30 52 5 27 13 37 27 37 12 0 23-8 27-18ZM8354 14181c-36-16-96-89-112-138-10-30-9-41 5-63 23-35 35-32 56 14 24 54 75 108 103 108 27 0 57-31 57-60 0-13-15-31-39-46-24-16-57-54-83-98-23-39-47-75-52-78-6-4-30-32-55-61-33-41-49-53-65-49-29 7-27 17 16 87 46 75 46 105 4 141-53 45-64 39-115-66-22-47-37-64-51-64-22 0-94 44-108 66-11 16-11 80-1 81 12 0 35 53 35 80 0 14-10 34-22 46-20 20-24 20-45 7-51-34-80-114-80-220 0-22-5-50-11-61-20-37-42-192-35-249 5-45 13-61 38-82 54-45 79-33 135 64 90 154 127 180 157 108 27-66 106-78 149-23 32 41 58 50 87 31 30-20 78-21 102-3 9 7 39 56 65 110 44 88 49 108 58 204 11 128 4 146-71 195-57 37-75 40-122 19Zm93-326c-17-36-53-66-65-54-11 11 17 70 46 97 24 22 30 24 33 11 2-9-5-34-14-54Zm-522-108c18-23 16-51-5-88-12-19-27-30-42-30-21 0-24 5-24 41 0 22 3 55 7 73 5 28 10 32 28 27 13-4 29-14 36-23ZM7288 13767c-12-17-22-36-22-42 0-7-10-22-22-34l-22-22-23 40c-28 51-77 68-116 42-35-23-69-91-69-138 0-52-34-108-66-110-18 0-5 58 19 91 33 43 30 68-8 81-26 9-34 6-67-26-58-56-70-88-71-188-1-81 1-89 22-100 16-8 44-9 84-4 48 7 67 15 88 39 30 33 57 98 67 162 4 26 13 40 28 45 32 10 35 0 20-62-24-100 6-162 74-152 21 3 27 13 37 58 14 63 21 77 41 77 11 0 16-13 16-47 0-88 58-104 149-41 55 37 134 129 134 155 0 19-35 49-58 49-11 0-37-17-59-38-33-33-41-36-60-26-26 14-27 22-11 93 16 65 7 100-27 116-41 18-54 15-78-18Zm-135-92c-7-3-19-3-26 0-7 2-1 5 13 5s20-3 13-5ZM12640 17656c-3-14-1-26 4-26 15 0 23 31 11 43-7 7-12 2-15-17ZM4914 16532c-89-30-148-80-225-189-60-85-73-121-65-181 12-95 25-154 35-157 5-2 8-17 5-34-3-25 1-33 28-47 17-9 34-25 38-35 6-20 99-67 183-93 59-18 147-19 168-1 9 8 38 22 64 32 85 31 111 54 155 135 57 105 62 158 27 308-31 131-46 166-92 207-90 81-194 98-321 55Zm232-123c40-25 76-143 87-282l6-79-39-38c-22-21-61-46-86-55-26-9-58-22-72-28-19-10-31-9-61 5-20 10-41 15-46 12-17-10-95 16-102 35-3 10-14 27-25 39-19 22-51 132-51 177 0 57 32 111 107 176l74 63 95-7c53-4 103-12 113-18ZM9572 16445c-35-39-6-117 44-117 11 0 47-15 81-33 35-17 84-34 110-37 41-5 51-3 72 21l25 26-38 47c-30 36-50 49-88 59-27 7-70 22-95 33-56 25-88 25-111 1ZM9967 16296c-36-15-50-55-34-94 10-24 24-35 56-44 24-7 53-19 64-27 12-7 29-13 38-13s35-10 57-21c50-26 82-27 104-5 44 43 28 101-34 127-21 9-57 30-81 47-46 33-128 48-170 30ZM10357 16113c-19-19-35-44-35-55 0-27 60-84 99-94 45-10 132-55 132-67 0-6 17-11 39-10s52-2 69-6c56-14 109 66 76 116-9 13-46 39-82 58-36 18-70 37-76 41-6 5-31 11-56 14s-54 13-64 22c-29 26-63 20-102-19ZM10800 15938c-31-36-34-70-11-114 17-33 26-37 103-48 32-4 68-19 93-37 77-55 140-52 166 10 10 24 10 40 1 68-11 32-22 40-104 74-50 21-109 47-130 59-55 29-86 26-118-12ZM11206 15768c-63-44-30-124 68-159 28-10 84-32 126-49 50-20 85-29 102-24 29 7 69 62 69 95 0 32-29 64-66 72-18 4-48 14-65 21-76 34-168 68-183 68-10 0-32-11-51-24ZM4272 15690c-47-51-50-62-39-202 5-73 14-152 20-177 15-68 12-98-16-144-35-56-35-104 0-127 24-15 28-15 51-1 32 21 37 45 45 223 7 158 16 198 34 150 11-29 40-50 69-50 9 0 35 19 56 42 36 39 41 41 54 26 11-13 12-28 3-71-19-90-26-211-14-242 15-40 70-41 85-2 7 18 7 34 0 47-16 30-13 342 4 405 12 45 12 58 0 81-9 16-23 29-33 29-23 0-65-29-65-45 0-6-19-27-42-46-37-33-40-39-35-77 14-101-36 4-55 117-7 40-37 75-74 86-15 5-29-2-48-22ZM11613 15596c-29-26-52-56-52-66 0-39 65-82 183-120 64-21 131-43 150-49 29-10 41-8 68 8 76 44 33 126-101 192-47 24-97 52-111 63-44 34-79 27-137-28ZM4773 15599c-30-30-33-45-12-72 17-23 41-24 63-2 23 23 21 60-4 83-19 17-21 17-47-9ZM5258 15557c-58-39-102-99-102-135 0-32 69-73 136-81 44-5 47-8 47-37 0-27-7-35-45-53-96-47-142-142-72-150 34-4 64 16 167 116 63 60 71 72 71 107 0 42-6 46-139 95-35 12-50 24-50 37 0 28 17 35 92 37 94 2 110 35 40 78-48 30-87 26-145-14Z" style="fill-rule:nonzero" transform="matrix(.02286 0 0 -.02286 -3.395 414.368)"/>
	<path d="M5046 15555c-89-30-140-94-121-149 9-25 24-37 68-55 69-28 90-50 78-81-13-33-49-48-100-42-25 3-50 0-56-6-31-31 6-93 62-107 27-6 36 0 165 102 24 19 44 43 44 53 2 43-61 99-128 116-55 14-25 73 43 87 43 9 61 38 38 61-32 32-51 36-93 21ZM4762 15432c-24-37-40-179-30-270 8-75 10-79 37-82 38-4 42 13 38 166-1 66 2 141 6 165 9 42 8 45-13 45-12 0-29-11-38-24ZM12056 15419c-7-15-12-45-12-67 0-48 25-74 69-74 17 0 47-12 68-26 20-14 58-31 84-38 25-6 55-19 65-28 33-31 90 13 107 83 7 25 1 32-43 65-28 20-70 42-93 49-23 8-49 19-58 26-32 24-76 37-125 37-44 0-52-4-62-27ZM12481 15252c-29-27-36-66-17-101 9-18 175-104 200-104 5 0 22-8 36-17 16-11 36-15 51-11 29 7 70 65 70 99 0 27-54 72-103 86-22 6-48 18-60 26-11 9-27 16-36 16s-30 7-47 16c-42 22-62 20-94-10ZM12884 15086c-12-13-25-35-29-49-9-38 59-97 139-121 35-10 79-25 100-34 27-11 45-12 64-5 33 13 83 70 83 96 0 27-40 53-80 53-17 0-71 18-119 42-99 48-128 51-158 18ZM4557 14907c-26-42-26-61-2-93 26-34 54-108 55-143 0-16 7-59 17-97 9-38 17-89 18-115 1-41 5-49 30-61 20-10 34-11 48-3 25 13 55 73 55 109 0 15 9 42 20 62 11 19 23 59 27 90 6 49 24 76 51 76 18 0 68-131 79-205 9-63 17-89 34-103 12-10 26-18 30-18 22 0 42 36 42 77 1 78 51 247 102 345 22 43 25 56 15 77-8 18-20 26-39 26-21 0-30-8-42-39-8-22-22-53-31-69-8-17-15-39-15-51 0-33-30-93-46-93-18 0-70 102-70 135 0 12-11 34-24 50-49 56-98 7-134-134-17-70-40-119-54-119-9 0-15 15-16 42-7 110-50 248-86 275-27 21-42 16-64-21ZM13322 14925c-34-18-50-45-50-83 0-23 9-32 55-53 30-14 65-26 77-26s38-8 57-17c19-10 54-20 79-22 37-5 47-2 61 19 24 33 22 79-3 104-24 24-59 28-67 8-4-9-8-10-14-3-8 11-33 29-97 71-33 22-60 23-98 2ZM13679 14753c-17-14-29-33-29-48 0-25 25-57 44-57 6 0 44-17 83-37 83-42 136-47 167-16 49 49 3 108-121 152-86 30-112 31-144 6ZM13776 14195c-20-13-41-29-45-37-5-8-34-26-65-41-59-28-110-84-110-120 0-32 45-74 80-74 23 0 46 16 94 66 35 36 79 73 96 83 44 23 69 72 55 108-5 14-17 27-25 27s-22 2-29 5c-8 3-31-5-51-17ZM13388 13911c-32-23-62-50-68-59-14-25-44-47-94-67-24-9-50-29-59-44-14-25-14-31 0-57 44-79 117-69 221 29 37 35 70 63 73 63s23 18 44 40l38 39-23 47c-30 63-56 65-132 9ZM13036 13627c-12-7-68-50-126-95s-121-94-139-109c-36-27-42-53-22-91 15-30 29-39 61-39 30 0 107 49 138 89 11 14 27 27 35 27 17 0 101 68 129 105 37 46 38 69 6 98-32 30-50 33-82 15ZM12604 13304c-12-5-50-35-84-66s-79-67-101-80c-56-34-81-71-81-118 0-45-8-49-54-25-28 15-34 14-75-4-25-12-63-40-86-63-23-24-72-61-109-83-38-21-81-51-97-66-26-24-29-33-24-71 7-47 0-53-33-28s-47 19-117-47c-36-35-86-73-112-84s-70-41-97-68c-49-46-50-48-43-96 3-26 9-53 12-58 4-5 32-9 63-9 51 0 59 3 81 32 22 30 89 81 171 131 58 35 87 67 94 104 6 35 6 36 66 36 53 0 63 3 83 29 46 59 179 178 224 201 37 18 44 28 59 81 9 28 14 31 46 28 54-5 157 45 172 83 7 19 43 52 98 90 47 34 89 67 92 74 9 24-18 65-50 76-37 13-67 13-98 1ZM11311 12313c-28-25-83-70-123-99-154-113-160-121-124-179 51-83 83-77 211 43 57 53 121 111 142 128 52 43 58 77 23 119-39 46-69 43-129-12ZM10946 12025c-11-2-35-18-52-34-18-16-58-47-90-70-139-96-176-129-183-161-9-41 10-65 67-84 36-12 44-11 67 6 14 11 33 33 42 48 16 28 94 90 144 116 44 21 84 64 83 87 0 27-32 93-46 95-6 1-20 0-32-3ZM10416 11634c-29-29-75-64-103-78-52-26-75-60-75-107s17-67 61-67c33 0 56 12 130 68 104 78 176 144 176 161 0 6-15 26-34 43-53 50-90 45-155-20ZM10111 11394c-8-2-40-26-71-52s-75-57-99-69c-28-15-51-38-70-72-26-47-26-52-11-79 9-16 26-30 38-32 27-4 116 40 144 70 11 13 26 23 33 23s19 6 25 15c7 8 26 18 43 21 33 7 60 42 69 87 11 51-50 104-101 88ZM9681 11068c-20-11-48-32-62-47s-32-27-39-27-26-15-42-33c-17-17-48-42-71-55-72-40-91-111-38-138 27-14 36-15 67-1 20 8 57 33 82 56 25 22 64 54 87 71 104 74 146 129 131 170-12 30-62 32-115 4ZM9209 10723c-26-16-62-43-79-60-18-18-46-44-64-58-17-15-35-32-39-39-11-17 20-87 38-87 41 0 81 16 115 46 21 18 68 56 106 85 79 62 88 82 54 117-33 33-73 32-131-4ZM8815 10410c-41-31-97-71-126-88s-62-46-72-64c-20-33-20-34 1-61 29-40 61-40 108-2 22 18 58 38 80 45 28 9 45 23 55 45 7 17 36 45 63 63 58 37 69 77 31 104-38 26-62 19-140-42ZM3885 10448c-45-6-104-38-105-56 0-5-19-26-42-47-33-29-42-45-42-73 0-37 2-38 135-94 64-26 75-40 75-95v-48l-81 5c-57 4-95 12-124 28-50 27-101 29-123 4-9-10-26-39-39-64-21-42-22-47-6-65 29-31 112-45 241-39 105 4 124 8 168 34 67 40 81 65 83 147l2 69-67 63c-37 34-73 63-81 63s-15 7-15 15c0 11 11 16 37 16 32 0 37 3 37 27 0 25 2 27 34 20 18-4 50-19 70-33 23-15 52-24 76-24 37 0 40 2 40 29 0 37-33 70-95 92-68 24-124 32-178 26ZM8514 10190c-14-8-40-21-59-30-20-9-60-38-90-64-29-26-59-47-65-47-22 0-66-59-74-97-7-38-6-40 41-62 42-21 51-22 80-10 17 8 32 17 32 22s20 23 45 40 51 43 60 58c8 16 37 42 64 59 52 32 68 59 58 99-9 34-58 51-92 32ZM4181 10075c-17-15-36-26-43-26-25 0-97-80-132-146-20-38-37-74-37-79 0-27 45-99 69-110 45-20 75-14 172 37 54 28 100 46 110 42 25-10 20-42-14-84-16-21-36-52-43-70-12-29-11-36 7-61 36-48 63-38 126 45 103 138 129 157 191 140 31-9 39-8 51 8 7 11 14 32 14 48 0 34-20 42-95 38-35-2-47 1-47 13-1 40-114 50-169 15-13-8-63-15-121-17-119-4-127 6-59 79 57 61 93 66 108 15 12-43 40-49 63-13 37 56-24 152-97 152-13 0-37-12-54-26ZM8080 9882c-22-15-56-41-73-57-18-17-50-39-72-51-66-34-82-112-29-140 51-27 106-8 179 62 34 32 65 59 70 59 14 0 46 58 46 83s-44 74-66 73c-7 0-32-13-55-29ZM4698 9736c-75-27-143-87-178-160l-29-61 34-58c28-49 40-61 74-70 47-13 137-69 185-116 43-42 98-57 146-41 20 6 46 9 57 5 21-7 21-7 0-48-26-51-26-80 0-94 37-20 74-12 104 21 15 17 33 32 39 32 7 0 15 7 19 15 7 19 39 21 57 3 19-19 15-48-15-102-20-34-26-57-22-76 8-30 101-124 136-138 41-15 193 21 218 51 7 8 10 30 9 48-5 47-59 81-101 63-45-19-77-22-98-11s-27 46-11 57c5 3 18 35 28 72 15 57 16 74 5 108-24 76-54 92-112 62-50-26-60-22-52 26 4 24 2 52-4 63-16 29-59 26-90-5-34-34-64-50-114-59-78-14-92 14-30 57 22 15 53 32 69 38 28 10 70 66 70 93 1 22-64 97-84 97-10 0-24-8-31-16-7-9-18-16-23-16-16 0-93-61-135-107-35-38-40-40-66-28-40 18-35 42 17 74 55 35 121 106 129 139 11 43-62 101-125 100-12 0-47-8-76-18Zm73-77c42-33 36-60-20-84-60-27-83-23-87 14-4 33 35 92 62 92 9 0 30-10 45-22Zm222-168c11-18-27-51-60-51-23 0-29 4-29 21 0 31 73 56 89 30ZM7735 9628c-16-5-52-29-79-54s-79-68-114-95c-37-28-68-61-72-75-9-35 21-90 51-92 50-4 66 4 124 59 33 32 66 58 72 58 11 0 73 42 101 69 57 52-7 151-83 130ZM7296 9294c-61-47-166-117-177-117-28 0-63-52-63-92 0-95 111-105 182-16 10 13 24 24 31 24 16 0 94 54 113 78 24 33 29 51 19 85-16 57-60 73-105 38ZM6858 8960c-20-10-60-40-91-68-30-28-76-60-103-71-56-24-72-50-68-108 2-33 10-48 32-64 35-27 52-19 147 63 35 30 71 56 78 56 47 0 130 97 130 154 0 28-6 37-27 45-38 14-57 13-98-7ZM6432 8639c-18-19-50-46-72-59-21-13-44-33-50-44s-16-21-23-21c-20 0-57-35-65-61-5-15-2-33 9-49 26-39 77-35 131 10 24 20 68 51 98 68 89 52 114 77 115 115 2 78-84 103-143 41ZM6072 8372c-7-3-22-21-34-40s-37-41-56-48c-18-8-46-24-61-36-15-11-50-34-77-50-55-33-77-72-59-111 11-25 68-54 105-54 33 0 274 228 274 259 0 52-52 97-92 80ZM5646 8043c-22-16-58-46-80-65s-54-43-72-52c-57-31-59-111-3-140 17-9 38-16 48-16 9 0 49 30 88 66s89 80 110 98c93 79 6 184-91 109ZM4150 7977c-37-40-42-70-40-249 2-171 2-174-27-234-17-33-30-70-30-82s-17-39-37-59c-21-21-44-46-51-57-12-17-15-13-26 41-7 33-17 79-22 102-13 55 8 90 51 90 27 0 64 22 64 38 0 18-25 46-41 46-37 0-45 25-38 108l8 78-32 22c-40 28-46 28-74-2-26-28-29-50-18-145l7-70-53-11c-71-16-88-15-129 4-50 24-92 7-92-38 0-18 9-44 21-59 29-36 27-40-20-59-23-9-52-28-64-41-20-21-22-32-16-87 5-52 2-69-16-98-33-54-47-38-47 59-1 89-13 118-48 118-24 0-49-36-58-81-8-44-28-39-35 7-10 66-80 72-107 9-19-46-15-224 6-256 31-47 89-36 122 22 21 37 38 36 71-6 43-54 110-34 152 45 11 20 30 78 42 130 24 98 42 117 66 69 10-19 9-37-2-81-19-74-7-110 37-110 48 0 62 31 65 142 2 101-7 136-42 165-26 21-28 38-7 66 14 20 15 20 56-3 23-13 49-23 58-23 12 0 16-24 22-112 8-121 29-179 74-209 31-21 66-12 81 20 16 36 36 68 55 89 9 10 17 29 17 42s12 36 28 51c26 27 28 27 42 8 8-11 14-30 14-42 0-35 24-61 49-53 21 6 36 43 66 160 6 25 16 47 22 51 19 12 50-6 62-35 18-43 111-99 175-104 54-5 99 9 99 30 0 6 24 38 54 71 84 92 102 162 50 190-36 20-63 2-90-59-20-47-33-61-71-79-45-22-48-22-74-5-31 20-90 97-90 118 0 8-14 21-30 30-35 17-56 7-78-37-8-14-23-26-34-26-33 0-27 99 10 173 25 49 29 66 25 128-3 50-10 77-24 92-26 30-79 29-108-2Z" style="fill-rule:nonzero" transform="matrix(.02286 0 0 -.02286 -3.395 414.368)"/>
	<path d="M4344 7969c-10-7-18-24-18-41 0-23 6-31 27-36 33-9 47-1 47 26 0 24-19 62-30 62-4 0-16-5-26-11ZM10227 7894c0-41 18-92 34-92 21 0 18 32-7 80l-26 51-1-39ZM5296 7777c-43-24-130-93-130-102 0-5-31-29-68-53-73-47-90-75-73-123 6-15 22-31 40-36 27-10 34-6 84 43 29 29 87 69 128 90 89 44 103 59 102 107-2 58-45 97-83 74ZM4950 7734c-11-27 0-53 23-56 31-5 51 22 36 49-13 25-51 29-59 7ZM1823 7520c-33-14-44-28-60-70-11-30-20-80-20-116 0-78-17-114-55-119-16-1-29 1-29 6 0 6-17 29-38 54-34 40-41 44-87 44-57 0-93-29-121-97-21-50-21-57 5-82 25-26 65-27 106-3 30 18 32 18 46-1 19-25 64-48 95-48 33 0 58-48 45-83-5-14-6-41-3-61 4-19 4-47 0-61-6-23-12-26-53-26-51 0-96 16-104 37-3 7 4 24 15 37 29 33 26 49-18 89-42 38-77 46-98 21-42-52-30-189 22-238 26-24 40-28 134-34 115-8 159 3 159 37 0 11 8 35 17 53 10 20 20 76 24 143 5 71 14 124 25 145 10 19 18 39 18 45 0 5 14 40 31 76 67 143 78 209 42 248-26 28-44 28-98 4ZM2608 7529c-28-12-51-100-42-162 4-24 10-68 15-97 5-30 4-96 0-146-6-61-6-96 2-103 6-6 11-39 11-72 0-69 12-82 61-65 35 12 40 50 22 167-12 77-11 92 10 170 25 99 30 261 9 289-17 22-59 31-88 19ZM2380 7486c-31-24-82-111-102-173-7-23-14-87-15-141-1-97-3-103-42-166-45-74-55-83-71-67-9 9-9 40 0 113 18 152 0 169-125 122-68-26-81-36-111-82-55-83-80-172-70-244l9-60 47-3c33-2 54 2 73 17 41 30 68 36 91 18 34-26 71-18 131 26 31 23 61 41 67 39 5-2 14-17 18-33 8-32 35-65 64-81 47-25 108 45 162 185l26 68-22 45c-32 66-49 83-79 85-35 2-34 23 4 99 49 98 56 131 43 183-19 71-51 87-98 50Zm-339-426c24-9 21-32-9-84-27-45-62-67-80-49-15 15 1 98 24 120 20 20 37 24 65 13Zm386-19c24-52-25-155-57-123-16 16-11 95 8 123 21 32 34 32 49 0ZM4834 7411c-29-31-66-64-81-75-32-21-36-50-11-75 15-15 19-15 39 0 13 9 47 28 76 42s64 38 78 52c22 23 23 31 15 66-8 31-15 40-37 42-20 3-38-9-79-52ZM6244 7438c-16-9-39-36-50-60-12-24-29-58-39-75-14-25-18-60-19-163-1-144-9-210-33-257-45-92-92-95-80-6 3 26 1 68-6 93-12 43-13 44-56 44-24-1-60-9-79-19-40-22-128-133-128-162 0-39-58-123-84-123-5 0-18 12-28 26-13 20-14 33-6 50 32 71 34 155 3 155-22 0-63-51-79-98-24-75-22-213 5-257 19-32 24-34 81-34 43 0 70 6 92 21 18 11 44 21 59 21 16 0 39 13 57 32 35 37 41 37 101 10 88-40 123-20 160 90 19 55 30 73 45 73s20-10 25-49c6-50 21-76 54-94 22-12 55 8 120 73 39 38 77 45 119 23 14-8 51-14 83-14 62 0 73 9 88 71 9 42-12 234-30 270-8 16-14 49-14 74 0 53-14 71-54 71-47 0-91-45-100-102-4-26-13-60-21-75s-14-33-14-39c0-7-15-30-33-53-17-22-35-53-38-69-7-38-50-42-59-6-18 74-20 136-4 169 9 18 24 56 34 85 10 28 27 60 38 71 13 13 23 43 29 88 9 80-6 123-50 139-15 6-35 13-43 16-9 4-30-1-46-10Zm40-148c-4-10-14-42-22-70-13-47-42-84-58-74-4 3 5 40 21 83 21 60 32 79 47 79s18-5 12-18Zm-362-432c0-25-29-50-42-37-7 6-4 19 6 33 20 29 36 30 36 4Z" style="fill-rule:nonzero" transform="matrix(.02286 0 0 -.02286 -3.395 414.368)"/>
	<path d="M2811 7308c-14-12-43-56-64-98-49-101-53-177-11-222 53-58 99-81 140-74 42 8 106 64 106 92 0 31-44 44-82 25-39-20-44-21-44-4 0 7 17 27 38 43 49 40 99 118 99 157 0 21-12 42-36 66-43 43-102 49-146 15Zm81-90c26-11 19-44-16-75-36-33-61-44-80-37-24 9-14 46 22 82 37 37 46 41 74 30ZM5567 7260c-30-21-29-58 1-87 48-44 123-19 123 42 0 54-73 81-124 45ZM4510 7187c-105-76-185-142-191-158-3-9 0-22 7-31 32-38 131-1 217 79 30 29 60 53 66 53s18 11 28 26c16 24 16 28 0 52-25 37-54 32-127-21ZM4821 7107c-41-38-49-57-59-140-4-35-13-67-20-71-6-4-38-8-70-8-59 0-94-19-94-50 0-30 34-46 83-39l48 6 12-50c10-41 9-56-2-79-8-16-15-42-15-58 0-62-61-107-65-48-7 134-9 139-83 162-34 10-42 9-72-13-19-14-46-49-60-78-43-90-57-110-72-110-18 0-18 3-20 96-1 53-6 75-21 92-28 31-58 24-86-20-13-20-33-48-44-62l-20-26-35 22c-27 16-62 23-133 27-91 6-98 5-109-15-8-16-8-35 2-70 7-27 14-99 15-159 1-61 5-119 10-129 11-27 56-24 68 5 17 42 41 138 48 188 7 56 31 86 41 53 4-11 2-42-4-69-14-62 13-146 49-152 26-3 56 43 56 86 0 30 48 133 62 133 17 0 19-26 4-56-31-60 11-164 66-164 18 0 42 15 73 47 43 45 49 47 105 47 43 0 66-6 85-21 30-23 68-20 101 8 15 14 25 14 59 4 22-7 46-19 54-28 18-22 41-19 95 9 36 19 53 37 78 86 39 74 64 82 90 27 9-20 26-40 38-44 28-10 105 5 128 26 10 9 22 17 26 17 12 0 58 56 59 71 0 26 21 12 21-14 0-46 18-67 57-67 46 0 85 43 68 74-7 14-7 27 1 40 6 11 11 38 11 59s15 75 35 119c56 128 62 154 49 195-14 41-35 53-64 37-17-9-20-22-20-77 0-56-5-71-27-95-32-34-47-27-47 22 0 70-36 99-67 55-12-17-13-29-4-54s7-38-6-61c-10-16-17-44-17-63 0-42-32-94-79-130-42-32-49-33-72-8-24 27-23 34 20 90 36 47 37 52 30 108-9 69-40 130-68 130-24 0-94-81-94-108 0-11-9-32-21-47s-21-39-21-54c0-42-23-95-63-151-27-38-42-50-64-50-17 0-31 7-35 18-4 10-1 80 6 155 15 156 29 188 90 200 53 9 119 53 119 79 0 30-26 36-76 20-39-13-44-12-57 5-11 16-10 25 8 61 42 83-15 123-84 59Zm293-381c-15-29-38-25-49 7-10 32 25 57 47 35 13-13 14-20 2-42Zm-582-159c8-31-6-50-34-45-24 5-31 36-14 57 19 23 40 18 48-12Zm-390-4c4-6 2-11-4-11s-13 5-17 11c-3 5-2 10 4 10s14-5 17-10ZM2642 6736c-15-31-27-73-27-92 0-27-8-41-32-59-39-28-39-40-3-77 22-24 30-44 36-101 4-38 5-96 2-128-5-51-2-67 27-124 41-81 64-90 132-50 26 15 55 40 65 54 21 32 36 32 67-1 42-45 68-35 104 40 31 68 46 87 73 93 11 3 14-10 12-63-2-76 15-106 64-106 33 0 62 32 62 71 0 29 17 65 31 65 5 0 21-19 34-42s30-44 38-47 40 6 70 21c90 42 118 33 145-48 33-101-28-199-126-199-44 0-52 4-96 53l-49 52-40-26c-40-28-47-52-32-108 9-34 104-79 215-102l91-19 64 55c35 31 73 76 86 102 32 67 30 194-6 287-8 20-17 55-20 77-7 48 19 260 35 290 17 32 13 61-12 79-41 28-64 19-137-56-56-58-72-81-77-115-8-52-40-107-62-107-21 0-20 35 2 98 16 44 16 51 3 60-34 22-66 6-107-53-22-32-40-64-40-71s-9-13-20-13c-20 0-32 27-32 74-1 33-33 66-60 61-25-5-67-83-79-144-10-53-34-85-63-85-18 0-20 7-18 68 3 75-6 93-44 87-20-3-30-19-56-94-31-89-88-173-120-179-30-6-54 171-34 243 7 27 16 33 109 74 60 28 78 54 53 79-16 16-39 17-111 2-23-5-39 48-33 104 6 48 4 56-15 66-35 19-41 14-69-46Zm896-276c0-16-9-44-21-63-36-60-57-17-26 56 18 44 48 49 47 7Z" style="fill-rule:nonzero" transform="matrix(.02286 0 0 -.02286 -3.395 414.368)"/>
	<path d="M2932 6783c-17-7-23-18-23-41 0-53 9-64 53-64 34 0 43 5 57 32 15 30 15 32-10 57-28 28-40 31-77 16ZM710 6577l-30-38 13-85c21-134 23-246 4-305-14-42-15-59-5-92 8-25 9-47 3-59-5-10-13-58-16-107-4-50-14-116-23-147-9-32-18-118-20-193-2-74-9-156-15-183-6-28-16-78-22-113-6-34-13-75-17-89-3-18 2-36 19-56 24-29 25-29 166-34 212-6 335-16 341-26 8-12 58-13 76-1 26 16 36 82 40 259 5 201 19 394 36 504 11 71 15 146 24 512l5 176-29 21c-23 16-47 21-101 21-40 0-98 7-130 15-32 9-79 16-105 16-27 0-66 9-89 21-61 31-90 27-125-17Zm324-160 115-7 10-47c10-53-9-435-27-519-6-28-8-70-5-94s1-62-4-85c-6-23-14-139-18-257l-8-216-94 2c-154 2-251 9-266 18-10 6-12 19-8 42 4 18 12 87 17 154 5 66 17 175 26 241 10 66 21 203 26 305 5 101 13 196 20 212 6 16 8 65 5 115-5 77-3 92 17 122 19 31 26 35 50 28 16-4 81-10 144-14ZM2302 6561c-20-21-21-25-7-52 17-33 66-48 98-31 28 15 28 43 0 78-26 33-60 35-91 5ZM2095 6461c-23-8-60-19-81-24-22-4-47-14-56-21-18-16-21-69-4-80 19-12 51-91 51-129 0-19-4-44-10-55-20-36-41-23-58 39-26 89-56 149-80 162-30 16-66 5-87-27-9-14-21-26-26-26s-20 22-33 48c-47 98-85 70-91-66-2-51-12-121-21-157s-13-77-9-92c10-41 42-69 71-62 34 9 79 53 87 86 18 77 41 138 53 138 15 0 52-83 62-142 10-54 22-68 60-68 41 0 112 30 124 52 27 50 41 188 27 264-7 38-7 38 43 56 48 16 52 16 64 0 10-14 10-24-2-45-11-22-12-54-5-147 9-125 18-148 58-148s71 56 79 139c6 70 9 75 60 126 30 30 57 50 62 46 5-5 8-45 9-90 1-126 31-178 85-143 31 21 30 4 19 218-7 130-8 134-32 140-32 8-54-9-62-49-10-44-22-46-57-7-30 33-31 34-69 20-36-13-42-12-67 6-38 28-92 56-109 55-7 0-32-8-55-17ZM2741 5903c-35-16-80-51-118-92-22-24-68-59-103-77-34-18-76-44-92-57s-49-36-73-52c-25-16-45-34-45-40 0-22 61-72 89-72 33 0 75 25 109 65 14 16 30 29 35 29 11 0 206 140 263 189 22 19 40 39 40 45 0 18-55 71-73 70-9-1-24-4-32-8ZM2326 5297c-6-2-43-7-83-10-62-6-77-12-112-44-65-59-92-128-93-240-2-155 11-192 94-272 54-52 79-69 102-69 16 0 34-4 40-9 12-12 100-33 135-33 51 0 161 69 234 147 63 67 70 168 22 302-32 85-101 175-139 179-15 1-41 8-56 16-16 8-45 18-65 22-21 4-44 9-53 11s-20 2-26 0Zm122-132c36-9 93-61 93-84 0-6 10-33 22-59 17-37 21-63 18-110-5-68-26-104-83-143-32-22-43-24-104-17-38 4-75 7-84 7-64-2-117 45-130 114-4 21-16 49-28 62-32 38-28 119 8 172 53 75 145 94 288 58ZM1496 5125c-65-17-79-26-124-76-28-31-68-81-88-112-34-50-37-63-36-122 0-36 6-78 12-94s11-43 11-60c0-18 4-41 10-51 10-18 133-116 183-145 24-14 80-9 148 13 23 8 63 20 89 28 65 19 179 126 179 168 0 16 5 53 11 82 17 80-1 144-72 253-41 64-69 95-86 100-15 4-31 11-37 15-26 19-128 20-200 1Zm208-143c58-48 82-86 79-126-1-11 2-38 6-59 5-25 2-47-9-68-9-17-16-34-16-39 0-22-55-60-124-86-71-28-81-29-126-17-77 20-111 61-139 165-28 107-23 139 29 191 22 22 45 49 51 60 11 19 15 19 55 6 37-12 49-12 83 2 22 9 43 17 46 17 4 1 33-20 65-46ZM2667 3817c-17-21-6-47 21-47 12 0 24 7 28 15 6 16-13 48-28 48-4 0-14-8-21-16ZM2691 3615c-13-2-50-33-82-69l-58-64-37 18c-54 26-118 23-164-9-42-28-71-32-103-15-23 12-73-4-74-24 0-18-32-55-61-70-20-11-27-10-42 3-17 15-27 15-102 1-60-11-88-22-99-37-9-12-33-45-55-73l-39-51 7-107c6-96 9-111 34-140 16-18 36-50 46-71 25-55 43-66 83-55 24 7 45 28 78 77 43 64 46 71 46 147 1 100 13 187 29 202 8 9 19 7 39-7 26-17 28-22 21-67-12-73-10-127 7-183 12-40 23-54 54-71 44-23 58-20 103 28 71 76 88 153 67 306-9 70 1 97 37 97 33 0 40-25 45-158 6-153 15-184 56-191 59-12 119 40 119 101 0 18 7 54 14 79 10 33 11 58 4 91-9 38-7 49 13 82 22 36 26 38 75 36 58-3 68 5 79 64 10 50-18 103-64 122-20 9-40 15-45 14-4-1-18-3-31-6Zm-383-401c3-63 2-65-21-62-22 3-24 8-22 54 2 61 9 84 27 78 8-3 14-29 16-70Zm-334 5c23-25 24-30 13-97-11-63-24-87-47-87-23-1-49 130-35 182 8 35 37 36 69 2ZM1323 3311c-175-56-219-96-259-242-41-146-41-148 1-213 21-31 40-73 44-92 7-36 38-65 69-65 34 0 135 64 151 95 18 35 28 38 47 14 11-13 11-23 1-52-7-19-13-56-12-81 0-24-2-74-6-109l-7-64 37-22c20-13 43-23 52-23 22 0 105 70 118 98 9 20 54 84 114 160 35 46 49 130 39 243-7 88-14 114-43 164-33 60-95 118-148 141-16 6-39 26-52 44-28 38-40 38-146 4Zm22-126c5-15 9-47 8-71 0-23 2-64 7-91 7-46 6-50-38-102-54-62-90-78-111-49-39 53-48 181-15 214 12 12 28 35 37 52 18 35 64 75 86 75 8 0 20-12 26-28Zm218-73 57-69 10-192-38-48c-21-26-41-55-44-64-10-28-39-34-55-12-10 13-13 45-11 108 2 49-1 142-6 207-12 167 0 177 87 70ZM10743 1362c-10-12-11-22-3-36 10-17 11-17 17-1 4 10 6 26 4 36-3 16-5 16-18 1ZM13178 982c-26-30 47-96 83-74 17 10 13 54-5 73-21 21-61 21-78 1ZM1474 553c-10-28 1-54 22-54 17 0 21 7 21 31 0 34-32 51-43 23ZM15516 13408c-26-15-51-69-48-102 4-43-13-116-29-130-8-6-14-17-14-25 0-7-11-25-23-41-28-36-43-23-47 43-2 28-6 77-8 109-6 98-20 125-65 125-39 1-58-32-56-98 2-42-3-64-15-78-13-14-18-47-22-132-5-107-8-118-48-199-24-47-53-102-64-122-31-57-14-105 39-105 30-1 56 32 64 80 3 22 15 53 26 68 10 15 19 45 19 66 0 67 21 132 43 132 27 0 33-14 33-85 1-52 5-65 22-75 19-9 26-6 50 23 16 19 32 49 35 67 8 41 82 177 98 183 9 3 11-23 6-99-6-107-17-159-55-253-18-45-19-60-10-81 15-31 39-41 73-28 60 23 64 47 76 413 1 27 5 47 9 44 19-12 32 117 20 197-8 51-17 72-38 90-30 26-43 29-71 13Zm-225-322c-3-20-12-34-20-34-22 0-22 45-1 71 16 20 27 1 21-37ZM15792 13401c-35-12-63-49-63-82 0-68 67-113 132-89 38 15 46 27 46 76 1 61-62 113-115 95ZM16157 13147c-8-9-21-30-29-47-20-39-38-45-74-24-36 22-55 22-94 2-20-11-34-29-41-52-5-21-19-50-30-66s-23-37-26-47c-4-10-17-23-29-29-32-18-36 6-10 79 34 96 34 102 10 128-49 53-79 23-106-108-28-135-22-216 19-259 15-16 36-29 46-29 30 0 82 51 95 94 11 37 92 148 113 155 24 8 29-58 13-152-15-92-15-98 3-118 54-59 104-1 115 131 9 112 30 168 86 227 26 28 47 54 47 60 0 5-10 21-21 36-26 33-68 42-87 19ZM16827 13119c-18-9-44-29-59-44-16-15-44-33-64-40-64-21-145-181-145-287 0-52 3-64 28-87 48-44 66-45 130-1 74 52 126 148 124 229-2 78 0 89 15 89 26 0 40-77 32-176-6-90-6-93 22-127 42-49 77-43 108 19 13 26 24 65 24 88 0 28 8 50 26 72 14 17 26 40 26 51 0 14 11 21 44 28 59 12 94 59 85 116-14 94-92 106-186 29-32-26-61-47-64-47s-5 12-5 28c0 39-9 50-51 64-46 16-53 16-90-4Zm99-78c0-6-5-10-11-10s-8 4-5 10c4 6 9 11 11 11 3 0 5-5 5-11Zm-168-142c0-15-7-43-15-63-12-28-22-36-42-36-50 0-49 81 2 109 41 23 55 20 55-10ZM16312 13084c-15-17-17-34-13-97 3-43 8-85 12-94s-5-51-20-94c-42-125-32-169 42-184 50-10 73 25 87 132 24 185 40 217 98 204 22-4 32 0 50 22 20 26 20 31 6 58-18 35-64 73-89 73-10 0-26-9-37-21-10-12-25-21-33-21s-20 9-27 21c-17 27-52 27-76 1ZM16870 11281c-15-16-6-25 25-25 21 0 31 5 31 16 0 16-42 22-56 9Z" style="fill-rule:nonzero" transform="matrix(.02286 0 0 -.02286 -3.395 414.368)"/>
</svg>
